<?xml version="1.0" encoding="iso-8859-1"?>
<!-- Generator: Adobe Illustrator 19.0.0, SVG Export Plug-In . SVG Version: 6.00 Build 0)  -->
<svg version="1.1" id="Capa_1" xmlns="http://www.w3.org/2000/svg" xmlns:xlink="http://www.w3.org/1999/xlink" x="0px" y="0px"
	 viewBox="0 0 512 512" style="enable-background:new 0 0 512 512;" xml:space="preserve">
<g>
	<g>
		<path d="M240,317c-24.814,0-45,20.186-45,45c0,24.814,20.186,45,45,45c24.814,0,45-20.186,45-45C285,337.186,264.814,317,240,317z
			"/>
	</g>
</g>
<g>
	<g>
		<path d="M135,0c-24.814,0-45,21.186-45,46c0,24.814,20.186,46,45,46c24.814,0,45-21.186,45-46S159.814,0,135,0z"/>
	</g>
</g>
<g>
	<g>
		<path d="M90,317c-24.814,0-45,20.186-45,45c0,24.814,20.186,45,45,45c24.814,0,45-20.186,45-45C135,337.186,114.814,317,90,317z"
			/>
	</g>
</g>
<g>
	<g>
		<path d="M390,317c-24.814,0-45,20.186-45,45c0,24.814,20.186,45,45,45c24.814,0,45-20.186,45-45C435,337.186,414.814,317,390,317z
			"/>
	</g>
</g>
<g>
	<g>
		<path d="M321.3,160.7c-11.624-11.624-30.978-11.624-42.601,0L244.5,194.9l-39.6-59.399c-5.4-8.401-14.401-13.2-24.901-13.2
			l-1.5-0.3H60c-32.999,0-60,26.999-60,60v127.5c0,12.06,9.549,21.721,21.471,22.29C26.669,320.052,34.88,310.044,45,302.383V197
			c0-8.401,6.599-15,15-15s15,6.599,15,15v91.518c4.849-0.989,9.864-1.518,15-1.518c41.353,0,75,33.647,75,75
			c0-16.732,5.7-32.045,15-44.537V206l35.099,52.5c9.725,15.8,32.205,18.063,46.201,4.799l60-60
			C332.999,191.6,332.999,172.4,321.3,160.7z"/>
	</g>
</g>
<g>
	<g>
		<path d="M299.584,407.04C285.877,425.122,264.386,437,240,437s-45.877-11.878-59.584-29.96C162.065,420.726,150,442.403,150,467
			v30c0,8.291,6.709,15,15,15h150c8.291,0,15-6.709,15-15v-30C330,442.403,317.935,420.726,299.584,407.04z"/>
	</g>
</g>
<g>
	<g>
		<path d="M450.584,407.04C436.877,425.122,414.386,437,390,437c-14.368,0-27.678-4.265-39.097-11.301
			C356.598,438.555,360,452.421,360,467v30c0,5.284-1.082,10.285-2.763,15H466c8.291,0,15-6.709,15-15v-30
			C481,442.403,468.935,420.726,450.584,407.04z"/>
	</g>
</g>
<g>
	<g>
		<path d="M120,467c0-14.579,3.402-28.445,9.099-41.301C117.678,432.735,104.368,437,90,437c-24.386,0-45.877-11.878-59.584-29.96
			C12.065,420.726,0,442.403,0,467v30c0,8.291,6.709,15,15,15h107.763c-1.681-4.715-2.763-9.716-2.763-15V467z"/>
	</g>
</g>
<g>
	<g>
		<path d="M466,31H255c-24.853,0-45,21.147-45,46v23.187c8.051,4.603,14.985,11.08,20.142,19.103l19.014,28.521l8.335-8.32
			c23.34-23.403,61.694-23.388,85.034,0.015c23.423,23.423,23.423,61.567-0.015,85.005L295.02,272H466c24.853,0,46-20.147,46-45V77
			C512,52.147,490.853,31,466,31z"/>
	</g>
</g>
<g>
</g>
<g>
</g>
<g>
</g>
<g>
</g>
<g>
</g>
<g>
</g>
<g>
</g>
<g>
</g>
<g>
</g>
<g>
</g>
<g>
</g>
<g>
</g>
<g>
</g>
<g>
</g>
<g>
</g>
</svg>
