<?xml version="1.0" encoding="UTF-8" standalone="no"?>
<!DOCTYPE svg PUBLIC "-//W3C//DTD SVG 1.1//EN" "http://www.w3.org/Graphics/SVG/1.1/DTD/svg11.dtd">
<svg xmlns="http://www.w3.org/2000/svg" version="1.1" viewBox="0.00 0.00 500.00 500.00">
<path fill="#004379" d="
  M 307.13 0.00
  L 322.50 0.00
  Q 334.08 0.92 345.48 2.79
  Q 385.81 9.42 419.26 32.75
  Q 472.97 70.22 492.19 133.02
  Q 498.26 152.88 500.00 179.63
  L 500.00 192.97
  Q 497.54 238.28 475.70 277.35
  Q 472.58 282.93 469.75 285.27
  C 453.57 298.63 430.87 281.69 439.88 262.32
  C 444.02 253.44 449.08 244.14 452.10 235.58
  Q 468.56 188.95 454.03 141.89
  C 435.03 80.36 376.48 37.90 312.02 39.07
  Q 270.22 39.84 235.57 62.08
  C 203.67 82.56 179.61 115.47 171.59 152.95
  Q 159.50 209.49 187.87 259.14
  C 207.32 293.18 241.17 318.78 279.40 327.78
  Q 327.07 339.02 372.38 320.10
  Q 380.86 316.56 383.35 316.20
  C 393.50 314.73 403.38 322.09 404.93 332.09
  Q 407.08 346.00 394.69 352.75
  Q 387.81 356.49 380.45 359.20
  C 326.28 379.14 267.43 373.70 218.05 344.07
  A 0.80 0.80 0.0 0 0 217.01 344.27
  Q 180.04 392.18 142.13 438.70
  C 130.61 452.85 117.71 465.28 104.89 478.00
  Q 95.26 487.54 89.76 490.99
  Q 78.05 498.32 63.60 500.00
  L 53.51 500.00
  C 24.39 496.33 3.89 476.13 0.00 446.50
  L 0.00 436.02
  Q 2.02 421.16 9.86 409.14
  Q 13.31 403.84 23.06 394.18
  Q 33.97 383.37 44.72 372.42
  Q 47.76 369.31 51.16 366.51
  Q 54.54 363.72 57.88 360.92
  Q 105.89 320.70 155.36 282.59
  A 0.95 0.94 -34.6 0 0 155.59 281.35
  C 108.51 203.63 124.97 103.38 194.12 44.35
  Q 234.18 10.16 286.50 2.30
  Q 296.76 0.76 307.13 0.00
  Z
  M 51.99 459.71
  C 65.95 464.76 73.16 454.36 81.86 445.89
  Q 102.64 425.65 122.84 400.34
  C 149.95 366.37 170.86 340.46 186.21 320.13
  A 0.55 0.54 40.8 0 0 186.15 319.41
  L 180.18 313.49
  A 0.66 0.66 0.0 0 0 179.31 313.43
  C 148.67 336.93 118.62 361.30 88.75 385.77
  Q 75.92 396.28 70.79 401.55
  Q 59.97 412.64 48.95 423.52
  C 41.50 430.87 36.62 437.17 40.06 447.93
  Q 42.76 456.37 51.99 459.71
  Z"
/>
<path fill="#f4b429" d="
  M 374.98 154.92
  Q 359.78 125.26 327.71 118.58
  C 317.55 116.47 306.01 119.10 299.02 109.83
  C 293.61 102.65 293.82 91.64 299.46 84.70
  C 305.06 77.81 314.20 77.72 323.26 78.53
  C 361.24 81.93 393.80 104.25 410.85 138.18
  C 415.83 148.08 416.33 159.53 406.32 166.37
  Q 393.83 174.90 381.10 164.45
  Q 378.96 162.70 374.98 154.92
  Z"
/>
</svg>
