<?xml version="1.0" encoding="UTF-8" standalone="no"?>
<!DOCTYPE svg PUBLIC "-//W3C//DTD SVG 1.1//EN" "http://www.w3.org/Graphics/SVG/1.1/DTD/svg11.dtd">
<svg xmlns="http://www.w3.org/2000/svg" version="1.1" viewBox="0.00 0.00 500.00 500.00">
<g stroke-width="2.00" fill="none" stroke-linecap="butt">
<path stroke="#7a7c51" vector-effect="non-scaling-stroke" d="
  M 232.23 428.92
  L 143.94 428.41"
/>
<path stroke="#7a7c51" vector-effect="non-scaling-stroke" d="
  M 89.41 493.10
  Q 90.26 490.97 89.18 489.84"
/>
</g>
<path fill="#004379" d="
  M 256.11 0.00
  L 493.78 0.00
  Q 497.49 2.81 500.00 6.86
  L 500.00 492.26
  Q 498.00 497.52 492.90 500.00
  L 302.41 500.00
  Q 302.97 493.72 302.97 491.02
  C 303.00 461.46 271.44 463.65 251.44 464.16
  A 1.41 1.41 0.0 0 1 249.99 462.75
  L 249.99 429.72
  A 1.47 1.46 0.0 0 1 251.46 428.26
  Q 298.04 428.36 345.00 428.19
  Q 350.24 428.17 356.74 426.96
  C 381.24 422.37 392.37 403.37 392.52 379.64
  Q 393.40 232.79 392.62 155.50
  Q 392.57 150.70 391.08 143.59
  C 385.28 115.99 365.29 107.69 339.41 107.42
  Q 295.47 106.97 251.79 107.28
  A 1.78 1.78 0.0 0 1 249.99 105.50
  L 249.99 8.19
  A 3.55 3.54 -24.2 0 1 250.89 5.83
  L 256.11 0.00
  Z
  M 481.99 45.58
  A 18.85 18.85 0.0 0 0 463.14 26.73
  L 286.76 26.73
  A 18.85 18.85 0.0 0 0 267.91 45.58
  L 267.91 61.56
  A 18.85 18.85 0.0 0 0 286.76 80.41
  L 463.14 80.41
  A 18.85 18.85 0.0 0 0 481.99 61.56
  L 481.99 45.58
  Z
  M 472.70 133.95
  A 26.37 26.37 0.0 0 0 446.33 107.58
  A 26.37 26.37 0.0 0 0 419.96 133.95
  A 26.37 26.37 0.0 0 0 446.33 160.32
  A 26.37 26.37 0.0 0 0 472.70 133.95
  Z
  M 472.70 205.34
  A 26.37 26.37 0.0 0 0 446.33 178.97
  A 26.37 26.37 0.0 0 0 419.96 205.34
  A 26.37 26.37 0.0 0 0 446.33 231.71
  A 26.37 26.37 0.0 0 0 472.70 205.34
  Z
  M 339.1585 455.1256
  A 8.24 8.24 0.0 0 0 330.9617 446.8426
  L 330.0617 446.8379
  A 8.24 8.24 0.0 0 0 321.7787 455.0346
  L 321.6815 473.5944
  A 8.24 8.24 0.0 0 0 329.8783 481.8774
  L 330.7783 481.8821
  A 8.24 8.24 0.0 0 0 339.0613 473.6854
  L 339.1585 455.1256
  Z
  M 374.9259 455.1754
  A 8.37 8.37 0.0 0 0 366.5705 446.7908
  L 365.6505 446.7892
  A 8.37 8.37 0.0 0 0 357.2659 455.1446
  L 357.2341 473.3646
  A 8.37 8.37 0.0 0 0 365.5895 481.7492
  L 366.5095 481.7508
  A 8.37 8.37 0.0 0 0 374.8941 473.3954
  L 374.9259 455.1754
  Z
  M 410.3438 455.0649
  A 8.25 8.25 0.0 0 0 402.0794 446.8293
  L 401.2194 446.8308
  A 8.25 8.25 0.0 0 0 392.9839 455.0952
  L 393.0162 473.6151
  A 8.25 8.25 0.0 0 0 401.2806 481.8507
  L 402.1406 481.8492
  A 8.25 8.25 0.0 0 0 410.3761 473.5848
  L 410.3438 455.0649
  Z
  M 446.1716 455.0644
  A 8.30 8.30 0.0 0 0 437.8282 446.8079
  L 436.9482 446.8125
  A 8.30 8.30 0.0 0 0 428.6918 455.1559
  L 428.7884 473.6156
  A 8.30 8.30 0.0 0 0 437.1318 481.8721
  L 438.0118 481.8675
  A 8.30 8.30 0.0 0 0 446.2682 473.5241
  L 446.1716 455.0644
  Z
  M 482.2266 455.6388
  A 8.49 8.49 0.0 0 0 473.8110 447.0750
  L 472.8111 447.0663
  A 8.49 8.49 0.0 0 0 464.2473 455.4819
  L 464.0934 473.1212
  A 8.49 8.49 0.0 0 0 472.5090 481.6850
  L 473.5089 481.6937
  A 8.49 8.49 0.0 0 0 482.0727 473.2781
  L 482.2266 455.6388
  Z"
/>
<rect fill="#f4b429" x="285.52" y="44.62" width="178.96" height="17.88" rx="1.02"/>
<rect fill="#f4b429" x="-8.97" y="-9.20" transform="translate(446.15,133.85) rotate(-0.1)" width="17.94" height="18.40" rx="7.22"/>
<path fill="#004379" d="
  M 0.00 365.84
  L 0.00 146.15
  Q 5.64 130.68 20.13 126.54
  Q 25.30 125.07 40.00 125.06
  Q 191.24 124.92 342.50 125.03
  C 347.99 125.03 357.28 126.94 362.14 129.51
  C 372.63 135.07 375.17 146.56 375.15 157.75
  Q 375.01 261.01 374.98 364.69
  A 1.14 1.13 -90.0 0 1 373.85 365.83
  L 0.00 365.84
  Z
  M 68.3337 145.6411
  A 8.72 8.72 0.0 0 0 56.0020 145.5765
  L 20.1066 181.0980
  A 8.72 8.72 0.0 0 0 20.0420 193.4298
  L 20.5063 193.8989
  A 8.72 8.72 0.0 0 0 32.8380 193.9635
  L 68.7334 158.4420
  A 8.72 8.72 0.0 0 0 68.7980 146.1102
  L 68.3337 145.6411
  Z
  M 122.2208 145.6871
  A 8.77 8.77 0.0 0 0 109.8181 145.6871
  L 20.5671 234.9381
  A 8.77 8.77 0.0 0 0 20.5671 247.3408
  L 20.7792 247.5529
  A 8.77 8.77 0.0 0 0 33.1819 247.5529
  L 122.4329 158.3019
  A 8.77 8.77 0.0 0 0 122.4329 145.8992
  L 122.2208 145.6871
  Z"
/>
<circle fill="#f4b429" cx="446.38" cy="205.24" r="9.16"/>
<path fill="#f4b429" d="
  M 0.00 383.52
  Q 186.62 383.58 373.25 383.52
  Q 375.44 383.52 375.08 386.23
  Q 374.15 393.24 371.69 397.94
  Q 370.10 400.99 367.24 404.00
  Q 364.71 406.65 361.14 408.10
  Q 357.15 409.70 352.96 410.60
  Q 349.58 411.32 344.50 411.21
  Q 328.69 410.83 312.89 411.06
  Q 312.81 411.06 309.39 411.42
  C 307.54 411.62 305.55 410.98 303.85 410.98
  Q 182.67 410.77 61.48 410.93
  C 58.25 410.94 54.79 411.74 51.62 411.86
  Q 51.02 411.89 50.41 411.49
  Q 49.99 411.22 49.49 411.22
  Q 40.85 411.20 32.22 411.23
  Q 26.28 411.26 22.35 410.35
  Q 16.71 409.06 12.97 406.88
  Q 2.67 400.89 0.00 387.88
  L 0.00 383.52
  Z"
/>
<path fill="#004379" d="
  M 232.23 428.92
  L 143.94 428.41
  Q 196.44 427.94 231.66 428.37
  Q 232.32 428.38 232.23 428.92
  Z"
/>
<path fill="#f4b429" d="
  M 143.94 428.41
  L 232.23 428.92
  C 232.98 431.00 232.51 432.07 232.50 433.91
  Q 232.42 447.98 232.74 462.68
  A 1.58 1.57 89.6 0 1 231.16 464.29
  Q 188.89 464.23 148.63 464.27
  C 146.84 464.28 145.10 465.36 142.87 463.91
  Q 142.49 463.66 142.49 463.20
  L 142.51 429.27
  A 0.79 0.77 78.7 0 1 142.98 428.55
  Q 143.62 428.28 143.94 428.41
  Z"
/>
<path fill="#f4b429" d="
  M 279.08 500.00
  L 95.78 500.00
  Q 90.83 497.28 89.41 493.10
  Q 90.26 490.97 89.18 489.84
  Q 91.13 481.36 99.76 481.40
  Q 184.76 481.77 269.79 481.81
  Q 269.87 481.81 272.68 481.51
  C 279.05 480.84 285.39 484.19 285.29 491.03
  Q 285.21 497.15 279.08 500.00
  Z"
/>
<path fill="#004379" d="
  M 89.18 489.84
  Q 90.26 490.97 89.41 493.10
  L 89.18 489.84
  Z"
/>
</svg>
