<?xml version="1.0" encoding="UTF-8" standalone="no"?>
<svg
   xmlns:dc="http://purl.org/dc/elements/1.1/"
   xmlns:cc="http://creativecommons.org/ns#"
   xmlns:rdf="http://www.w3.org/1999/02/22-rdf-syntax-ns#"
   xmlns:svg="http://www.w3.org/2000/svg"
   xmlns="http://www.w3.org/2000/svg"
   viewBox="0 0 678.05334 143.85333"
   height="143.85333"
   width="678.05334"
   xml:space="preserve"
   id="svg2"
   version="1.1"><metadata
     id="metadata8"><rdf:RDF><cc:Work
         rdf:about=""><dc:format>image/svg+xml</dc:format><dc:type
           rdf:resource="http://purl.org/dc/dcmitype/StillImage" /></cc:Work></rdf:RDF></metadata><defs
     id="defs6" /><g
     transform="matrix(1.3333333,0,0,-1.3333333,0,143.85333)"
     id="g10"><g
       transform="scale(0.1)"
       id="g12"><path
         id="path14"
         style="fill:#2d7ac8;fill-opacity:1;fill-rule:evenodd;stroke:none"
         d="m 5023.1,1006.02 c 1.3,-25.993 60.76,-964.2817 35.66,-969.8403 C 4989.18,20.6992 3560.98,8.05078 3494.56,1.42969 3413.87,-6.55078 853.367,21.3008 853.367,21.3008 L 12.5547,33.3984 c 0,0 -13.433606,974.5216 -12.5117312,1001.4316 0.7851562,22.85 925.4260312,7.48 1012.1070312,19.58 79.66,11.16 1988.11,-4.62 1988.11,-4.62 l 1226.14,-20.62 796.7,-23.15" /><path
         id="path16"
         style="fill:#ffffff;fill-opacity:1;fill-rule:evenodd;stroke:none"
         d="m 1974.77,745.098 h 130.86 v 55.457 h -320.05 v -55.457 h 129.44 V 264.324 h 59.75 v 480.774" /><path
         id="path18"
         style="fill:none;stroke:#ffffff;stroke-width:31.60820007;stroke-linecap:butt;stroke-linejoin:round;stroke-miterlimit:4;stroke-dasharray:none;stroke-opacity:1"
         d="m 1974.77,745.098 h 130.86 v 55.457 h -320.05 v -55.457 h 129.44 V 264.324 h 59.75 z" /><path
         id="path20"
         style="fill:#ffffff;fill-opacity:1;fill-rule:evenodd;stroke:none"
         d="m 2368.87,948.641 -67.4,-82.649 25.5,-16.465 90.64,79.438 z M 2191.34,262.527 h 278.09 v 55.489 h -218.32 v 210.5 h 211.92 v 55.476 H 2251.11 V 743.34 h 218.32 v 55.445 H 2191.34 V 262.527" /><path
         id="path22"
         style="fill:none;stroke:#ffffff;stroke-width:31.60820007;stroke-linecap:butt;stroke-linejoin:round;stroke-miterlimit:4;stroke-dasharray:none;stroke-opacity:1"
         d="m 2368.87,948.641 -67.4,-82.649 25.5,-16.465 90.64,79.438 z M 2191.34,262.527 h 278.09 v 55.489 h -218.32 v 210.5 h 211.92 v 55.476 H 2251.11 V 743.34 h 218.32 v 55.445 h -278.09 z" /><path
         id="path24"
         style="fill:#ffffff;fill-opacity:1;fill-rule:evenodd;stroke:none"
         d="m 411.879,745.098 h 22.051 c 69.707,0 140.109,-6.399 140.109,-93.86 0,-76.804 -56.187,-96.738 -122.328,-96.738 h -39.832 z m 0,-246.047 h 43.394 c 44.801,0 91.028,5.652 127.293,35.566 33.45,27.715 51.223,71.785 51.223,115.196 0,47.636 -20.644,94.562 -60.469,122.316 -39.117,26.988 -86.757,28.426 -132.988,28.426 H 352.148 V 264.324 h 59.731 v 234.727" /><path
         id="path26"
         style="fill:none;stroke:#ffffff;stroke-width:31.60820007;stroke-linecap:butt;stroke-linejoin:round;stroke-miterlimit:4;stroke-dasharray:none;stroke-opacity:1"
         d="m 411.879,745.098 h 22.051 c 69.707,0 140.109,-6.399 140.109,-93.86 0,-76.804 -56.187,-96.738 -122.328,-96.738 h -39.832 z m 0,-246.047 h 43.394 c 44.801,0 91.028,5.652 127.293,35.566 33.45,27.715 51.223,71.785 51.223,115.196 0,47.636 -20.644,94.562 -60.469,122.316 -39.117,26.988 -86.757,28.426 -132.988,28.426 H 352.148 V 264.324 h 59.731 z" /><path
         id="path28"
         style="fill:#ffffff;fill-opacity:1;fill-rule:evenodd;stroke:none"
         d="m 982.852,754.305 c 123.048,0 219.778,-100.274 219.778,-221.844 0,-120.918 -98.14,-221.906 -219.778,-221.906 -121.614,0 -219.747,100.988 -219.747,221.906 0,121.57 96.723,221.844 219.747,221.844 z m 0,55.508 c -152.887,0 -279.489,-124.454 -279.489,-278.067 0,-154.363 126.602,-276.687 279.489,-276.687 152.918,0 279.518,122.324 279.518,276.687 0,153.613 -126.6,278.067 -279.518,278.067" /><path
         id="path30"
         style="fill:none;stroke:#ffffff;stroke-width:31.60820007;stroke-linecap:butt;stroke-linejoin:round;stroke-miterlimit:3.8636899;stroke-dasharray:none;stroke-opacity:1"
         d="m 982.852,754.305 c 123.048,0 219.778,-100.274 219.778,-221.844 0,-120.918 -98.14,-221.906 -219.778,-221.906 -121.614,0 -219.747,100.988 -219.747,221.906 0,121.57 96.723,221.844 219.747,221.844 z m 0,55.508 c -152.887,0 -279.489,-124.454 -279.489,-278.067 0,-154.363 126.602,-276.687 279.489,-276.687 152.918,0 279.518,122.324 279.518,276.687 0,153.613 -126.6,278.067 -279.518,278.067 z" /><path
         id="path32"
         style="fill:#ffffff;fill-opacity:1;fill-rule:evenodd;stroke:none"
         d="m 1406.14,800.555 h -59.73 V 264.324 h 207.67 v 55.481 h -147.94 v 480.75" /><path
         id="path34"
         style="fill:none;stroke:#ffffff;stroke-width:31.60820007;stroke-linecap:butt;stroke-linejoin:round;stroke-miterlimit:4;stroke-dasharray:none;stroke-opacity:1"
         d="m 1406.14,800.555 h -59.73 V 264.324 h 207.67 v 55.481 h -147.94 z" /><path
         id="path36"
         style="fill:#ffffff;fill-opacity:1;fill-rule:evenodd;stroke:none"
         d="m 1704.17,800.555 h -59.75 V 264.324 h 59.75 v 536.231" /><path
         id="path38"
         style="fill:none;stroke:#ffffff;stroke-width:31.60820007;stroke-linecap:butt;stroke-linejoin:round;stroke-miterlimit:4;stroke-dasharray:none;stroke-opacity:1"
         d="m 1704.17,800.555 h -59.75 V 264.324 h 59.75 z" /><path
         id="path40"
         style="fill:#ffffff;fill-opacity:1;fill-rule:evenodd;stroke:none"
         d="m 2971.77,757.168 c -47.66,35.555 -100.25,52.645 -160,52.645 -153.62,0 -279.51,-125.911 -279.51,-279.493 0,-152.195 128.01,-275.261 279.51,-275.261 56.88,0 113.77,19.246 160,52.632 v 73.95 c -42.65,-42.618 -101.69,-71.086 -162.15,-71.086 -120.2,0 -217.6,103.808 -217.6,221.906 0,118.055 96.72,221.844 216.17,221.844 61.89,0 120.93,-26.973 163.58,-71.043 v 73.906" /><path
         id="path42"
         style="fill:none;stroke:#ffffff;stroke-width:31.60820007;stroke-linecap:butt;stroke-linejoin:round;stroke-miterlimit:4;stroke-dasharray:none;stroke-opacity:1"
         d="m 2971.77,757.168 c -47.66,35.555 -100.25,52.645 -160,52.645 -153.62,0 -279.51,-125.911 -279.51,-279.493 0,-152.195 128.01,-275.261 279.51,-275.261 56.88,0 113.77,19.246 160,52.632 v 73.95 c -42.65,-42.618 -101.69,-71.086 -162.15,-71.086 -120.2,0 -217.6,103.808 -217.6,221.906 0,118.055 96.72,221.844 216.17,221.844 61.89,0 120.93,-26.973 163.58,-71.043 z" /><path
         id="path44"
         style="fill:#ffffff;fill-opacity:1;fill-rule:evenodd;stroke:none"
         d="m 3074.77,264.324 h 59.74 v 413.164 l 418.16,-437.343 v 560.41 h -59.71 V 385.215 L 3074.77,823.309 V 264.324" /><path
         id="path46"
         style="fill:none;stroke:#ffffff;stroke-width:31.60820007;stroke-linecap:butt;stroke-linejoin:round;stroke-miterlimit:4;stroke-dasharray:none;stroke-opacity:1"
         d="m 3074.77,264.324 h 59.74 v 413.164 l 418.16,-437.343 v 560.41 h -59.71 v -415.34 l -418.19,438.094 z" /><path
         id="path48"
         style="fill:#ffffff;fill-opacity:1;fill-rule:evenodd;stroke:none"
         d="m 3733.78,800.555 h -59.72 V 264.324 h 59.72 v 536.231" /><path
         id="path50"
         style="fill:none;stroke:#ffffff;stroke-width:31.60820007;stroke-linecap:butt;stroke-linejoin:round;stroke-miterlimit:4;stroke-dasharray:none;stroke-opacity:1"
         d="m 3733.78,800.555 h -59.72 V 264.324 h 59.72 z" /><path
         id="path52"
         style="fill:#ffffff;fill-opacity:1;fill-rule:evenodd;stroke:none"
         d="m 4264.86,757.168 c -47.63,35.555 -100.29,52.645 -160.03,52.645 -153.6,0 -279.46,-125.911 -279.46,-279.493 0,-152.195 127.98,-275.261 279.46,-275.261 56.91,0 113.81,19.246 160.03,52.632 v 73.95 c -42.66,-42.618 -101.72,-71.086 -162.17,-71.086 -120.2,0 -217.61,103.808 -217.61,221.906 0,118.055 96.75,221.844 216.21,221.844 61.85,0 120.91,-26.973 163.57,-71.043 v 73.906" /><path
         id="path54"
         style="fill:none;stroke:#ffffff;stroke-width:31.60820007;stroke-linecap:butt;stroke-linejoin:round;stroke-miterlimit:4;stroke-dasharray:none;stroke-opacity:1"
         d="m 4264.86,757.168 c -47.63,35.555 -100.29,52.645 -160.03,52.645 -153.6,0 -279.46,-125.911 -279.46,-279.493 0,-152.195 127.98,-275.261 279.46,-275.261 56.91,0 113.81,19.246 160.03,52.632 v 73.95 c -42.66,-42.618 -101.72,-71.086 -162.17,-71.086 -120.2,0 -217.61,103.808 -217.61,221.906 0,118.055 96.75,221.844 216.21,221.844 61.85,0 120.91,-26.973 163.57,-71.043 z" /><path
         id="path56"
         style="fill:#ffffff;fill-opacity:1;fill-rule:evenodd;stroke:none"
         d="m 4654.74,472.027 h -181.37 l 91.71,214.731 z m 23.44,-55.504 63.29,-152.199 h 66.14 L 4566.52,826.172 4319.05,264.324 h 65.4 l 64.71,152.199 h 229.02" /><path
         id="path58"
         style="fill:none;stroke:#ffffff;stroke-width:31.60820007;stroke-linecap:butt;stroke-linejoin:round;stroke-miterlimit:4;stroke-dasharray:none;stroke-opacity:1"
         d="m 4654.74,472.027 h -181.37 l 91.71,214.731 z m 23.44,-55.504 63.29,-152.199 h 66.14 L 4566.52,826.172 4319.05,264.324 h 65.4 l 64.71,152.199 z" /><path
         id="path60"
         style="fill:#4081cb;fill-opacity:1;fill-rule:evenodd;stroke:none"
         d="m 5034.82,1017.72 c 1.3,-26.001 60.75,-964.2903 35.66,-969.8489 C 5000.91,32.4102 3572.71,19.7305 3506.26,13.1211 3425.58,5.12891 865.082,32.9883 865.082,32.9883 L 24.2734,45.0508 c 0,0 -13.4492,974.5192 -12.5117,1001.4692 0.7852,22.86 925.4223,7.48 1012.0983,19.59 79.67,11.16 1988.13,-4.63 1988.13,-4.63 l 1226.15,-20.61 796.68,-23.15" /><path
         id="path62"
         style="fill:none;stroke:#4081cb;stroke-width:17.56010056;stroke-linecap:butt;stroke-linejoin:miter;stroke-miterlimit:4;stroke-dasharray:none;stroke-opacity:1"
         d="m 5034.82,1017.72 c 1.3,-26.001 60.75,-964.2903 35.66,-969.8489 C 5000.91,32.4102 3572.71,19.7305 3506.26,13.1211 3425.58,5.12891 865.082,32.9883 865.082,32.9883 L 24.2734,45.0508 c 0,0 -13.4492,974.5192 -12.5117,1001.4692 0.7852,22.86 925.4223,7.48 1012.0983,19.59 79.67,11.16 1988.13,-4.63 1988.13,-4.63 l 1226.15,-20.61 z" /><path
         id="path64"
         style="fill:#ffffff;fill-opacity:1;fill-rule:evenodd;stroke:none"
         d="m 1986.47,756.797 h 130.87 v 55.437 h -320.05 v -55.437 h 129.43 V 276.043 h 59.75 v 480.754" /><path
         id="path66"
         style="fill:none;stroke:#ffffff;stroke-width:31.60820007;stroke-linecap:butt;stroke-linejoin:round;stroke-miterlimit:4;stroke-dasharray:none;stroke-opacity:1"
         d="m 1986.47,756.797 h 130.87 v 55.437 h -320.05 v -55.437 h 129.43 V 276.043 h 59.75 z" /><path
         id="path68"
         style="fill:#ffffff;fill-opacity:1;fill-rule:evenodd;stroke:none"
         d="m 2380.57,960.34 -67.38,-82.656 25.49,-16.454 90.64,79.461 z M 2203.06,274.277 h 278.09 v 55.477 h -218.32 v 210.48 h 211.91 v 55.457 h -211.91 v 159.356 h 218.32 v 55.461 H 2203.06 V 274.277" /><path
         id="path70"
         style="fill:none;stroke:#ffffff;stroke-width:31.60820007;stroke-linecap:butt;stroke-linejoin:round;stroke-miterlimit:4;stroke-dasharray:none;stroke-opacity:1"
         d="m 2380.57,960.34 -67.38,-82.656 25.49,-16.454 90.64,79.461 z M 2203.06,274.277 h 278.09 v 55.477 h -218.32 v 210.48 h 211.91 v 55.457 h -211.91 v 159.356 h 218.32 v 55.461 h -278.09 z" /><path
         id="path72"
         style="fill:#ffffff;fill-opacity:1;fill-rule:evenodd;stroke:none"
         d="m 423.598,756.797 h 22.043 c 69.707,0 140.101,-6.379 140.101,-93.879 0,-76.777 -56.176,-96.727 -122.32,-96.727 h -39.824 z m 0,-246.067 h 43.379 c 44.8,0 91.035,5.696 127.308,35.567 33.434,27.726 51.207,71.828 51.207,115.215 0,47.629 -20.633,94.558 -60.465,122.297 -39.113,26.992 -86.75,28.425 -132.992,28.425 h -88.18 V 276.043 h 59.743 V 510.73" /><path
         id="path74"
         style="fill:none;stroke:#ffffff;stroke-width:31.60820007;stroke-linecap:butt;stroke-linejoin:round;stroke-miterlimit:4;stroke-dasharray:none;stroke-opacity:1"
         d="m 423.598,756.797 h 22.043 c 69.707,0 140.101,-6.379 140.101,-93.879 0,-76.777 -56.176,-96.727 -122.32,-96.727 h -39.824 z m 0,-246.067 h 43.379 c 44.8,0 91.035,5.696 127.308,35.567 33.434,27.726 51.207,71.828 51.207,115.215 0,47.629 -20.633,94.558 -60.465,122.297 -39.113,26.992 -86.75,28.425 -132.992,28.425 h -88.18 V 276.043 h 59.743 z" /><path
         id="path76"
         style="fill:#ffffff;fill-opacity:1;fill-rule:evenodd;stroke:none"
         d="m 994.57,766.016 c 123.04,0 219.78,-100.246 219.78,-221.875 0,-120.891 -98.15,-221.868 -219.78,-221.868 -121.621,0 -219.757,100.977 -219.757,221.868 0,121.629 96.734,221.875 219.757,221.875 z m 0,55.527 c -152.886,0 -279.504,-124.504 -279.504,-278.09 0,-154.336 126.618,-276.707 279.504,-276.707 152.92,0 279.51,122.371 279.51,276.707 0,153.586 -126.59,278.09 -279.51,278.09" /><path
         id="path78"
         style="fill:none;stroke:#ffffff;stroke-width:31.60820007;stroke-linecap:butt;stroke-linejoin:round;stroke-miterlimit:3.8636899;stroke-dasharray:none;stroke-opacity:1"
         d="m 994.57,766.016 c 123.04,0 219.78,-100.246 219.78,-221.875 0,-120.891 -98.15,-221.868 -219.78,-221.868 -121.621,0 -219.757,100.977 -219.757,221.868 0,121.629 96.734,221.875 219.757,221.875 z m 0,55.527 c -152.886,0 -279.504,-124.504 -279.504,-278.09 0,-154.336 126.618,-276.707 279.504,-276.707 152.92,0 279.51,122.371 279.51,276.707 0,153.586 -126.59,278.09 -279.51,278.09 z" /><path
         id="path80"
         style="fill:#ffffff;fill-opacity:1;fill-rule:evenodd;stroke:none"
         d="m 1417.86,812.234 h -59.74 V 276.043 h 207.67 v 55.461 h -147.93 v 480.73" /><path
         id="path82"
         style="fill:none;stroke:#ffffff;stroke-width:31.60820007;stroke-linecap:butt;stroke-linejoin:round;stroke-miterlimit:4;stroke-dasharray:none;stroke-opacity:1"
         d="m 1417.86,812.234 h -59.74 V 276.043 h 207.67 v 55.461 h -147.93 z" /><path
         id="path84"
         style="fill:#ffffff;fill-opacity:1;fill-rule:evenodd;stroke:none"
         d="m 1715.88,812.234 h -59.74 V 276.043 h 59.74 v 536.191" /><path
         id="path86"
         style="fill:none;stroke:#ffffff;stroke-width:31.60820007;stroke-linecap:butt;stroke-linejoin:round;stroke-miterlimit:4;stroke-dasharray:none;stroke-opacity:1"
         d="m 1715.88,812.234 h -59.74 V 276.043 h 59.74 z" /><path
         id="path88"
         style="fill:#ffffff;fill-opacity:1;fill-rule:evenodd;stroke:none"
         d="m 2983.49,768.855 c -47.67,35.579 -100.24,52.688 -160.02,52.688 -153.6,0 -279.5,-125.938 -279.5,-279.523 0,-152.207 128,-275.274 279.5,-275.274 56.89,0 113.78,19.246 160.02,52.688 v 73.914 c -42.66,-42.625 -101.7,-71.075 -162.16,-71.075 -120.18,0 -217.61,103.79 -217.61,221.868 0,118.054 96.73,221.875 216.19,221.875 61.88,0 120.92,-27.004 163.58,-71.075 v 73.914" /><path
         id="path90"
         style="fill:none;stroke:#ffffff;stroke-width:31.60820007;stroke-linecap:butt;stroke-linejoin:round;stroke-miterlimit:4;stroke-dasharray:none;stroke-opacity:1"
         d="m 2983.49,768.855 c -47.67,35.579 -100.24,52.688 -160.02,52.688 -153.6,0 -279.5,-125.938 -279.5,-279.523 0,-152.207 128,-275.274 279.5,-275.274 56.89,0 113.78,19.246 160.02,52.688 v 73.914 c -42.66,-42.625 -101.7,-71.075 -162.16,-71.075 -120.18,0 -217.61,103.79 -217.61,221.868 0,118.054 96.73,221.875 216.19,221.875 61.88,0 120.92,-27.004 163.58,-71.075 z" /><path
         id="path92"
         style="fill:#ffffff;fill-opacity:1;fill-rule:evenodd;stroke:none"
         d="m 3086.49,276.043 h 59.75 v 413.176 l 418.14,-437.356 v 560.371 h -59.72 v -415.3 L 3086.49,835.02 V 276.043" /><path
         id="path94"
         style="fill:none;stroke:#ffffff;stroke-width:31.60820007;stroke-linecap:butt;stroke-linejoin:round;stroke-miterlimit:4;stroke-dasharray:none;stroke-opacity:1"
         d="m 3086.49,276.043 h 59.75 v 413.176 l 418.14,-437.356 v 560.371 h -59.72 v -415.3 L 3086.49,835.02 Z" /><path
         id="path96"
         style="fill:#ffffff;fill-opacity:1;fill-rule:evenodd;stroke:none"
         d="m 3745.5,812.234 h -59.73 V 276.043 h 59.73 v 536.191" /><path
         id="path98"
         style="fill:none;stroke:#ffffff;stroke-width:31.60820007;stroke-linecap:butt;stroke-linejoin:round;stroke-miterlimit:4;stroke-dasharray:none;stroke-opacity:1"
         d="m 3745.5,812.234 h -59.73 V 276.043 h 59.73 z" /><path
         id="path100"
         style="fill:#ffffff;fill-opacity:1;fill-rule:evenodd;stroke:none"
         d="m 4276.58,768.855 c -47.64,35.579 -100.32,52.688 -160.04,52.688 -153.61,0 -279.46,-125.938 -279.46,-279.523 0,-152.207 127.99,-275.274 279.46,-275.274 56.92,0 113.8,19.246 160.04,52.688 v 73.914 c -42.67,-42.625 -101.74,-71.075 -162.18,-71.075 -120.19,0 -217.62,103.79 -217.62,221.868 0,118.054 96.77,221.875 216.24,221.875 61.82,0 120.89,-27.004 163.56,-71.075 v 73.914" /><path
         id="path102"
         style="fill:none;stroke:#ffffff;stroke-width:31.60820007;stroke-linecap:butt;stroke-linejoin:round;stroke-miterlimit:4;stroke-dasharray:none;stroke-opacity:1"
         d="m 4276.58,768.855 c -47.64,35.579 -100.32,52.688 -160.04,52.688 -153.61,0 -279.46,-125.938 -279.46,-279.523 0,-152.207 127.99,-275.274 279.46,-275.274 56.92,0 113.8,19.246 160.04,52.688 v 73.914 c -42.67,-42.625 -101.74,-71.075 -162.18,-71.075 -120.19,0 -217.62,103.79 -217.62,221.868 0,118.054 96.77,221.875 216.24,221.875 61.82,0 120.89,-27.004 163.56,-71.075 z" /><path
         id="path104"
         style="fill:#ffffff;fill-opacity:1;fill-rule:evenodd;stroke:none"
         d="m 4666.45,483.719 h -181.37 l 91.71,214.734 z m 23.45,-55.457 63.29,-152.219 h 66.13 l -241.1,561.816 -247.44,-561.816 h 65.39 l 64.7,152.219 h 229.03" /><path
         id="path106"
         style="fill:none;stroke:#ffffff;stroke-width:31.60820007;stroke-linecap:butt;stroke-linejoin:round;stroke-miterlimit:4;stroke-dasharray:none;stroke-opacity:1"
         d="m 4666.45,483.719 h -181.37 l 91.71,214.734 z m 23.45,-55.457 63.29,-152.219 h 66.13 l -241.1,561.816 -247.44,-561.816 h 65.39 l 64.7,152.219 z" /></g></g></svg>