<?xml version="1.0" encoding="UTF-8" standalone="no"?>
<!DOCTYPE svg PUBLIC "-//W3C//DTD SVG 1.1//EN" "http://www.w3.org/Graphics/SVG/1.1/DTD/svg11.dtd">
<svg xmlns="http://www.w3.org/2000/svg" version="1.1" viewBox="0.00 0.00 500.00 500.00">
<path fill="#f4b429" d="
  M 123.58 0.00
  L 139.50 0.00
  C 147.19 1.34 153.72 5.07 159.94 9.99
  C 168.44 16.71 174.59 26.27 175.74 37.24
  Q 176.32 42.82 175.82 53.70
  C 175.73 55.51 174.87 56.91 174.64 58.74
  Q 174.49 59.92 174.10 60.70
  C 171.43 66.05 168.45 71.68 164.31 76.06
  C 162.59 77.88 161.55 79.67 159.46 81.18
  C 156.70 83.17 154.93 85.88 151.75 87.13
  C 147.34 88.86 143.18 90.69 138.49 91.01
  Q 131.67 91.48 125.00 90.32
  Q 118.33 89.15 112.42 85.85
  Q 102.07 80.06 94.99 70.29
  Q 93.68 68.48 92.74 65.38
  C 91.69 61.92 89.83 59.10 89.16 55.78
  Q 87.30 46.48 88.18 38.03
  C 88.92 30.89 91.60 21.46 97.04 16.10
  C 99.12 14.04 100.84 11.82 103.05 10.09
  Q 112.33 2.85 123.58 0.00
  Z"
/>
<path fill="#004379" d="
  M 500.00 70.14
  L 500.00 229.01
  Q 498.58 232.58 497.22 236.17
  Q 491.67 250.75 478.90 258.66
  C 469.98 264.18 455.87 265.47 445.75 265.47
  Q 368.39 265.52 290.24 265.50
  Q 289.57 265.50 289.39 264.86
  Q 289.25 264.39 289.96 263.72
  Q 305.94 248.58 321.63 233.13
  C 331.27 223.64 341.71 211.91 346.86 200.11
  C 363.86 161.19 331.80 116.24 289.52 119.63
  Q 277.84 120.56 267.24 125.25
  C 258.65 129.04 251.42 136.25 244.64 142.74
  A 1.63 1.63 0.0 0 1 242.14 142.44
  C 231.75 126.16 221.58 110.50 206.10 98.41
  Q 205.42 97.88 205.30 96.51
  C 203.08 69.33 206.62 41.57 236.77 32.56
  Q 242.64 30.80 255.75 30.73
  Q 336.24 30.24 447.00 30.55
  C 456.34 30.57 466.13 31.30 474.35 35.11
  Q 488.83 41.81 495.72 56.62
  C 497.60 60.65 498.71 65.57 500.00 70.14
  Z"
/>
<path fill="#004379" d="
  M 0.00 305.14
  L 0.00 171.74
  Q 1.92 163.44 3.46 158.98
  Q 11.99 134.31 34.66 124.65
  C 44.73 120.36 57.99 119.22 69.25 119.18
  Q 98.57 119.07 167.50 119.14
  Q 179.57 119.15 184.37 120.70
  Q 194.40 123.95 200.88 133.61
  Q 219.46 161.32 237.53 188.70
  A 1.54 1.53 -38.6 0 0 239.87 188.96
  Q 253.91 175.54 267.21 161.97
  C 270.85 158.26 276.41 153.62 281.17 151.40
  Q 296.94 144.06 311.27 155.31
  Q 321.51 163.36 322.07 175.89
  C 322.52 185.90 317.88 194.37 310.91 201.42
  Q 286.01 226.64 260.84 251.59
  C 255.60 256.78 248.92 262.21 242.23 264.48
  C 225.95 269.98 214.21 258.95 205.79 246.17
  Q 191.50 224.48 176.66 202.61
  A 0.46 0.46 0.0 0 0 175.82 202.86
  Q 175.80 255.88 175.83 309.13
  Q 175.83 310.53 174.44 312.45
  Q 163.97 326.93 162.29 344.48
  A 0.86 0.86 0.0 0 1 160.59 344.53
  C 154.04 302.41 117.27 275.44 75.14 281.55
  A 1.69 1.69 0.0 0 1 73.22 279.88
  Q 73.38 236.52 73.21 193.52
  Q 73.20 192.07 72.16 188.56
  C 69.84 180.75 64.32 176.88 55.76 178.53
  C 45.62 180.49 43.83 189.62 43.82 198.50
  Q 43.76 245.62 43.71 292.75
  C 43.71 295.13 43.51 296.25 41.55 297.83
  Q 29.30 307.76 22.75 321.74
  A 2.49 2.49 0.0 0 1 20.46 323.18
  C 9.54 323.09 2.86 315.34 0.00 305.14
  Z"
/>
<path fill="#f4b429" d="
  M 112.01 391.08
  Q 105.90 398.15 96.29 396.94
  A 2.22 2.18 38.1 0 0 95.30 397.05
  C 89.66 399.07 81.63 397.52 76.00 396.41
  Q 71.82 395.59 68.08 393.39
  C 63.66 390.78 58.49 387.64 55.26 383.61
  C 53.70 381.67 52.50 380.25 51.15 378.06
  Q 48.42 373.64 45.59 369.32
  Q 45.32 368.91 45.32 368.42
  C 45.26 364.12 43.50 360.42 43.79 356.29
  Q 44.04 352.59 43.86 348.90
  C 43.69 345.53 44.50 343.49 45.61 340.53
  C 46.32 338.63 46.17 336.30 47.94 334.33
  Q 48.24 334.00 48.30 333.55
  L 48.59 331.24
  Q 48.65 330.74 48.99 330.37
  C 52.22 326.90 55.40 323.52 58.34 319.78
  C 61.00 316.39 64.96 315.28 68.01 312.48
  Q 68.34 312.18 68.78 312.15
  Q 71.69 311.93 73.94 310.14
  A 1.80 1.70 -66.4 0 1 74.81 309.77
  Q 77.58 309.40 80.22 308.61
  Q 83.05 307.76 85.39 307.88
  Q 93.27 308.31 97.49 309.51
  Q 114.72 314.41 124.85 329.11
  Q 125.27 329.72 126.26 330.24
  Q 126.71 330.48 126.91 330.95
  C 128.81 335.18 130.93 339.03 131.69 343.52
  Q 133.12 351.99 131.94 360.48
  C 131.70 362.22 130.24 364.90 130.80 367.53
  A 1.87 1.79 -41.7 0 1 130.72 368.52
  Q 129.31 372.21 127.14 375.45
  Q 124.33 379.64 122.76 381.82
  C 120.78 384.57 116.50 389.56 112.89 390.52
  Q 112.36 390.66 112.01 391.08
  Z"
/>
<path fill="#f4b429" d="
  M 224.86 309.77
  C 227.24 307.65 234.11 308.41 237.26 308.65
  Q 237.75 308.69 238.18 308.46
  C 238.91 308.09 239.44 308.00 240.26 308.30
  C 243.35 309.43 246.17 309.04 248.99 310.50
  C 256.32 314.30 264.92 319.59 269.88 326.04
  C 273.98 331.36 276.35 338.10 278.59 344.40
  C 279.48 346.91 278.30 348.48 278.48 350.96
  Q 279.45 364.65 272.92 375.71
  C 271.02 378.93 268.18 383.75 265.25 386.70
  Q 256.56 395.45 244.03 397.35
  A 1.49 1.45 52.3 0 1 243.18 397.23
  Q 242.45 396.87 241.99 397.01
  Q 236.87 398.47 231.49 397.96
  Q 212.82 396.19 200.83 382.66
  C 197.89 379.35 195.77 375.26 193.55 371.14
  Q 192.21 368.65 191.72 366.07
  Q 190.72 360.78 190.09 353.74
  C 189.95 352.20 190.34 351.04 190.32 349.87
  C 190.11 336.86 196.15 329.01 205.17 319.93
  C 207.26 317.83 220.32 308.21 224.04 309.89
  A 0.78 0.77 36.5 0 0 224.86 309.77
  Z"
/>
<path fill="#f4b429" d="
  M 397.64 311.62
  Q 399.48 311.18 400.52 311.97
  C 404.22 314.76 408.44 317.09 411.40 320.41
  Q 420.62 330.73 424.85 343.85
  Q 426.30 348.34 426.17 352.35
  Q 426.04 356.74 424.84 360.99
  C 423.67 365.15 423.16 368.48 422.33 372.31
  C 421.53 375.98 419.00 379.65 416.14 381.99
  Q 410.53 386.58 405.74 392.00
  Q 404.54 393.34 400.85 394.52
  C 398.59 395.24 396.38 396.79 393.28 396.22
  Q 392.78 396.13 392.32 396.36
  Q 388.44 398.31 386.38 398.18
  Q 378.75 397.69 371.12 397.42
  C 367.66 397.30 363.93 394.24 360.12 393.25
  Q 356.34 392.27 354.83 390.67
  Q 350.17 385.75 345.01 381.36
  Q 344.63 381.03 344.57 380.54
  C 344.14 376.78 341.16 375.55 340.21 373.00
  Q 336.44 362.89 336.58 354.50
  Q 336.62 352.02 336.55 350.49
  Q 336.44 347.92 336.74 346.56
  Q 340.45 329.62 353.17 318.65
  C 359.92 312.82 367.73 310.18 376.50 309.67
  A 1.34 1.30 -67.8 0 0 377.32 309.31
  Q 379.00 307.70 380.98 308.89
  A 1.25 1.23 52.8 0 0 381.93 309.03
  Q 383.71 308.55 385.26 309.59
  Q 385.75 309.92 386.28 309.66
  C 389.02 308.34 394.15 310.26 396.73 311.52
  Q 397.17 311.73 397.64 311.62
  Z"
/>
<path fill="#004379" d="
  M 458.66 500.00
  L 348.61 500.00
  Q 357.77 458.29 343.51 418.18
  Q 343.30 417.58 343.43 417.13
  A 0.69 0.69 0.0 0 1 344.40 416.70
  C 369.05 428.92 395.75 429.82 419.56 415.42
  C 426.69 411.10 432.99 404.92 438.79 398.65
  A 1.71 1.71 0.0 0 1 441.09 398.45
  Q 465.20 417.02 468.27 447.99
  Q 469.45 459.89 469.34 473.73
  C 469.24 486.28 470.00 494.67 458.66 500.00
  Z"
/>
<path fill="#004379" d="
  M 119.78 500.00
  L 11.76 500.00
  Q 2.68 497.29 0.00 487.49
  L 0.00 450.05
  Q 3.93 417.91 28.78 398.82
  A 1.68 1.68 0.0 0 1 31.06 399.04
  C 56.59 427.79 89.91 433.76 124.34 416.59
  A 0.73 0.73 0.0 0 1 125.36 417.48
  Q 111.72 457.69 119.78 500.00
  Z"
/>
<path fill="#004379" d="
  M 311.59 500.00
  L 158.51 500.00
  C 145.94 496.47 146.24 487.87 146.38 475.71
  C 146.51 463.77 146.67 451.75 149.05 440.00
  Q 154.05 415.42 174.12 399.64
  Q 176.18 398.02 177.88 399.85
  Q 191.85 414.95 210.69 421.87
  C 240.76 432.91 270.83 423.05 291.20 398.75
  A 0.75 0.75 0.0 0 1 292.19 398.61
  Q 319.01 416.36 321.61 448.71
  Q 323.60 473.47 321.98 489.50
  C 321.56 493.70 315.83 497.70 311.59 500.00
  Z"
/>
</svg>
