<?xml version="1.0" encoding="UTF-8"?>
<svg version="1.1" xmlns="http://www.w3.org/2000/svg" width="512" height="512">
<path d="M0 0 C1.42300415 -0.05861206 1.42300415 -0.05861206 2.87475586 -0.1184082 C8.82138536 -0.14120441 12.34378466 0.99480048 17.02026367 4.68383789 C22.58327918 10.95231121 22.09875982 17.4133844 22.02807617 25.36083984 C22.02851425 26.64918732 22.02895233 27.93753479 22.02940369 29.2649231 C22.03026214 32.78524336 22.01266104 36.30525508 21.99168181 39.82550383 C21.9728898 43.50902956 21.97116259 47.19256287 21.96760559 50.87612915 C21.95829251 57.84585969 21.93368881 64.81544855 21.90355712 71.78511679 C21.86999008 79.72220702 21.85352132 87.65930413 21.83847082 95.59644771 C21.80713852 111.91854799 21.75439248 128.24050589 21.6875 144.5625 C22.78251328 144.55361755 23.87752655 144.54473511 25.00572205 144.5355835 C35.34830984 144.45433527 45.69083249 144.39445673 56.03366756 144.35525131 C61.3504617 144.33441746 66.66699724 144.3061766 71.98364258 144.26074219 C77.11892282 144.21713458 82.25395503 144.19333131 87.3894062 144.18299103 C89.34414128 144.17562639 91.29886348 144.16124511 93.25349236 144.13957977 C96.00123823 144.11034736 98.74797212 144.10655224 101.49584961 144.10839844 C102.29570786 144.09401733 103.0955661 144.07963623 103.91966248 144.06481934 C109.76961291 144.10707569 114.68758016 145.44960351 119.6875 148.5625 C125.07530034 154.18628655 125.83381354 159.46534718 125.78515625 166.94921875 C125.78303383 168.17473198 125.78303383 168.17473198 125.78086853 169.42500305 C125.77527294 172.03337268 125.76272129 174.64165634 125.75 177.25 C125.74498443 179.01887897 125.74042162 180.78775928 125.73632812 182.55664062 C125.72530496 186.89196019 125.70804338 191.22721552 125.6875 195.5625 C130.38427017 195.5927548 135.07789136 195.57682788 139.77441406 195.51977539 C141.3687617 195.50670961 142.96326109 195.50583339 144.55761719 195.51782227 C155.26081078 195.890089 155.26081078 195.890089 164.48828125 191.2265625 C165.57556514 190.0237566 166.64518871 188.80448046 167.6875 187.5625 C168.55761719 186.92183594 169.42773438 186.28117188 170.32421875 185.62109375 C172.71577859 183.73062264 174.24415733 182.26604216 175.6875 179.5625 C175.416056 175.8779815 174.53469506 172.65320147 173.515625 169.10546875 C172.02183879 162.71460038 173.63142053 157.30830663 175.9375 151.3125 C180.65105132 143.90549078 186.05491996 138.67899404 194.609375 135.94921875 C204.8577592 134.04209462 213.32599747 136.05690219 221.9375 141.6875 C229.66787954 149.76926042 232.08342142 157.29212495 231.9609375 168.2421875 C231.28216585 176.48441469 226.86013231 183.1965185 220.6875 188.5625 C213.62998038 193.00653189 207.06322629 195.10286944 198.6875 194.5625 C194.97589905 193.70096779 191.33761362 192.65117713 187.6875 191.5625 C187.24470703 192.02624023 186.80191406 192.48998047 186.34570312 192.96777344 C184.30390162 195.09349915 182.24597846 197.20292456 180.1875 199.3125 C179.49140625 200.04210937 178.7953125 200.77171875 178.078125 201.5234375 C171.26150425 208.46629196 164.97514551 212.36405059 155.09057617 212.67602539 C153.72053018 212.67577805 152.35047678 212.67035921 150.98046875 212.66015625 C150.33678345 212.65914917 149.69309814 212.65814209 149.02990723 212.65710449 C146.64491981 212.65190599 144.25995795 212.63794492 141.875 212.625 C136.533125 212.604375 131.19125 212.58375 125.6875 212.5625 C125.6875 224.4425 125.6875 236.3225 125.6875 248.5625 C148.4575 248.5625 171.2275 248.5625 194.6875 248.5625 C195.3475 246.5825 196.0075 244.6025 196.6875 242.5625 C200.43756444 235.89571877 205.8709109 230.4351807 213.2578125 228.03515625 C222.15446592 226.30445679 230.97517931 226.54502495 238.6875 231.5625 C245.80181839 236.43904188 250.10539903 242.46308441 252.28125 250.8515625 C253.64964505 259.65283069 251.60364398 267.37384989 246.38671875 274.5234375 C240.82284868 281.20008159 235.11959711 285.0424056 226.3828125 285.87890625 C216.20745053 286.21808498 208.83443671 284.24959732 201.26171875 277.34765625 C198.28492443 273.97198627 194.6875 269.20710355 194.6875 264.5625 C171.9175 264.5625 149.1475 264.5625 125.6875 264.5625 C125.6875 276.4425 125.6875 288.3225 125.6875 300.5625 C136.14269757 300.44437065 136.14269757 300.44437065 146.59741211 300.29223633 C159.28235174 300.2200967 167.96636112 301.91430822 177.3359375 311.015625 C178.58331617 312.27613397 179.82543821 313.54186451 181.0625 314.8125 C181.70316406 315.4621875 182.34382813 316.111875 183.00390625 316.78125 C184.56979364 318.37050885 186.13078509 319.96426417 187.6875 321.5625 C188.739375 321.23765625 188.739375 321.23765625 189.8125 320.90625 C200.36593314 317.8090468 207.61055835 317.56069927 217.6875 322.5625 C224.7372651 327.42318946 229.30920988 333.28887207 231.6875 341.5625 C232.75190643 351.3154333 231.3932146 359.92058796 225.4375 367.875 C218.94713275 374.21785891 212.0460889 377.57733896 202.9375 377.9375 C194.54145983 377.77103576 187.36746503 375.11317456 181.21875 369.3125 C175.75237264 363.06521158 173.10535957 355.82683362 172.6875 347.5625 C173.12557618 343.45841785 173.95992569 339.50945327 175.40625 335.63916016 C175.92639992 333.51255202 175.92639992 333.51255202 174.54760742 331.83911133 C173.67906128 331.00029419 173.67906128 331.00029419 172.79296875 330.14453125 C172.16712891 329.53029297 171.54128906 328.91605469 170.89648438 328.28320312 C170.22939453 327.65349609 169.56230469 327.02378906 168.875 326.375 C168.21951172 325.73369141 167.56402344 325.09238281 166.88867188 324.43164062 C161.81157941 319.5104466 159.18284247 318.40853107 152.0546875 318.24609375 C151.30285187 318.22531265 150.55101624 318.20453156 149.77639771 318.18312073 C147.37185915 318.11767295 144.96721033 318.05876262 142.5625 318 C140.93358229 317.95681023 139.30467578 317.91319579 137.67578125 317.86914062 C133.67980085 317.76199649 129.68370941 317.66071567 125.6875 317.5625 C125.7189209 319.18091797 125.7189209 319.18091797 125.75097656 320.83203125 C125.82380424 324.86493468 125.86945384 328.8977809 125.90722656 332.93115234 C125.92724522 334.67116089 125.95446886 336.41110299 125.98925781 338.15087891 C126.03820952 340.66325346 126.06056587 343.17473275 126.078125 345.6875 C126.09877014 346.45553955 126.11941528 347.2235791 126.14068604 348.01489258 C126.14298412 353.64489665 124.77940965 357.83944444 121.6875 362.5625 C114.87863415 369.37136585 106.65847279 368.92752377 97.625 368.9375 C96.45388672 368.96199219 95.28277344 368.98648437 94.07617188 369.01171875 C92.94630859 369.01558594 91.81644531 369.01945312 90.65234375 369.0234375 C89.6274585 369.03165527 88.60257324 369.03987305 87.54663086 369.04833984 C83.92214666 368.43244679 82.27119023 367.13727599 79.6875 364.5625 C78.625 361.125 78.625 361.125 78.6875 357.5625 C80.375 354.6875 80.375 354.6875 82.6875 352.5625 C91.12024043 350.45431489 100.00419585 350.95719564 108.6875 350.5625 C108.6875 288.5225 108.6875 226.4825 108.6875 162.5625 C79.9775 162.2325 51.2675 161.9025 21.6875 161.5625 C21.6875 169.8125 21.6875 178.0625 21.6875 186.5625 C25.0596875 186.51609375 28.431875 186.4696875 31.90625 186.421875 C35.18943783 186.39063763 38.4726088 186.36637357 41.75585938 186.34277344 C44.02937284 186.32271683 46.3028351 186.29546462 48.57617188 186.26074219 C51.85299349 186.21196288 55.12913025 186.18947103 58.40625 186.171875 C59.91922668 186.14090729 59.91922668 186.14090729 61.46276855 186.10931396 C68.38773568 186.10713548 74.0850056 187.13155967 79.24475098 192.04559326 C82.69900657 195.99826735 83.80951422 199.06829726 83.82794189 204.21076965 C83.83365204 205.16543625 83.83936218 206.12010284 83.84524536 207.10369873 C83.84636322 208.14947083 83.84748108 209.19524292 83.84863281 210.27270508 C83.85359772 211.37541245 83.85856262 212.47811981 83.86367798 213.61424255 C83.87830921 217.27017842 83.88510321 220.92607089 83.890625 224.58203125 C83.89637563 227.11927797 83.90213338 229.65652467 83.90789795 232.19377136 C83.91706646 236.83688367 83.92336568 241.47998293 83.9263947 246.12310201 C83.93087354 252.95059027 83.94841456 259.77787815 83.9773953 266.60530549 C84.0016439 272.52397076 84.00934036 278.44258627 84.01107025 284.36130333 C84.01409863 286.87670673 84.02213333 289.39210924 84.03525543 291.90748024 C84.05230294 295.42651182 84.05043854 298.94505525 84.04394531 302.46411133 C84.0531601 303.50381073 84.06237488 304.54351013 84.0718689 305.61471558 C84.04063996 311.01542903 83.78633878 314.92899141 80.6875 319.5625 C75.77122298 324.26502585 71.56480981 326.8257048 64.71362305 326.78955078 C63.27269539 326.78932419 63.27269539 326.78932419 61.80265808 326.78909302 C60.7785231 326.77877045 59.75438812 326.76844788 58.69921875 326.7578125 C57.64088333 326.7549826 56.58254791 326.75215271 55.49214172 326.74923706 C52.11964502 326.7380629 48.74741613 326.71296307 45.375 326.6875 C43.0852903 326.67746664 40.79557643 326.66834141 38.50585938 326.66015625 C32.89955397 326.63983619 27.29382597 326.60068156 21.6875 326.5625 C21.6875 334.8125 21.6875 343.0625 21.6875 351.5625 C23.85570312 351.52769531 26.02390625 351.49289062 28.2578125 351.45703125 C30.37270798 351.43359201 32.48758863 351.41540045 34.60253906 351.39770508 C36.06517075 351.38267804 37.52775782 351.36225045 38.99023438 351.33618164 C41.1003728 351.29952733 43.20991226 351.28271324 45.3203125 351.26953125 C46.58762207 351.2538208 47.85493164 351.23811035 49.16064453 351.22192383 C53.01124962 351.59376338 55.41111228 352.53942742 58.6875 354.5625 C60.23336876 357.65423752 59.98109521 360.15679552 59.6875 363.5625 C57.82041495 365.92747439 56.36688569 367.22280715 53.6875 368.5625 C51.27911322 368.64889869 48.90016119 368.67817764 46.4921875 368.66015625 C45.78474396 368.6587413 45.07730042 368.65732635 44.34841919 368.65586853 C42.08640331 368.650266 39.82448602 368.63771318 37.5625 368.625 C36.02994935 368.61998532 34.49739714 368.61542236 32.96484375 368.61132812 C29.20569112 368.60029577 25.44661228 368.58302952 21.6875 368.5625 C21.69118717 369.23634011 21.69487434 369.91018023 21.69867325 370.60443974 C21.78707705 387.01352523 21.85323518 403.42253511 21.89474869 419.83180332 C21.91535882 427.76726913 21.94344962 435.7025758 21.98925781 443.63793945 C22.02917323 450.55580422 22.05494408 457.47355372 22.06385398 464.39153045 C22.06906083 468.05334142 22.08126598 471.71482267 22.11042023 475.37652779 C22.14273125 479.46804448 22.14345641 483.55899085 22.14160156 487.65063477 C22.15598267 488.85976532 22.17036377 490.06889587 22.18518066 491.31466675 C22.15253093 497.96669079 21.72229763 502.18451227 17.6875 507.5625 C10.14599129 514.552191 0.62533307 513.04017105 -9.07128906 512.74169922 C-40.23227682 511.01887871 -71.32907691 501.01582518 -99.3125 487.5625 C-100.00375977 487.23056641 -100.69501953 486.89863281 -101.40722656 486.55664062 C-124.23540982 475.41726286 -145.04941048 460.15246422 -163.3125 442.5625 C-163.97185547 441.93037598 -164.63121094 441.29825195 -165.31054688 440.64697266 C-174.79880305 431.50252521 -183.5387044 422.20515991 -191.3125 411.5625 C-192.17056152 410.41144983 -193.02863451 409.26040823 -193.88671875 408.109375 C-199.92486829 399.91819386 -205.28345521 391.40445895 -210.3125 382.5625 C-210.67698242 381.93069824 -211.04146484 381.29889648 -211.41699219 380.64794922 C-226.41050905 354.45230347 -235.55937034 325.27269571 -240.3125 295.5625 C-240.63347656 293.62503906 -240.63347656 293.62503906 -240.9609375 291.6484375 C-250.57284848 225.4794851 -232.18758306 156.98801492 -192.71582031 103.43408203 C-189.39927324 99.01086529 -185.92289443 94.74788318 -182.3125 90.5625 C-181.67828125 89.81742187 -181.0440625 89.07234375 -180.390625 88.3046875 C-169.08732609 75.38037286 -156.90435394 62.8811462 -142.98144531 52.78271484 C-141.23300078 51.50437579 -139.51975899 50.18596949 -137.8046875 48.86328125 C-136.66295337 48.01101434 -135.51977789 47.16067409 -134.375 46.3125 C-132.87646484 45.19101563 -132.87646484 45.19101563 -131.34765625 44.046875 C-127.49457993 42.16248761 -125.40844111 42.47382912 -121.3125 43.5625 C-118.8125 45.75 -118.8125 45.75 -117.3125 48.5625 C-117.22995979 52.52443023 -117.85522134 54.06262772 -120.53515625 56.9921875 C-123.188656 59.44788769 -125.88393574 61.57153187 -128.8125 63.6875 C-139.19495438 71.36267557 -148.65291259 79.72226138 -157.8125 88.8125 C-158.57836426 89.56909912 -159.34422852 90.32569824 -160.13330078 91.10522461 C-164.35031621 95.34599394 -167.99394598 99.58466897 -171.3125 104.5625 C-170.9 104.96452637 -170.4875 105.36655273 -170.0625 105.78076172 C-152.09009607 123.35701054 -136.5723875 141.58246874 -136.18652344 168.08569336 C-136.17863029 169.77456544 -136.17389823 171.46345444 -136.171875 173.15234375 C-136.15355426 175.00717381 -136.13398463 176.86199188 -136.11328125 178.71679688 C-136.08431583 181.61112986 -136.06249921 184.50468244 -136.06201172 187.39916992 C-136.05866285 190.21341506 -136.02404788 193.02590556 -135.984375 195.83984375 C-135.9914447 196.69529282 -135.9985144 197.55074188 -136.00579834 198.43211365 C-135.87936682 204.72983836 -134.10399114 208.58236721 -130.3125 213.5625 C-129.75868652 214.30387207 -129.20487305 215.04524414 -128.63427734 215.80908203 C-128.1439502 216.39028809 -127.65362305 216.97149414 -127.1484375 217.5703125 C-126.58922607 218.23981934 -126.03001465 218.90932617 -125.45385742 219.59912109 C-124.87095947 220.28828613 -124.28806152 220.97745117 -123.6875 221.6875 C-122.44011547 223.1812147 -121.19403852 224.67602223 -119.94921875 226.171875 C-119.33481934 226.90986328 -118.72041992 227.64785156 -118.08740234 228.40820312 C-115.0410532 232.10572512 -112.09900148 235.8827206 -109.15698242 239.66333008 C-106.3318761 243.28675609 -103.43938294 246.8428415 -100.5 250.375 C-92.88211782 259.68271651 -86.50231614 268.43714988 -86.96875 280.953125 C-88.110176 289.61758602 -91.67521505 296.8456198 -98.3125 302.5625 C-107.29201925 308.64491084 -116.14045727 310.05844126 -126.89453125 308.08984375 C-135.41438548 305.27815056 -141.83800965 298.50831273 -148.3125 292.5625 C-149.40608001 291.56752147 -150.49982423 290.57272337 -151.59375 289.578125 C-153.60829188 287.74008282 -155.61421196 285.89371815 -157.6171875 284.04296875 C-165.62078138 275.89330975 -165.62078138 275.89330975 -175.4375 270.8125 C-181.64549935 272.01404826 -184.98611595 276.15599773 -189.3125 280.5625 C-190.0446875 281.22765625 -190.776875 281.8928125 -191.53125 282.578125 C-199.55741322 290.42980641 -204.04570823 300.80187369 -208.91601562 310.7734375 C-209.8379182 312.61466391 -210.80510589 314.43398435 -211.81835938 316.2265625 C-214.38628313 320.85945115 -216.06499706 324.21323157 -214.93017578 329.51171875 C-213.6985471 333.60092068 -212.31034222 337.58654679 -210.75 341.5625 C-210.39284912 342.48313232 -210.03569824 343.40376465 -209.66772461 344.35229492 C-206.36962231 352.69557498 -202.56523078 360.66944774 -198.3125 368.5625 C-197.96606445 369.21524902 -197.61962891 369.86799805 -197.26269531 370.54052734 C-186.7827862 390.20114367 -173.65881353 407.425944 -158.3125 423.5625 C-157.50570801 424.41231445 -157.50570801 424.41231445 -156.68261719 425.27929688 C-148.97369044 433.34004639 -140.98747827 440.6503066 -132.02294922 447.29199219 C-130.3780474 448.51381192 -128.75320962 449.75881214 -127.12890625 451.0078125 C-88.470322 480.20581962 -41.94967197 493.15984486 5.6875 496.5625 C5.6875 466.8625 5.6875 437.1625 5.6875 406.5625 C-10.709375 406.6553125 -10.709375 406.6553125 -27.4375 406.75 C-32.60237061 406.76003052 -32.60237061 406.76003052 -37.87158203 406.77026367 C-40.60451181 406.79671036 -43.33742475 406.82498764 -46.0703125 406.85546875 C-46.77525848 406.8531575 -47.48020447 406.85084625 -48.20651245 406.84846497 C-57.18664448 406.45465968 -57.18664448 406.45465968 -65.11645508 409.90722656 C-67.56567165 412.86861394 -69.81381161 415.88598967 -71.875 419.125 C-75.98895976 425.56456134 -80.67867908 430.60966209 -88.3125 432.5625 C-100.5395127 434.60893391 -109.81834048 429.45418612 -119.7421875 422.9765625 C-125.0860412 418.82532851 -128.0277389 413.25408899 -129.1875 406.625 C-129.72633637 398.92014348 -126.8271463 391.77504057 -123.79296875 384.8359375 C-123.45252029 384.04402008 -123.11207184 383.25210266 -122.76130676 382.43618774 C-122.04490913 380.77574695 -121.32453524 379.11701648 -120.6003418 377.45996094 C-119.50193671 374.94193977 -118.42114149 372.41686555 -117.34179688 369.890625 C-116.63906572 368.26777631 -115.93532337 366.64536503 -115.23046875 365.0234375 C-114.91256882 364.27847015 -114.59466888 363.53350281 -114.26713562 362.76596069 C-111.30232385 356.0401205 -107.7836307 350.08791305 -101.625 345.8125 C-100.85800781 345.26078125 -100.09101563 344.7090625 -99.30078125 344.140625 C-88.34558785 338.35513725 -76.88851684 339.1186157 -64.82836914 339.12670898 C-52.70864007 339.10916281 -41.23567003 339.09033106 -31.89453125 330.23046875 C-29.69678377 327.91333746 -27.59522595 325.53128632 -25.52734375 323.09765625 C-22.53725851 319.67514246 -19.42387441 316.37458203 -16.3125 313.0625 C-9.99779394 306.36656418 -9.99779394 306.36656418 -3.96234131 299.42073059 C-2.3125 297.5625 -2.3125 297.5625 -0.52227783 296.03739929 C4.07180487 291.82153429 5.22223967 288.35157878 5.68847656 282.15942383 C5.80157524 279.19504964 5.82408577 276.23583484 5.828125 273.26953125 C5.84812028 271.67541555 5.86927969 270.08131407 5.89154053 268.48722839 C5.92882089 265.15249854 5.93794391 261.81904392 5.9296875 258.48413086 C5.92340166 254.24301278 6.00840241 250.00926446 6.11789322 245.7697649 C6.18881175 242.47738679 6.19920869 239.18673738 6.19347382 235.89368248 C6.19981891 234.3328161 6.22671772 232.77187374 6.27594757 231.21177101 C6.51134275 222.92469121 6.00571962 217.16475211 0.13515854 210.94423199 C-2.57302419 208.34188537 -5.39733666 205.92801824 -8.3125 203.5625 C-9.71087529 202.33622599 -11.10755615 201.10800507 -12.5 199.875 C-13.11230469 199.35550781 -13.72460938 198.83601562 -14.35546875 198.30078125 C-17.68293273 195.34524937 -20.75214049 192.12968276 -23.87890625 188.96484375 C-26.54397155 186.3340008 -29.32845558 183.9084993 -32.1796875 181.484375 C-35.80603806 178.21667449 -39.13962906 174.64752192 -42.50390625 171.11328125 C-49.10542402 165.11774425 -53.87247803 163.98723526 -62.55859375 164.09375 C-63.52853775 164.08670044 -64.49848175 164.07965088 -65.49781799 164.0723877 C-69.6211653 164.04303693 -73.7440325 164.05950628 -77.86743164 164.07177734 C-80.88976889 164.07416711 -83.91135061 164.05319404 -86.93359375 164.03125 C-88.31519936 164.04822937 -88.31519936 164.04822937 -89.72471619 164.06555176 C-96.71942817 164.01129963 -101.87384559 162.35059817 -107.3359375 157.921875 C-107.78195313 157.39078125 -108.22796875 156.8596875 -108.6875 156.3125 C-109.37972656 155.53132813 -109.37972656 155.53132813 -110.0859375 154.734375 C-113.79761579 148.16210389 -113.62241171 140.89169949 -113.5625 133.5625 C-113.57023438 132.61632812 -113.57796875 131.67015625 -113.5859375 130.6953125 C-113.5627527 122.32559835 -112.82606489 115.26842933 -107.3125 108.5625 C-104.61980839 106.14659985 -101.77189992 103.97665997 -98.875 101.8125 C-98.07167236 101.20051758 -97.26834473 100.58853516 -96.44067383 99.95800781 C-94.82101145 98.72480989 -93.19856989 97.49525275 -91.57324219 96.26953125 C-89.05794273 94.37029002 -86.56017722 92.44950154 -84.06616211 90.52246094 C-81.48647039 88.5294832 -78.89854849 86.54721828 -76.3125 84.5625 C-74.69066538 83.31561892 -73.06920496 82.06825376 -71.44799805 80.82055664 C-70.36273138 79.98574859 -69.27696099 79.15159494 -68.19067383 78.31811523 C-65.44667727 76.21164206 -62.71197659 74.09469285 -59.9921875 71.95703125 C-46.54456315 61.42005375 -34.05359562 52.38665444 -16.3828125 52.46484375 C-15.22023926 52.46734131 -14.05766602 52.46983887 -12.85986328 52.47241211 C-11.4004834 52.48151611 -9.94110352 52.49062012 -8.4375 52.5 C-3.77625 52.520625 0.885 52.54125 5.6875 52.5625 C5.6875 40.6825 5.6875 28.8025 5.6875 16.5625 C-27.19927593 19.01368827 -58.85954422 24.95551355 -88.6875 39.625 C-93.10612232 41.70105112 -95.66003225 42.210249 -100.3125 40.5625 C-103.13222931 38.19756574 -103.29100831 36.7344335 -103.75 33.0625 C-103.2176824 28.80395917 -102.59144412 28.22632437 -99.3125 25.5625 C-96.47810581 23.95351182 -93.5438397 22.6252877 -90.5625 21.3125 C-89.24934814 20.73097168 -89.24934814 20.73097168 -87.90966797 20.13769531 C-60.25848978 8.18647393 -30.1808789 0.68884043 0 0 Z M-50.33203125 85.359375 C-54.18866653 88.48857527 -58.13774375 91.47745903 -62.125 94.4375 C-68.83057015 99.4223768 -75.44315582 104.51750963 -82.02270508 109.66748047 C-83.07880981 110.4933667 -83.07880981 110.4933667 -84.15625 111.3359375 C-84.83896973 111.88443359 -85.52168945 112.43292969 -86.22509766 112.99804688 C-88.3125 114.5625 -88.3125 114.5625 -90.59912109 115.86132812 C-92.95230824 117.26792659 -94.59258379 118.4194822 -96.3125 120.5625 C-97.32931304 124.85194464 -97.16179623 128.93124695 -96.9375 133.3125 C-96.91816406 134.46105469 -96.89882812 135.60960937 -96.87890625 136.79296875 C-97.0970515 142.75227705 -97.0970515 142.75227705 -94.3125 147.5625 C-92.36443143 147.86472218 -92.36443143 147.86472218 -90.11328125 147.81787109 C-88.81052246 147.82830948 -88.81052246 147.82830948 -87.48144531 147.83895874 C-86.53881836 147.83796173 -85.59619141 147.83696472 -84.625 147.8359375 C-82.62629669 147.85624666 -80.62759882 147.87709779 -78.62890625 147.8984375 C-75.48025948 147.92093133 -72.33182857 147.93746381 -69.18310547 147.94335938 C-66.14250596 147.95295874 -63.10287865 147.98684822 -60.0625 148.0234375 C-59.13606689 148.01839203 -58.20963379 148.01334656 -57.25512695 148.00814819 C-47.31542026 148.15565781 -39.61466742 151.34991383 -32.625 158.375 C-31.79512573 159.17393677 -31.79512573 159.17393677 -30.94848633 159.98901367 C-29.38746929 161.49858628 -27.84638698 163.02542847 -26.3125 164.5625 C-25.61898437 165.2534375 -24.92546875 165.944375 -24.2109375 166.65625 C-23.10407336 167.76816831 -22.00094159 168.88381994 -20.90234375 170.00390625 C-19.18382683 171.68864397 -17.39142715 173.24852809 -15.5625 174.8125 C-11.12060137 178.62354533 -7.0828841 182.80346546 -3.0234375 187.01171875 C0.04660562 190.04195921 0.04660562 190.04195921 5.6875 193.5625 C5.6875 152.3125 5.6875 111.0625 5.6875 68.5625 C-22.46756223 68.5625 -31.09233546 69.68630689 -50.33203125 85.359375 Z M-182.3125 116.5625 C-195.75767461 136.15096081 -206.75451312 157.01121972 -214.3125 179.5625 C-214.73136475 180.80459229 -214.73136475 180.80459229 -215.15869141 182.07177734 C-223.06992493 205.93585729 -226.73007386 230.5244966 -226.625 255.625 C-226.62483887 256.41989838 -226.62467773 257.21479675 -226.62451172 258.03378296 C-226.60531988 271.7211653 -225.61544534 285.04902906 -223.3125 298.5625 C-222.6525 298.5625 -221.9925 298.5625 -221.3125 298.5625 C-220.71824219 297.40234375 -220.12398437 296.2421875 -219.51171875 295.046875 C-214.14237617 284.82879358 -208.55672746 276.65405658 -200.3125 268.5625 C-199.6628125 267.86640625 -199.013125 267.1703125 -198.34375 266.453125 C-193.24622357 261.03121052 -187.11461571 255.96322375 -179.45703125 255.32421875 C-178.35746094 255.29972656 -177.25789063 255.27523437 -176.125 255.25 C-174.49498047 255.19392578 -174.49498047 255.19392578 -172.83203125 255.13671875 C-165.4277185 256.03246802 -160.04958126 260.20993082 -154.625 265.0625 C-154.02977539 265.58295898 -153.43455078 266.10341797 -152.82128906 266.63964844 C-148.11623008 270.77801252 -143.53061375 275.04378744 -138.94897461 279.31762695 C-129.76920364 288.524025 -129.76920364 288.524025 -118.0625 292.875 C-113.68070627 292.50985052 -110.59466455 291.44756316 -107.3125 288.5625 C-104.24119788 284.58476775 -103.26992228 281.74048367 -103.453125 276.671875 C-104.1068062 272.42491614 -105.81422535 269.89589119 -108.5625 266.5625 C-109.00360107 266.01762939 -109.44470215 265.47275879 -109.89916992 264.91137695 C-110.85519842 263.7341023 -111.81860679 262.56278966 -112.78857422 261.39697266 C-114.34645104 259.52163039 -115.88068994 257.62903415 -117.41015625 255.73046875 C-121.81193342 250.27477342 -126.24788321 244.84775543 -130.71484375 239.4453125 C-151.55981929 214.15771757 -151.55981929 214.15771757 -151.65625 199.9375 C-151.6708728 199.11354736 -151.68549561 198.28959473 -151.70056152 197.44067383 C-151.74681241 194.81466523 -151.7810916 192.18872533 -151.8125 189.5625 C-152.20317232 157.42519381 -159.47771801 139.18817227 -182.3125 116.5625 Z M191.3125 157.1875 C189.23949726 161.49296722 188.58231485 164.87358949 189.6875 169.5625 C191.74671942 172.93384399 194.12530633 175.78140316 197.6875 177.5625 C201.74581354 178.07343875 205.88326657 178.47928528 209.609375 176.5859375 C212.38890251 174.34305144 214.67589491 172.0019573 215.6875 168.5625 C216.1699587 163.35194603 215.67666514 159.90161068 212.6875 155.5625 C209.53156301 152.98833928 206.65566459 151.70080923 202.625 151.125 C197.64859247 151.86616708 194.6915518 153.45275853 191.3125 157.1875 Z M21.6875 202.5625 C21.6875 238.2025 21.6875 273.8425 21.6875 310.5625 C36.5375 310.5625 51.3875 310.5625 66.6875 310.5625 C68.23343569 309.01656431 67.81344233 307.57759926 67.81448364 305.42480469 C67.81730347 304.53297485 67.82012329 303.64114502 67.82302856 302.72229004 C67.82100433 301.73627808 67.8189801 300.75026611 67.81689453 299.734375 C67.81864685 298.70195679 67.82039917 297.66953857 67.82220459 296.60583496 C67.82662533 293.17470648 67.82368433 289.74362906 67.8203125 286.3125 C67.82098548 283.93977854 67.82195545 281.56705716 67.82321167 279.19433594 C67.82468894 274.21418605 67.82253314 269.23405406 67.81787109 264.25390625 C67.8121738 257.85421321 67.81545264 251.4545621 67.82144356 245.05487061 C67.82504837 240.15315431 67.82391095 235.25144804 67.82131577 230.34973145 C67.82064628 227.98929845 67.82147568 225.62886456 67.82379532 223.26843262 C67.82632054 219.97580537 67.82248309 216.68324708 67.81689453 213.390625 C67.81891876 212.40461304 67.82094299 211.41860107 67.82302856 210.40270996 C67.82020874 209.51088013 67.81738892 208.61905029 67.81448364 207.70019531 C67.81410662 206.92073547 67.81372959 206.14127563 67.81334114 205.3381958 C67.8806305 203.53718002 67.8806305 203.53718002 66.6875 202.5625 C51.8375 202.5625 36.9875 202.5625 21.6875 202.5625 Z M210.75 250.25 C209.34158786 254.64093196 209.47653557 258.1277519 210.6875 262.5625 C212.80767834 265.99865111 214.78372164 268.36967883 218.6875 269.5625 C223.46417642 270.02475901 225.70653323 270.06223779 230 267.875 C234.1544881 264.30020791 235.51391779 262.12473989 236.125 256.625 C235.94744127 252.3474487 234.49763746 249.82833542 231.6875 246.5625 C228.22634132 243.6782011 225.19914855 243.0187162 220.6796875 243.21484375 C216.05000463 244.0227688 213.41267394 246.55661356 210.75 250.25 Z M4.6875 313.5625 C3.36611615 314.95148954 2.08195332 316.37589446 0.8125 317.8125 C0.00167969 318.72386719 -0.80914062 319.63523437 -1.64453125 320.57421875 C-2.29542725 321.30584229 -2.29542725 321.30584229 -2.95947266 322.05224609 C-5.70454613 325.11630681 -8.49742922 328.13708117 -11.29223633 331.15576172 C-13.39494292 333.43470566 -15.45255067 335.73061229 -17.4375 338.11328125 C-24.61834645 346.72740149 -35.01918074 353.57231713 -46.43173218 354.78829956 C-52.28166346 355.14300817 -58.14130834 355.12880047 -64 355.125 C-66.62589872 355.12862793 -69.25114369 355.1383371 -71.87690735 355.16575623 C-73.49855896 355.18232934 -75.12042581 355.18559317 -76.74211121 355.17274475 C-82.9065088 355.22972332 -88.27646861 356.4003079 -93.36352539 360.02319336 C-98.76920939 366.18473052 -101.73044159 373.38071711 -104.82202148 380.88061523 C-105.75302946 383.13232698 -106.71343791 385.36979407 -107.67773438 387.60742188 C-108.28563596 389.05133447 -108.89181698 390.49597292 -109.49609375 391.94140625 C-109.78036728 392.60201553 -110.06464081 393.26262482 -110.35752869 393.94325256 C-112.12638801 398.29739707 -112.74903743 401.87895915 -112.3125 406.5625 C-108.11154225 412.25412018 -101.48489384 416.03376769 -94.5625 417.1875 C-88.29532735 415.98227449 -85.93374979 411.05061871 -82.4375 406.125 C-77.4097188 399.11629187 -72.6154459 394.36553891 -64.3125 391.5625 C-60.81324768 391.16377258 -60.81324768 391.16377258 -57.09204102 391.13012695 C-56.39734427 391.11985316 -55.70264753 391.10957937 -54.98689938 391.09899426 C-52.76331036 391.06937374 -50.54016434 391.05960696 -48.31640625 391.05078125 C-46.93353765 391.03529588 -45.55068314 391.01849559 -44.16784668 391.00036621 C-39.07038624 390.94267934 -33.97266433 390.91034246 -28.875 390.875 C-17.469375 390.771875 -6.06375 390.66875 5.6875 390.5625 C5.6875 365.1525 5.6875 339.7425 5.6875 313.5625 C5.3575 313.5625 5.0275 313.5625 4.6875 313.5625 Z M190.6875 341.5625 C188.94913148 345.03923705 189.23313681 348.76120798 189.6875 352.5625 C191.47336343 356.27160097 193.04973095 358.10271301 196.375 360.5 C200.75970188 361.90641381 204.27588957 361.90551793 208.6875 360.5625 C211.8919343 358.03986023 214.41961647 355.48141273 215.6875 351.5625 C216.16107835 347.30029488 215.98580613 345.1164971 213.9375 341.3125 C211.36884686 338.17303505 209.40247046 335.93307151 205.35546875 335.05859375 C198.65139767 334.90022987 195.05008026 336.41278753 190.6875 341.5625 Z " fill="#004278" transform="translate(251.3125,-0.5625)"/>
<path d="M0 0 C19.0255221 15.78713536 32.95330917 33.94356766 36 59 C36.13425601 62.19683341 36.13679234 65.39052855 36.140625 68.58984375 C36.15894574 70.44467381 36.17851537 72.29949188 36.19921875 74.15429688 C36.22818417 77.04862986 36.25000079 79.94218244 36.25048828 82.83666992 C36.25383715 85.65091506 36.28845212 88.46340556 36.328125 91.27734375 C36.3210553 92.13279282 36.3139856 92.98824188 36.30670166 93.86961365 C36.43313318 100.16733836 38.20850886 104.01986721 42 109 C42.83072021 110.11205811 42.83072021 110.11205811 43.67822266 111.24658203 C44.1685498 111.82778809 44.65887695 112.40899414 45.1640625 113.0078125 C45.72327393 113.67731934 46.28248535 114.34682617 46.85864258 115.03662109 C47.7329895 116.07036865 47.7329895 116.07036865 48.625 117.125 C49.87238453 118.6187147 51.11846148 120.11352223 52.36328125 121.609375 C52.97768066 122.34736328 53.59208008 123.08535156 54.22509766 123.84570312 C57.2714468 127.54322512 60.21349852 131.3202206 63.15551758 135.10083008 C65.9806239 138.72425609 68.87311706 142.2803415 71.8125 145.8125 C79.43038218 155.12021651 85.81018386 163.87464988 85.34375 176.390625 C84.202324 185.05508602 80.63728495 192.2831198 74 198 C65.02048075 204.08241084 56.17204273 205.49594126 45.41796875 203.52734375 C36.89811452 200.71565056 30.47449035 193.94581273 24 188 C22.90641999 187.00502147 21.81267577 186.01022337 20.71875 185.015625 C18.70420812 183.17758282 16.69828804 181.33121815 14.6953125 179.48046875 C6.69171862 171.33080975 6.69171862 171.33080975 -3.125 166.25 C-9.33299935 167.45154826 -12.67361595 171.59349773 -17 176 C-17.7321875 176.66515625 -18.464375 177.3303125 -19.21875 178.015625 C-27.95527017 186.56222082 -32.65985562 198.18489694 -38 209 C-38.95211332 210.9067555 -39.90517651 212.81303712 -40.859375 214.71875 C-41.27155273 215.54310547 -41.68373047 216.36746094 -42.10839844 217.21679688 C-42.40262695 217.80525391 -42.69685547 218.39371094 -43 219 C-43.66 219 -44.32 219 -45 219 C-52.22164966 199.4241711 -52.22164966 199.4241711 -47.53515625 189.18457031 C-40.27524372 174.30174963 -27.94889097 158.7512768 -13 151 C-9.7595213 149.91984043 -7.22234308 149.76345196 -3.8125 149.6875 C-2.18248047 149.63142578 -2.18248047 149.63142578 -0.51953125 149.57421875 C6.8847815 150.46996802 12.26291874 154.64743082 17.6875 159.5 C18.28272461 160.02045898 18.87794922 160.54091797 19.49121094 161.07714844 C24.19626992 165.21551252 28.78188625 169.48128744 33.36352539 173.75512695 C42.54329636 182.961525 42.54329636 182.961525 54.25 187.3125 C58.72889506 186.93925874 61.61011955 185.961777 65 183 C67.77863844 178.48471254 68.28275687 175.24441682 67.51757812 170.02050781 C66.67528968 166.73240443 64.8898899 164.59547936 62.75 162 C62.30889893 161.45512939 61.86779785 160.91025879 61.41333008 160.34887695 C60.45730158 159.1716023 59.49389321 158.00028966 58.52392578 156.83447266 C56.96604896 154.95913039 55.43181006 153.06653415 53.90234375 151.16796875 C49.50056658 145.71227342 45.06461679 140.28525543 40.59765625 134.8828125 C19.75268071 109.59521757 19.75268071 109.59521757 19.65625 95.375 C19.6416272 94.55104736 19.62700439 93.72709473 19.61193848 92.87817383 C19.56568759 90.25216523 19.5314084 87.62622533 19.5 85 C19.1270133 54.31754027 13.16357725 35.78406394 -9 14 C-7.65070536 10.16336928 -5.92248975 7.34827431 -3.375 4.1875 C-2.74335937 3.39730469 -2.11171875 2.60710937 -1.4609375 1.79296875 C-0.97882813 1.20128906 -0.49671875 0.60960938 0 0 Z " fill="#F0B128" transform="translate(79,104)"/>
<path d="M0 0 C0.34582024 3.32998709 0.6165312 6.66218739 0.875 10 C0.97296875 10.93457031 1.0709375 11.86914062 1.171875 12.83203125 C1.51543038 17.74487319 1.46231887 21.09499717 -1.49609375 25.15625 C-2.63378373 26.46446026 -3.80370207 27.74515984 -5 29 C-5.62132812 29.68707031 -6.24265625 30.37414062 -6.8828125 31.08203125 C-8.87062518 33.25235767 -10.89642806 35.37975687 -12.9375 37.5 C-14.30219911 38.92572752 -15.66548961 40.35280472 -17.02734375 41.78125 C-18.02169434 42.82394043 -18.02169434 42.82394043 -19.03613281 43.88769531 C-20.99111232 45.99044055 -22.86466075 48.1461801 -24.73046875 50.328125 C-31.16561525 57.74409987 -40.38720156 62.90055284 -50 65 C-52.88645661 65.11651156 -55.7534213 65.1848264 -58.640625 65.2109375 C-60.36849892 65.23901468 -62.09636337 65.26767919 -63.82421875 65.296875 C-66.53401332 65.33802899 -69.24363287 65.3749379 -71.95361328 65.40136719 C-74.57881685 65.42915726 -77.20323097 65.47503231 -79.828125 65.5234375 C-80.62736389 65.52669037 -81.42660278 65.52994324 -82.25006104 65.53329468 C-88.90296938 65.67693602 -95.08772427 66.85365177 -100.0390625 71.65625 C-104.30435421 77.15463553 -106.78219925 83.86006027 -109.43408203 90.24267578 C-110.37597508 92.50233929 -111.34461073 94.74915354 -112.31640625 96.99609375 C-112.92871473 98.44462397 -113.53944694 99.89382173 -114.1484375 101.34375 C-114.43584808 102.00749634 -114.72325867 102.67124268 -115.01937866 103.35510254 C-116.80593774 107.7205154 -117.39944897 111.29974437 -117 116 C-114.06098027 120.34463786 -108.74415433 122.96105719 -104 125 C-100.32813324 125.83533882 -100.32813324 125.83533882 -97 125 C-93.3424549 122.25684117 -91.23369651 118.89543997 -88.6875 115.125 C-83.78641797 107.99132095 -78.341061 102.76607 -70 100 C-66.50074768 99.63923645 -66.50074768 99.63923645 -62.77954102 99.65942383 C-61.75388283 99.65876671 -61.75388283 99.65876671 -60.70750427 99.65809631 C-58.47266958 99.66016761 -56.23860804 99.68341812 -54.00390625 99.70703125 C-52.44449778 99.71263315 -50.88508399 99.71690044 -49.32566833 99.71989441 C-45.24029723 99.73129651 -41.15525094 99.7607231 -37.07000732 99.79400635 C-32.89372144 99.82480776 -28.71738259 99.83842118 -24.54101562 99.85351562 C-16.36051211 99.8855979 -8.180334 99.93832727 0 100 C0 105.28 0 110.56 0 116 C-1.99820801 116.00410889 -3.99641602 116.00821777 -6.05517578 116.01245117 C-12.66908214 116.02967512 -19.28260332 116.07422058 -25.89627266 116.13209057 C-29.90488236 116.16633164 -33.91311215 116.19146596 -37.921875 116.19555664 C-41.79313875 116.19984595 -45.6635459 116.22835935 -49.53454208 116.27343178 C-51.00880818 116.28638688 -52.48317689 116.29072146 -53.95749283 116.28615379 C-62.90456704 115.89792177 -62.90456704 115.89792177 -70.80395508 119.34472656 C-73.25317165 122.30611394 -75.50131161 125.32348967 -77.5625 128.5625 C-81.67645976 135.00206134 -86.36617908 140.04716209 -94 142 C-106.2270127 144.04643391 -115.50584048 138.89168612 -125.4296875 132.4140625 C-130.7735412 128.26282851 -133.7152389 122.69158899 -134.875 116.0625 C-135.41383637 108.35764348 -132.5146463 101.21254057 -129.48046875 94.2734375 C-129.14002029 93.48152008 -128.79957184 92.68960266 -128.44880676 91.87368774 C-127.73240913 90.21324695 -127.01203524 88.55451648 -126.2878418 86.89746094 C-125.18943671 84.37943977 -124.10864149 81.85436555 -123.02929688 79.328125 C-122.32656572 77.70527631 -121.62282337 76.08286503 -120.91796875 74.4609375 C-120.60006882 73.71597015 -120.28216888 72.97100281 -119.95463562 72.20346069 C-116.98982385 65.4776205 -113.4711307 59.52541305 -107.3125 55.25 C-106.54550781 54.69828125 -105.77851563 54.1465625 -104.98828125 53.578125 C-94.03308785 47.79263725 -82.57601684 48.5561157 -70.51586914 48.56420898 C-58.39614007 48.54666281 -46.92317003 48.52783106 -37.58203125 39.66796875 C-35.38428377 37.35083746 -33.28272595 34.96878632 -31.21484375 32.53515625 C-28.22475795 29.11264182 -25.11136175 25.81209476 -22 22.5 C-16.63241693 16.77453128 -11.32037 11.02469091 -6.32421875 4.96875 C-5.78410156 4.3190625 -5.24398437 3.669375 -4.6875 3 C-4.21699219 2.4225 -3.74648437 1.845 -3.26171875 1.25 C-2 0 -2 0 0 0 Z " fill="#F1B228" transform="translate(257,290)"/>
<path d="M0 0 C1.2890625 0.00322266 2.578125 0.00644531 3.90625 0.00976562 C5.25260486 0.01811892 6.59895902 0.02658384 7.9453125 0.03515625 C9.31510254 0.04017795 10.68489435 0.04473968 12.0546875 0.04882812 C15.39324814 0.06058362 18.73178601 0.0785182 22.0703125 0.09765625 C22.0703125 5.37765625 22.0703125 10.65765625 22.0703125 16.09765625 C19.41162109 16.17113281 19.41162109 16.17113281 16.69921875 16.24609375 C14.34373575 16.32116891 11.98826772 16.39671465 9.6328125 16.47265625 C8.46814453 16.50359375 7.30347656 16.53453125 6.10351562 16.56640625 C-11.26169187 17.15339918 -20.76684465 23.15588707 -33.94921875 33.89453125 C-37.80585 37.02372825 -41.7548726 40.01269911 -45.7421875 42.97265625 C-52.48181161 47.98092433 -59.12361705 53.10499118 -65.7277832 58.29052734 C-66.43507568 58.84434082 -67.14236816 59.3981543 -67.87109375 59.96875 C-68.88743896 60.78400146 -68.88743896 60.78400146 -69.92431641 61.61572266 C-71.9296875 63.09765625 -71.9296875 63.09765625 -73.99365234 64.16943359 C-76.12334403 65.31743267 -77.44666039 66.17527572 -78.9296875 68.09765625 C-79.81334208 72.37512915 -79.63499388 76.50200451 -79.4296875 80.84765625 C-79.40648437 82.00910156 -79.38328125 83.17054688 -79.359375 84.3671875 C-79.69552558 89.5974089 -79.69552558 89.5974089 -77.9296875 94.09765625 C-76.57073995 94.1989613 -75.20669842 94.23332041 -73.84399414 94.23950195 C-72.97541275 94.24653641 -72.10683136 94.25357086 -71.21192932 94.26081848 C-70.26414108 94.26498276 -69.31635284 94.26914703 -68.33984375 94.2734375 C-66.33788039 94.29665944 -64.33592726 94.3207777 -62.33398438 94.34570312 C-59.17433065 94.38065018 -56.01504697 94.4100584 -52.85522461 94.42358398 C-49.80796935 94.43918632 -46.76180591 94.47950092 -43.71484375 94.5234375 C-42.32048851 94.52057487 -42.32048851 94.52057487 -40.89796448 94.51765442 C-30.95195539 94.70051729 -23.24006001 97.87682342 -16.2421875 104.91015625 C-15.41231323 105.70909302 -15.41231323 105.70909302 -14.56567383 106.52416992 C-13.00465679 108.03374253 -11.46357448 109.56058472 -9.9296875 111.09765625 C-9.23617187 111.78859375 -8.54265625 112.47953125 -7.828125 113.19140625 C-6.72126086 114.30332456 -5.61812909 115.41897619 -4.51953125 116.5390625 C-2.80101433 118.22380022 -1.00861465 119.78368434 0.8203125 121.34765625 C5.27437297 125.17658543 9.35508261 129.34994636 13.45703125 133.546875 C16.01670319 136.13061903 16.01670319 136.13061903 18.83984375 138.3046875 C21.0703125 140.09765625 21.0703125 140.09765625 22.0703125 142.09765625 C22.15431779 143.69213089 22.17758717 145.2900617 22.16796875 146.88671875 C22.16313477 148.29824219 22.16313477 148.29824219 22.15820312 149.73828125 C22.14563477 151.21554688 22.14563477 151.21554688 22.1328125 152.72265625 C22.12830078 153.71523437 22.12378906 154.7078125 22.11914062 155.73046875 C22.10733395 158.18625785 22.0908665 160.64192729 22.0703125 163.09765625 C18.40596299 161.38740159 16.1357536 159.33767701 13.3203125 156.41015625 C10.32346079 153.34758411 7.33259649 150.37590217 4.0703125 147.59765625 C0.91637085 144.90154484 -2.01342147 142.0494865 -4.9296875 139.09765625 C-8.42722783 135.55752791 -12.00804168 132.24080654 -15.796875 129.01953125 C-19.42322556 125.75183074 -22.75681656 122.18267817 -26.12109375 118.6484375 C-32.72261152 112.6529005 -37.48966553 111.52239151 -46.17578125 111.62890625 C-47.14572525 111.62185669 -48.11566925 111.61480713 -49.11500549 111.60754395 C-53.2383528 111.57819318 -57.36122 111.59466253 -61.48461914 111.60693359 C-64.50695639 111.60932336 -67.52853811 111.58835029 -70.55078125 111.56640625 C-71.47185165 111.57772583 -72.39292206 111.58904541 -73.34190369 111.60070801 C-80.33661567 111.54645588 -85.49103309 109.88575442 -90.953125 105.45703125 C-91.39914063 104.9259375 -91.84515625 104.39484375 -92.3046875 103.84765625 C-92.76617187 103.326875 -93.22765625 102.80609375 -93.703125 102.26953125 C-97.41480329 95.69726014 -97.23959921 88.42685574 -97.1796875 81.09765625 C-97.18742188 80.15148437 -97.19515625 79.2053125 -97.203125 78.23046875 C-97.1799402 69.8607546 -96.44325239 62.80358558 -90.9296875 56.09765625 C-88.23699589 53.6817561 -85.38908742 51.51181622 -82.4921875 49.34765625 C-81.28719604 48.42968262 -81.28719604 48.42968262 -80.05786133 47.49316406 C-78.43819895 46.25996614 -76.81575739 45.030409 -75.19042969 43.8046875 C-72.67513023 41.90544627 -70.17736472 39.98465779 -67.68334961 38.05761719 C-65.10365789 36.06463945 -62.51573599 34.08237453 -59.9296875 32.09765625 C-58.30785288 30.85077517 -56.68639246 29.60341001 -55.06518555 28.35571289 C-53.97991888 27.52090484 -52.89414849 26.68675119 -51.80786133 25.85327148 C-49.06386477 23.74679831 -46.32916409 21.6298491 -43.609375 19.4921875 C-30.16175065 8.95521 -17.67078312 -0.07818931 0 0 Z " fill="#F0B128" transform="translate(234.9296875,51.90234375)"/>
<path d="M0 0 C7.11431839 4.87654188 11.41789903 10.90058441 13.59375 19.2890625 C14.96214505 28.09033069 12.91614398 35.81134989 7.69921875 42.9609375 C2.13534868 49.63758159 -3.56790289 53.4799056 -12.3046875 54.31640625 C-22.48004947 54.65558498 -29.85306329 52.68709732 -37.42578125 45.78515625 C-40.40257557 42.40948627 -44 37.64460355 -44 33 C-66.77 33 -89.54 33 -113 33 C-113 27.72 -113 22.44 -113 17 C-90.23 17 -67.46 17 -44 17 C-43.34 15.02 -42.68 13.04 -42 11 C-38.24993556 4.33321877 -32.8165891 -1.1273193 -25.4296875 -3.52734375 C-16.53303408 -5.25804321 -7.71232069 -5.01747505 0 0 Z M-27.9375 18.6875 C-29.34591214 23.07843196 -29.21096443 26.5652519 -28 31 C-25.87982166 34.43615111 -23.90377836 36.80717883 -20 38 C-15.22332358 38.46225901 -12.98096677 38.49973779 -8.6875 36.3125 C-4.5330119 32.73770791 -3.17358221 30.56223989 -2.5625 25.0625 C-2.74005873 20.7849487 -4.18986254 18.26583542 -7 15 C-10.46115868 12.1157011 -13.48835145 11.4562162 -18.0078125 11.65234375 C-22.63749537 12.4602688 -25.27482606 14.99411356 -27.9375 18.6875 Z " fill="#F2B328" transform="translate(490,231)"/>
<path d="M0 0 C4.53550082 -0.06930307 9.06912563 -0.12890057 13.60473633 -0.16479492 C15.14386255 -0.17977543 16.68294688 -0.2001671 18.22192383 -0.22631836 C30.38351691 -0.42763003 40.35756986 -0.03187787 49.77246094 8.63085938 C51.67133011 10.47536217 53.5283746 12.35325742 55.375 14.25 C56.33599609 15.22453125 56.33599609 15.22453125 57.31640625 16.21875 C58.88229364 17.80800885 60.44328509 19.40176417 62 21 C62.70125 20.7834375 63.4025 20.566875 64.125 20.34375 C74.67843314 17.2465468 81.92305835 16.99819927 92 22 C99.0497651 26.86068946 103.62170988 32.72637207 106 41 C107.06440643 50.7529333 105.7057146 59.35808796 99.75 67.3125 C93.25963275 73.65535891 86.3585889 77.01483896 77.25 77.375 C68.85395983 77.20853576 61.67996503 74.55067456 55.53125 68.75 C50.06487264 62.50271158 47.41785957 55.26433362 47 47 C47.43807618 42.89591785 48.27242569 38.94695327 49.71875 35.07666016 C50.23889992 32.95005202 50.23889992 32.95005202 48.86010742 31.27661133 C48.28107666 30.7173999 47.7020459 30.15818848 47.10546875 29.58203125 C46.47962891 28.96779297 45.85378906 28.35355469 45.20898438 27.72070312 C44.20834961 26.77614258 44.20834961 26.77614258 43.1875 25.8125 C42.53201172 25.17119141 41.87652344 24.52988281 41.20117188 23.86914062 C36.12407941 18.9479466 33.49534247 17.84603107 26.3671875 17.68359375 C25.61535187 17.66281265 24.86351624 17.64203156 24.08889771 17.62062073 C21.68435915 17.55517295 19.27971033 17.49626262 16.875 17.4375 C15.24608229 17.39431023 13.61717578 17.35069579 11.98828125 17.30664062 C7.99229894 17.19869615 3.99623436 17.09958802 0 17 C0 11.39 0 5.78 0 0 Z M65 41 C63.26163148 44.47673705 63.54563681 48.19870798 64 52 C65.78586343 55.70910097 67.36223095 57.54021301 70.6875 59.9375 C75.07220188 61.34391381 78.58838957 61.34301793 83 60 C86.2044343 57.47736023 88.73211647 54.91891273 90 51 C90.47357835 46.73779488 90.29830613 44.5539971 88.25 40.75 C85.68134686 37.61053505 83.71497046 35.37057151 79.66796875 34.49609375 C72.96389767 34.33772987 69.36258026 35.85028753 65 41 Z " fill="#F1B228" transform="translate(377,300)"/>
<path d="M0 0 C7.73037954 8.08176042 10.14592142 15.60462495 10.0234375 26.5546875 C9.34466585 34.79691469 4.92263231 41.5090185 -1.25 46.875 C-8.30751962 51.31903189 -14.87427371 53.41536944 -23.25 52.875 C-26.96160095 52.01346779 -30.59988638 50.96367713 -34.25 49.875 C-34.69279297 50.33874023 -35.13558594 50.80248047 -35.59179688 51.28027344 C-37.63359838 53.40599915 -39.69152154 55.51542456 -41.75 57.625 C-42.44609375 58.35460937 -43.1421875 59.08421875 -43.859375 59.8359375 C-50.67599575 66.77879196 -56.96235449 70.67655059 -66.84692383 70.98852539 C-68.21696984 70.98836867 -69.5870229 70.98281533 -70.95703125 70.97265625 C-72.04512337 70.97053383 -72.04512337 70.97053383 -73.15519714 70.96836853 C-75.4576745 70.96279931 -77.76005235 70.95025261 -80.0625 70.9375 C-81.62955588 70.93248102 -83.1966133 70.92791881 -84.76367188 70.92382812 C-88.59251651 70.91369354 -92.42114769 70.89411241 -96.25 70.875 C-96.25 65.265 -96.25 59.655 -96.25 53.875 C-92.70765625 53.88853516 -92.70765625 53.88853516 -89.09375 53.90234375 C-86.78334691 53.88728808 -84.4733634 53.86034021 -82.16308594 53.83227539 C-80.5687383 53.81920961 -78.97423891 53.81833339 -77.37988281 53.83032227 C-66.67668922 54.202589 -66.67668922 54.202589 -57.44921875 49.5390625 C-56.36193486 48.3362566 -55.29231129 47.11698046 -54.25 45.875 C-53.37988281 45.23433594 -52.50976562 44.59367187 -51.61328125 43.93359375 C-49.22172141 42.04312264 -47.69334267 40.57854216 -46.25 37.875 C-46.521444 34.1904815 -47.40280494 30.96570147 -48.421875 27.41796875 C-49.91566121 21.02710038 -48.30607947 15.62080663 -46 9.625 C-41.28644868 2.21799078 -35.88258004 -3.00850596 -27.328125 -5.73828125 C-17.0797408 -7.64540538 -8.61150253 -5.63059781 0 0 Z M-30.625 15.5 C-32.69800274 19.80546722 -33.35518515 23.18608949 -32.25 27.875 C-30.19078058 31.24634399 -27.81219367 34.09390316 -24.25 35.875 C-20.19168646 36.38593875 -16.05423343 36.79178528 -12.328125 34.8984375 C-9.54859749 32.65555144 -7.26160509 30.3144573 -6.25 26.875 C-5.7675413 21.66444603 -6.26083486 18.21411068 -9.25 13.875 C-12.40593699 11.30083928 -15.28183541 10.01330923 -19.3125 9.4375 C-24.28890753 10.17866708 -27.2459482 11.76525853 -30.625 15.5 Z " fill="#F1B228" transform="translate(473.25,141.125)"/>
</svg>
