<?xml version="1.0" encoding="UTF-8" standalone="no"?>
<!DOCTYPE svg PUBLIC "-//W3C//DTD SVG 1.1//EN" "http://www.w3.org/Graphics/SVG/1.1/DTD/svg11.dtd">
<svg xmlns="http://www.w3.org/2000/svg" version="1.1" viewBox="0.00 0.00 500.00 500.00">
<path fill="#004379" d="
  M 500.00 137.04
  L 500.00 141.47
  Q 497.70 150.47 490.29 153.10
  Q 372.40 194.91 254.45 236.52
  Q 249.72 238.19 247.60 237.44
  Q 129.28 195.49 10.98 153.49
  Q 1.98 150.30 0.00 141.37
  L 0.00 136.29
  Q 2.43 127.81 11.24 124.70
  Q 128.80 83.27 246.35 41.80
  C 251.48 39.99 262.91 45.11 268.27 47.00
  Q 378.52 85.86 488.77 124.73
  Q 497.95 127.96 500.00 137.04
  Z"
/>
<path fill="#f4b429" d="
  M 465.26 321.16
  C 484.54 333.61 484.01 359.12 465.21 371.66
  Q 464.79 371.94 464.79 372.45
  Q 464.69 423.55 464.75 440.74
  C 464.77 445.83 464.29 450.65 460.50 454.28
  C 453.82 460.68 440.81 459.35 437.01 450.38
  Q 435.78 447.48 435.71 439.99
  Q 435.40 406.14 435.50 372.30
  A 0.90 0.89 16.5 0 0 435.07 371.52
  C 425.79 365.85 420.89 357.19 420.94 346.22
  Q 421.02 330.45 435.01 321.13
  A 1.05 1.04 -16.8 0 0 435.48 320.26
  L 435.48 203.99
  Q 435.48 203.67 435.78 203.56
  L 464.04 193.28
  A 0.53 0.53 0.0 0 1 464.76 193.78
  L 464.76 320.24
  Q 464.76 320.84 465.26 321.16
  Z"
/>
<path fill="#004379" d="
  M 173.53 327.18
  C 153.27 322.66 109.81 310.65 103.90 287.45
  Q 103.04 284.06 103.01 275.00
  Q 102.95 246.35 103.04 217.70
  A 0.34 0.34 0.0 0 1 103.49 217.38
  Q 165.19 239.28 226.96 261.37
  C 236.82 264.90 245.37 267.35 255.97 266.07
  Q 261.20 265.43 273.18 261.17
  Q 334.59 239.30 396.39 217.47
  Q 396.97 217.26 396.97 217.88
  Q 397.03 248.77 397.08 280.00
  C 397.11 291.93 389.32 301.08 379.73 306.96
  C 354.64 322.32 325.34 328.57 296.61 332.46
  Q 234.73 340.83 173.53 327.18
  Z"
/>
</svg>
