<?xml version="1.0" encoding="UTF-8" standalone="no"?>
<!DOCTYPE svg PUBLIC "-//W3C//DTD SVG 1.1//EN" "http://www.w3.org/Graphics/SVG/1.1/DTD/svg11.dtd">
<svg xmlns="http://www.w3.org/2000/svg" version="1.1" viewBox="0.00 0.00 500.00 500.00">
<path stroke="#7a7c51" stroke-width="2.00" fill="none" stroke-linecap="butt" vector-effect="non-scaling-stroke" d="
  M 278.10 92.33
  C 272.04 90.18 265.00 87.63 268.98 79.63
  Q 277.03 63.47 285.56 47.56
  C 287.20 44.51 289.36 43.41 292.95 43.32
  Q 302.35 43.06 311.74 42.62
  C 321.50 42.17 327.97 40.75 335.80 36.18
  A 2.04 2.03 -31.5 0 0 336.49 33.33
  Q 335.88 32.36 334.45 31.82
  Q 260.35 3.83 184.06 25.50
  C 180.72 26.45 177.87 30.36 181.38 32.94
  Q 182.25 33.58 184.76 34.04
  Q 209.56 38.57 234.35 43.14
  C 238.51 43.91 241.89 45.25 240.68 50.14
  Q 239.41 55.23 233.10 73.48
  C 231.08 79.31 229.18 81.44 223.01 83.28
  C 218.41 84.65 205.37 88.47 203.05 92.65
  Q 193.36 110.07 186.89 120.15
  Q 180.12 130.68 170.40 136.64
  Q 161.00 142.41 142.25 152.22
  C 133.12 157.01 123.94 159.55 112.93 160.72
  C 103.57 161.71 94.76 162.44 85.08 164.76
  C 83.32 165.19 82.63 166.00 82.54 167.75
  C 81.91 180.55 87.49 188.94 97.79 195.51
  A 1.96 1.93 -73.9 0 1 98.68 197.15
  L 98.66 208.63
  A 1.52 1.51 -88.4 0 0 100.09 210.15
  C 108.66 210.64 109.27 201.02 118.58 201.08
  Q 119.11 201.08 119.41 201.51
  C 126.82 211.85 135.09 220.57 137.44 233.36
  A 1.12 1.11 85.2 0 0 138.51 234.27
  Q 166.36 234.82 194.26 235.21
  C 197.24 235.25 198.05 237.43 199.37 239.67
  Q 209.39 256.68 219.98 274.76
  Q 220.99 276.49 222.99 276.48
  Q 237.25 276.43 251.99 276.62
  C 259.25 276.71 258.19 282.99 257.19 287.74
  Q 253.69 304.26 249.90 320.75
  Q 247.32 331.97 237.93 340.18
  Q 228.19 348.70 223.53 353.52
  C 215.05 362.29 213.34 374.93 214.58 386.70
  A 1.64 1.62 68.7 0 1 213.95 388.16
  L 185.02 410.22
  A 3.43 3.41 72.7 0 0 183.67 412.80
  Q 182.75 433.03 181.47 453.49
  C 181.15 458.76 175.29 456.89 172.13 455.91
  Q 159.55 452.03 147.44 448.25
  A 4.11 4.09 85.3 0 1 145.00 446.17
  C 136.85 429.72 128.18 412.69 126.66 393.74
  Q 126.38 390.27 126.31 373.76
  Q 126.21 351.17 126.23 328.58
  Q 126.23 325.49 124.35 322.45
  Q 124.08 322.02 123.61 321.83
  Q 122.52 321.39 121.93 321.32
  Q 103.93 319.37 86.98 313.08
  Q 85.88 312.67 85.29 311.76
  C 73.47 293.25 63.73 270.09 68.85 247.55
  C 69.75 243.60 76.19 238.47 79.12 235.82
  A 1.44 1.43 40.9 0 0 78.95 233.56
  L 37.98 206.06
  A 3.42 3.40 6.3 0 1 36.71 204.49
  Q 32.62 194.30 28.27 183.89
  Q 27.40 181.81 25.95 184.01
  A 1.66 1.61 -20.9 0 0 25.74 184.46
  Q 16.32 220.56 16.67 257.38
  C 16.75 265.53 17.89 274.29 18.71 282.77
  Q 19.69 292.92 21.51 300.52
  C 36.82 364.62 75.23 419.38 132.79 452.43
  Q 186.66 483.36 247.25 483.84
  C 296.08 484.23 344.02 468.94 383.76 441.23
  Q 387.62 438.54 401.92 427.66
  C 403.70 426.30 404.16 423.83 406.21 422.25
  Q 423.27 409.12 436.03 391.51
  Q 437.09 390.04 435.89 388.68
  Q 428.54 380.42 421.09 371.88
  C 418.39 368.77 417.85 366.67 418.30 362.72
  Q 420.42 344.37 413.78 327.51
  Q 413.18 325.99 405.14 309.48
  Q 397.88 294.58 390.73 279.62
  C 384.73 267.09 383.73 252.44 383.03 238.24
  C 382.98 237.29 382.01 235.76 381.05 235.11
  Q 373.38 229.95 365.73 224.87
  Q 364.86 224.29 363.84 224.53
  Q 349.11 228.06 334.00 231.71
  Q 331.46 232.33 329.51 231.44
  Q 302.45 219.10 274.65 208.54
  C 272.41 207.69 271.03 206.74 270.06 204.71
  C 267.30 199.00 266.37 194.27 265.69 187.24
  Q 263.92 168.84 259.99 150.76
  C 259.75 149.66 257.85 141.80 259.54 139.54
  Q 272.20 122.61 289.64 110.68
  Q 290.68 109.97 291.25 109.96
  Q 315.38 109.69 339.52 109.27
  C 347.61 109.14 349.77 115.03 353.70 122.25
  C 356.91 128.15 362.62 134.11 370.00 136.00
  C 384.66 139.77 404.17 143.70 418.26 139.01
  Q 433.21 134.02 448.49 128.82
  A 1.51 1.50 62.8 0 0 449.22 126.52
  L 426.14 94.36
  A 2.42 2.41 55.6 0 0 422.86 93.74
  Q 413.32 99.97 403.57 106.07
  C 402.80 106.55 401.54 106.81 400.76 106.71
  Q 367.70 102.49 335.95 92.43
  C 335.14 92.18 333.75 91.93 333.11 92.06
  Q 317.61 95.06 302.17 98.36
  Q 298.13 99.22 292.77 97.41
  Q 285.38 94.91 278.10 92.33"
/>
<path fill="#f4b429" d="
  M 267.12 500.00
  L 243.25 500.00
  Q 239.76 499.28 233.02 498.70
  Q 194.20 495.34 156.72 480.87
  C 93.60 456.50 45.27 407.64 20.20 345.24
  Q 3.43 303.48 0.00 255.97
  L 0.00 229.01
  Q 0.52 227.80 0.98 224.25
  Q 11.98 138.07 71.50 75.65
  C 110.51 34.74 165.50 7.91 221.74 2.30
  Q 264.88 -2.01 307.02 6.81
  C 348.17 15.41 386.27 35.58 417.32 63.91
  C 479.66 120.78 508.65 201.18 497.01 284.88
  C 481.05 399.68 389.60 485.49 275.49 498.71
  Q 269.26 499.43 267.12 500.00
  Z
  M 278.10 92.33
  C 272.04 90.18 265.00 87.63 268.98 79.63
  Q 277.03 63.47 285.56 47.56
  C 287.20 44.51 289.36 43.41 292.95 43.32
  Q 302.35 43.06 311.74 42.62
  C 321.50 42.17 327.97 40.75 335.80 36.18
  A 2.04 2.03 -31.5 0 0 336.49 33.33
  Q 335.88 32.36 334.45 31.82
  Q 260.35 3.83 184.06 25.50
  C 180.72 26.45 177.87 30.36 181.38 32.94
  Q 182.25 33.58 184.76 34.04
  Q 209.56 38.57 234.35 43.14
  C 238.51 43.91 241.89 45.25 240.68 50.14
  Q 239.41 55.23 233.10 73.48
  C 231.08 79.31 229.18 81.44 223.01 83.28
  C 218.41 84.65 205.37 88.47 203.05 92.65
  Q 193.36 110.07 186.89 120.15
  Q 180.12 130.68 170.40 136.64
  Q 161.00 142.41 142.25 152.22
  C 133.12 157.01 123.94 159.55 112.93 160.72
  C 103.57 161.71 94.76 162.44 85.08 164.76
  C 83.32 165.19 82.63 166.00 82.54 167.75
  C 81.91 180.55 87.49 188.94 97.79 195.51
  A 1.96 1.93 -73.9 0 1 98.68 197.15
  L 98.66 208.63
  A 1.52 1.51 -88.4 0 0 100.09 210.15
  C 108.66 210.64 109.27 201.02 118.58 201.08
  Q 119.11 201.08 119.41 201.51
  C 126.82 211.85 135.09 220.57 137.44 233.36
  A 1.12 1.11 85.2 0 0 138.51 234.27
  Q 166.36 234.82 194.26 235.21
  C 197.24 235.25 198.05 237.43 199.37 239.67
  Q 209.39 256.68 219.98 274.76
  Q 220.99 276.49 222.99 276.48
  Q 237.25 276.43 251.99 276.62
  C 259.25 276.71 258.19 282.99 257.19 287.74
  Q 253.69 304.26 249.90 320.75
  Q 247.32 331.97 237.93 340.18
  Q 228.19 348.70 223.53 353.52
  C 215.05 362.29 213.34 374.93 214.58 386.70
  A 1.64 1.62 68.7 0 1 213.95 388.16
  L 185.02 410.22
  A 3.43 3.41 72.7 0 0 183.67 412.80
  Q 182.75 433.03 181.47 453.49
  C 181.15 458.76 175.29 456.89 172.13 455.91
  Q 159.55 452.03 147.44 448.25
  A 4.11 4.09 85.3 0 1 145.00 446.17
  C 136.85 429.72 128.18 412.69 126.66 393.74
  Q 126.38 390.27 126.31 373.76
  Q 126.21 351.17 126.23 328.58
  Q 126.23 325.49 124.35 322.45
  Q 124.08 322.02 123.61 321.83
  Q 122.52 321.39 121.93 321.32
  Q 103.93 319.37 86.98 313.08
  Q 85.88 312.67 85.29 311.76
  C 73.47 293.25 63.73 270.09 68.85 247.55
  C 69.75 243.60 76.19 238.47 79.12 235.82
  A 1.44 1.43 40.9 0 0 78.95 233.56
  L 37.98 206.06
  A 3.42 3.40 6.3 0 1 36.71 204.49
  Q 32.62 194.30 28.27 183.89
  Q 27.40 181.81 25.95 184.01
  A 1.66 1.61 -20.9 0 0 25.74 184.46
  Q 16.32 220.56 16.67 257.38
  C 16.75 265.53 17.89 274.29 18.71 282.77
  Q 19.69 292.92 21.51 300.52
  C 36.82 364.62 75.23 419.38 132.79 452.43
  Q 186.66 483.36 247.25 483.84
  C 296.08 484.23 344.02 468.94 383.76 441.23
  Q 387.62 438.54 401.92 427.66
  C 403.70 426.30 404.16 423.83 406.21 422.25
  Q 423.27 409.12 436.03 391.51
  Q 437.09 390.04 435.89 388.68
  Q 428.54 380.42 421.09 371.88
  C 418.39 368.77 417.85 366.67 418.30 362.72
  Q 420.42 344.37 413.78 327.51
  Q 413.18 325.99 405.14 309.48
  Q 397.88 294.58 390.73 279.62
  C 384.73 267.09 383.73 252.44 383.03 238.24
  C 382.98 237.29 382.01 235.76 381.05 235.11
  Q 373.38 229.95 365.73 224.87
  Q 364.86 224.29 363.84 224.53
  Q 349.11 228.06 334.00 231.71
  Q 331.46 232.33 329.51 231.44
  Q 302.45 219.10 274.65 208.54
  C 272.41 207.69 271.03 206.74 270.06 204.71
  C 267.30 199.00 266.37 194.27 265.69 187.24
  Q 263.92 168.84 259.99 150.76
  C 259.75 149.66 257.85 141.80 259.54 139.54
  Q 272.20 122.61 289.64 110.68
  Q 290.68 109.97 291.25 109.96
  Q 315.38 109.69 339.52 109.27
  C 347.61 109.14 349.77 115.03 353.70 122.25
  C 356.91 128.15 362.62 134.11 370.00 136.00
  C 384.66 139.77 404.17 143.70 418.26 139.01
  Q 433.21 134.02 448.49 128.82
  A 1.51 1.50 62.8 0 0 449.22 126.52
  L 426.14 94.36
  A 2.42 2.41 55.6 0 0 422.86 93.74
  Q 413.32 99.97 403.57 106.07
  C 402.80 106.55 401.54 106.81 400.76 106.71
  Q 367.70 102.49 335.95 92.43
  C 335.14 92.18 333.75 91.93 333.11 92.06
  Q 317.61 95.06 302.17 98.36
  Q 298.13 99.22 292.77 97.41
  Q 285.38 94.91 278.10 92.33
  Z"
/>
<path fill="#004379" d="
  M 268.98 79.63
  C 265.00 87.63 272.04 90.18 278.10 92.33
  Q 285.38 94.91 292.77 97.41
  Q 298.13 99.22 302.17 98.36
  Q 317.61 95.06 333.11 92.06
  C 333.75 91.93 335.14 92.18 335.95 92.43
  Q 367.70 102.49 400.76 106.71
  C 401.54 106.81 402.80 106.55 403.57 106.07
  Q 413.32 99.97 422.86 93.74
  A 2.42 2.41 55.6 0 1 426.14 94.36
  L 449.22 126.52
  A 1.51 1.50 62.8 0 1 448.49 128.82
  Q 433.21 134.02 418.26 139.01
  C 404.17 143.70 384.66 139.77 370.00 136.00
  C 362.62 134.11 356.91 128.15 353.70 122.25
  C 349.77 115.03 347.61 109.14 339.52 109.27
  Q 315.38 109.69 291.25 109.96
  Q 290.68 109.97 289.64 110.68
  Q 272.20 122.61 259.54 139.54
  C 257.85 141.80 259.75 149.66 259.99 150.76
  Q 263.92 168.84 265.69 187.24
  C 266.37 194.27 267.30 199.00 270.06 204.71
  C 271.03 206.74 272.41 207.69 274.65 208.54
  Q 302.45 219.10 329.51 231.44
  Q 331.46 232.33 334.00 231.71
  Q 349.11 228.06 363.84 224.53
  Q 364.86 224.29 365.73 224.87
  Q 373.38 229.95 381.05 235.11
  C 382.01 235.76 382.98 237.29 383.03 238.24
  C 383.73 252.44 384.73 267.09 390.73 279.62
  Q 397.88 294.58 405.14 309.48
  Q 413.18 325.99 413.78 327.51
  Q 420.42 344.37 418.30 362.72
  C 417.85 366.67 418.39 368.77 421.09 371.88
  Q 428.54 380.42 435.89 388.68
  Q 437.09 390.04 436.03 391.51
  Q 423.27 409.12 406.21 422.25
  C 404.16 423.83 403.70 426.30 401.92 427.66
  Q 387.62 438.54 383.76 441.23
  C 344.02 468.94 296.08 484.23 247.25 483.84
  Q 186.66 483.36 132.79 452.43
  C 75.23 419.38 36.82 364.62 21.51 300.52
  Q 19.69 292.92 18.71 282.77
  C 17.89 274.29 16.75 265.53 16.67 257.38
  Q 16.32 220.56 25.74 184.46
  A 1.66 1.61 -20.9 0 1 25.95 184.01
  Q 27.40 181.81 28.27 183.89
  Q 32.62 194.30 36.71 204.49
  A 3.42 3.40 6.3 0 0 37.98 206.06
  L 78.95 233.56
  A 1.44 1.43 40.9 0 1 79.12 235.82
  C 76.19 238.47 69.75 243.60 68.85 247.55
  C 63.73 270.09 73.47 293.25 85.29 311.76
  Q 85.88 312.67 86.98 313.08
  Q 103.93 319.37 121.93 321.32
  Q 122.52 321.39 123.61 321.83
  Q 124.08 322.02 124.35 322.45
  Q 126.23 325.49 126.23 328.58
  Q 126.21 351.17 126.31 373.76
  Q 126.38 390.27 126.66 393.74
  C 128.18 412.69 136.85 429.72 145.00 446.17
  A 4.11 4.09 85.3 0 0 147.44 448.25
  Q 159.55 452.03 172.13 455.91
  C 175.29 456.89 181.15 458.76 181.47 453.49
  Q 182.75 433.03 183.67 412.80
  A 3.43 3.41 72.7 0 1 185.02 410.22
  L 213.95 388.16
  A 1.64 1.62 68.7 0 0 214.58 386.70
  C 213.34 374.93 215.05 362.29 223.53 353.52
  Q 228.19 348.70 237.93 340.18
  Q 247.32 331.97 249.90 320.75
  Q 253.69 304.26 257.19 287.74
  C 258.19 282.99 259.25 276.71 251.99 276.62
  Q 237.25 276.43 222.99 276.48
  Q 220.99 276.49 219.98 274.76
  Q 209.39 256.68 199.37 239.67
  C 198.05 237.43 197.24 235.25 194.26 235.21
  Q 166.36 234.82 138.51 234.27
  A 1.12 1.11 85.2 0 1 137.44 233.36
  C 135.09 220.57 126.82 211.85 119.41 201.51
  Q 119.11 201.08 118.58 201.08
  C 109.27 201.02 108.66 210.64 100.09 210.15
  A 1.52 1.51 -88.4 0 1 98.66 208.63
  L 98.68 197.15
  A 1.96 1.93 -73.9 0 0 97.79 195.51
  C 87.49 188.94 81.91 180.55 82.54 167.75
  C 82.63 166.00 83.32 165.19 85.08 164.76
  C 94.76 162.44 103.57 161.71 112.93 160.72
  C 123.94 159.55 133.12 157.01 142.25 152.22
  Q 161.00 142.41 170.40 136.64
  Q 180.12 130.68 186.89 120.15
  Q 193.36 110.07 203.05 92.65
  C 205.37 88.47 218.41 84.65 223.01 83.28
  C 229.18 81.44 231.08 79.31 233.10 73.48
  Q 239.41 55.23 240.68 50.14
  C 241.89 45.25 238.51 43.91 234.35 43.14
  Q 209.56 38.57 184.76 34.04
  Q 182.25 33.58 181.38 32.94
  C 177.87 30.36 180.72 26.45 184.06 25.50
  Q 260.35 3.83 334.45 31.82
  Q 335.88 32.36 336.49 33.33
  A 2.04 2.03 -31.5 0 1 335.80 36.18
  C 327.97 40.75 321.50 42.17 311.74 42.62
  Q 302.35 43.06 292.95 43.32
  C 289.36 43.41 287.20 44.51 285.56 47.56
  Q 277.03 63.47 268.98 79.63
  Z"
/>
</svg>
