<?xml version="1.0" encoding="UTF-8" standalone="no"?>
<!DOCTYPE svg PUBLIC "-//W3C//DTD SVG 1.1//EN" "http://www.w3.org/Graphics/SVG/1.1/DTD/svg11.dtd">
<svg xmlns="http://www.w3.org/2000/svg" version="1.1" viewBox="0.00 0.00 600.00 600.00">
<g stroke-width="2.00" fill="none" stroke-linecap="butt">
<path stroke="#fada94" vector-effect="non-scaling-stroke" d="
  M 318.10 600.00
  C 445.68 589.97 555.96 504.01 588.99 378.90
  C 611.17 294.89 598.32 204.76 549.22 132.43
  C 508.57 72.55 448.51 27.97 378.50 10.50
  Q 324.12 -3.08 267.25 2.52
  C 190.87 10.03 118.27 49.30 69.79 108.56
  Q 10.24 181.37 0.00 277.27"
/>
<path stroke="#fada94" vector-effect="non-scaling-stroke" d="
  M 292.02 600.00
  Q 248.85 597.01 211.70 585.60
  Q 88.68 547.82 32.29 433.00
  C 13.24 394.23 2.69 350.06 0.00 306.91"
/>
<path stroke="#7a7c51" vector-effect="non-scaling-stroke" d="
  M 256.82 465.82
  L 221.95 492.41
  A 3.68 3.65 -17.5 0 0 220.51 495.15
  Q 219.39 519.01 218.17 543.25
  C 217.87 549.19 213.22 549.23 208.62 547.82
  Q 192.85 542.98 177.10 538.08
  Q 174.98 537.43 174.15 535.79
  Q 166.79 521.31 159.20 503.50
  Q 156.88 498.04 155.56 492.38
  C 153.52 483.63 151.58 475.85 151.50 466.75
  Q 151.19 432.76 151.36 398.76
  C 151.38 395.31 151.54 386.33 146.91 385.80
  Q 124.42 383.21 105.88 376.37
  C 104.36 375.81 102.82 375.39 101.98 374.00
  C 91.09 355.87 79.59 331.70 80.78 309.90
  C 81.00 305.90 81.65 295.80 84.58 292.85
  Q 89.46 287.97 94.88 282.86
  A 1.63 1.63 0.0 0 0 94.67 280.32
  L 45.92 247.60
  A 6.12 6.11 -83.9 0 1 43.64 244.77
  Q 39.03 233.17 34.29 220.98
  Q 33.81 219.73 32.73 219.57
  A 1.26 1.26 0.0 0 0 31.35 220.44
  Q 28.84 228.51 27.14 237.25
  C 20.70 270.47 17.30 303.34 22.54 337.04
  C 23.18 341.13 22.42 344.79 23.29 349.02
  C 38.81 424.37 79.27 490.76 143.90 533.26
  Q 152.22 538.73 160.91 543.78
  C 260.81 601.89 387.08 589.74 476.32 517.47
  C 479.65 514.78 483.42 513.71 485.34 508.57
  A 1.77 1.77 0.0 0 1 485.93 507.78
  Q 507.32 491.69 523.02 470.00
  Q 524.41 468.07 522.90 466.36
  Q 513.73 455.97 504.56 445.59
  C 500.70 441.23 501.64 436.68 502.17 431.39
  C 503.94 413.62 499.67 398.91 491.62 382.51
  Q 482.17 363.27 472.73 344.02
  Q 467.06 332.48 465.20 326.54
  C 461.26 314.02 460.69 299.91 459.58 286.86
  C 459.39 284.66 458.88 283.30 457.14 282.13
  Q 448.15 276.11 439.15 270.11
  A 3.71 3.67 -34.5 0 0 436.25 269.59
  Q 418.26 273.92 399.77 278.35
  C 398.70 278.61 396.67 278.37 395.46 277.82
  Q 362.65 262.85 328.92 250.09
  C 325.53 248.80 324.66 247.34 323.33 244.20
  C 320.46 237.43 319.09 232.50 318.66 224.72
  C 317.61 205.92 313.00 189.17 310.43 171.26
  Q 310.10 168.97 311.34 167.33
  Q 326.16 147.61 346.67 133.11
  Q 348.40 131.89 349.50 131.88
  Q 379.25 131.60 409.00 131.08
  C 414.29 130.98 417.64 134.32 420.19 139.11
  C 425.19 148.47 432.27 159.84 441.74 162.55
  Q 459.04 167.51 479.00 169.03
  C 487.44 169.67 495.23 169.01 502.75 166.48
  Q 520.65 160.47 538.27 154.49
  A 1.64 1.64 0.0 0 0 539.08 151.98
  L 511.29 113.25
  A 2.74 2.74 0.0 0 0 507.57 112.54
  Q 496.36 119.79 484.57 127.25
  Q 482.72 128.41 479.26 127.95
  Q 437.99 122.38 402.31 110.74
  C 401.10 110.35 400.22 110.44 399.03 110.66
  Q 378.53 114.63 358.69 118.56
  A 6.87 6.84 48.7 0 1 355.13 118.32
  Q 343.17 114.21 330.79 109.92
  C 325.56 108.11 321.52 105.90 321.46 100.18
  Q 321.43 97.15 324.47 91.32
  Q 333.32 74.36 342.33 57.48
  Q 345.16 52.18 350.00 51.98
  Q 369.53 51.18 375.75 51.05
  Q 390.21 50.75 402.15 43.80
  C 405.52 41.84 404.12 39.31 401.09 38.15
  Q 313.19 4.69 220.79 30.60
  Q 215.67 32.03 216.02 36.45
  C 216.14 38.09 217.74 40.03 219.23 40.30
  Q 251.12 46.15 282.99 52.00
  C 290.39 53.36 289.73 58.07 287.81 63.96
  Q 283.93 75.88 280.01 87.80
  C 277.98 93.96 275.32 97.94 269.25 99.61
  Q 257.05 102.97 247.55 107.72
  C 246.21 108.39 244.61 109.62 243.98 110.76
  Q 236.96 123.59 226.34 141.08
  C 219.67 152.07 211.98 160.19 200.61 166.34
  C 181.63 176.60 165.85 187.50 145.70 191.70
  Q 141.77 192.52 129.23 193.55
  Q 115.37 194.70 101.77 197.86
  Q 99.11 198.47 99.03 201.76
  Q 98.56 220.30 112.13 230.94
  C 113.59 232.08 116.39 233.60 118.16 235.37
  A 1.28 1.27 -67.3 0 1 118.52 236.26
  L 118.53 250.97
  Q 118.53 251.79 119.33 251.95
  Q 125.23 253.07 128.72 248.87
  C 132.38 244.48 135.52 241.78 141.44 241.12
  A 2.47 2.47 0.0 0 1 143.78 242.25
  C 148.51 249.78 155.74 257.60 159.30 263.97
  Q 163.42 271.36 164.89 279.56
  A 1.86 1.86 0.0 0 0 166.68 281.09
  Q 199.45 281.76 232.00 282.20
  C 234.89 282.24 236.27 282.33 237.85 285.02
  Q 251.10 307.58 264.32 330.12
  A 2.80 2.79 -14.8 0 0 266.72 331.51
  Q 283.75 331.63 300.97 331.79
  C 309.05 331.86 310.68 335.39 309.11 343.08
  Q 305.02 363.20 300.43 383.22
  Q 298.66 390.90 296.54 394.96
  C 287.14 412.89 262.00 420.76 258.27 443.97
  Q 256.63 454.16 257.58 464.08
  A 1.97 1.96 68.6 0 1 256.82 465.82"
/>
</g>
<path fill="#ffffff" d="
  M 0.00 0.00
  L 600.00 0.00
  L 600.00 600.00
  L 318.10 600.00
  C 445.68 589.97 555.96 504.01 588.99 378.90
  C 611.17 294.89 598.32 204.76 549.22 132.43
  C 508.57 72.55 448.51 27.97 378.50 10.50
  Q 324.12 -3.08 267.25 2.52
  C 190.87 10.03 118.27 49.30 69.79 108.56
  Q 10.24 181.37 0.00 277.27
  L 0.00 0.00
  Z"
/>
<path fill="#f4b429" d="
  M 318.10 600.00
  L 292.02 600.00
  Q 248.85 597.01 211.70 585.60
  Q 88.68 547.82 32.29 433.00
  C 13.24 394.23 2.69 350.06 0.00 306.91
  L 0.00 277.27
  Q 10.24 181.37 69.79 108.56
  C 118.27 49.30 190.87 10.03 267.25 2.52
  Q 324.12 -3.08 378.50 10.50
  C 448.51 27.97 508.57 72.55 549.22 132.43
  C 598.32 204.76 611.17 294.89 588.99 378.90
  C 555.96 504.01 445.68 589.97 318.10 600.00
  Z
  M 256.82 465.82
  L 221.95 492.41
  A 3.68 3.65 -17.5 0 0 220.51 495.15
  Q 219.39 519.01 218.17 543.25
  C 217.87 549.19 213.22 549.23 208.62 547.82
  Q 192.85 542.98 177.10 538.08
  Q 174.98 537.43 174.15 535.79
  Q 166.79 521.31 159.20 503.50
  Q 156.88 498.04 155.56 492.38
  C 153.52 483.63 151.58 475.85 151.50 466.75
  Q 151.19 432.76 151.36 398.76
  C 151.38 395.31 151.54 386.33 146.91 385.80
  Q 124.42 383.21 105.88 376.37
  C 104.36 375.81 102.82 375.39 101.98 374.00
  C 91.09 355.87 79.59 331.70 80.78 309.90
  C 81.00 305.90 81.65 295.80 84.58 292.85
  Q 89.46 287.97 94.88 282.86
  A 1.63 1.63 0.0 0 0 94.67 280.32
  L 45.92 247.60
  A 6.12 6.11 -83.9 0 1 43.64 244.77
  Q 39.03 233.17 34.29 220.98
  Q 33.81 219.73 32.73 219.57
  A 1.26 1.26 0.0 0 0 31.35 220.44
  Q 28.84 228.51 27.14 237.25
  C 20.70 270.47 17.30 303.34 22.54 337.04
  C 23.18 341.13 22.42 344.79 23.29 349.02
  C 38.81 424.37 79.27 490.76 143.90 533.26
  Q 152.22 538.73 160.91 543.78
  C 260.81 601.89 387.08 589.74 476.32 517.47
  C 479.65 514.78 483.42 513.71 485.34 508.57
  A 1.77 1.77 0.0 0 1 485.93 507.78
  Q 507.32 491.69 523.02 470.00
  Q 524.41 468.07 522.90 466.36
  Q 513.73 455.97 504.56 445.59
  C 500.70 441.23 501.64 436.68 502.17 431.39
  C 503.94 413.62 499.67 398.91 491.62 382.51
  Q 482.17 363.27 472.73 344.02
  Q 467.06 332.48 465.20 326.54
  C 461.26 314.02 460.69 299.91 459.58 286.86
  C 459.39 284.66 458.88 283.30 457.14 282.13
  Q 448.15 276.11 439.15 270.11
  A 3.71 3.67 -34.5 0 0 436.25 269.59
  Q 418.26 273.92 399.77 278.35
  C 398.70 278.61 396.67 278.37 395.46 277.82
  Q 362.65 262.85 328.92 250.09
  C 325.53 248.80 324.66 247.34 323.33 244.20
  C 320.46 237.43 319.09 232.50 318.66 224.72
  C 317.61 205.92 313.00 189.17 310.43 171.26
  Q 310.10 168.97 311.34 167.33
  Q 326.16 147.61 346.67 133.11
  Q 348.40 131.89 349.50 131.88
  Q 379.25 131.60 409.00 131.08
  C 414.29 130.98 417.64 134.32 420.19 139.11
  C 425.19 148.47 432.27 159.84 441.74 162.55
  Q 459.04 167.51 479.00 169.03
  C 487.44 169.67 495.23 169.01 502.75 166.48
  Q 520.65 160.47 538.27 154.49
  A 1.64 1.64 0.0 0 0 539.08 151.98
  L 511.29 113.25
  A 2.74 2.74 0.0 0 0 507.57 112.54
  Q 496.36 119.79 484.57 127.25
  Q 482.72 128.41 479.26 127.95
  Q 437.99 122.38 402.31 110.74
  C 401.10 110.35 400.22 110.44 399.03 110.66
  Q 378.53 114.63 358.69 118.56
  A 6.87 6.84 48.7 0 1 355.13 118.32
  Q 343.17 114.21 330.79 109.92
  C 325.56 108.11 321.52 105.90 321.46 100.18
  Q 321.43 97.15 324.47 91.32
  Q 333.32 74.36 342.33 57.48
  Q 345.16 52.18 350.00 51.98
  Q 369.53 51.18 375.75 51.05
  Q 390.21 50.75 402.15 43.80
  C 405.52 41.84 404.12 39.31 401.09 38.15
  Q 313.19 4.69 220.79 30.60
  Q 215.67 32.03 216.02 36.45
  C 216.14 38.09 217.74 40.03 219.23 40.30
  Q 251.12 46.15 282.99 52.00
  C 290.39 53.36 289.73 58.07 287.81 63.96
  Q 283.93 75.88 280.01 87.80
  C 277.98 93.96 275.32 97.94 269.25 99.61
  Q 257.05 102.97 247.55 107.72
  C 246.21 108.39 244.61 109.62 243.98 110.76
  Q 236.96 123.59 226.34 141.08
  C 219.67 152.07 211.98 160.19 200.61 166.34
  C 181.63 176.60 165.85 187.50 145.70 191.70
  Q 141.77 192.52 129.23 193.55
  Q 115.37 194.70 101.77 197.86
  Q 99.11 198.47 99.03 201.76
  Q 98.56 220.30 112.13 230.94
  C 113.59 232.08 116.39 233.60 118.16 235.37
  A 1.28 1.27 -67.3 0 1 118.52 236.26
  L 118.53 250.97
  Q 118.53 251.79 119.33 251.95
  Q 125.23 253.07 128.72 248.87
  C 132.38 244.48 135.52 241.78 141.44 241.12
  A 2.47 2.47 0.0 0 1 143.78 242.25
  C 148.51 249.78 155.74 257.60 159.30 263.97
  Q 163.42 271.36 164.89 279.56
  A 1.86 1.86 0.0 0 0 166.68 281.09
  Q 199.45 281.76 232.00 282.20
  C 234.89 282.24 236.27 282.33 237.85 285.02
  Q 251.10 307.58 264.32 330.12
  A 2.80 2.79 -14.8 0 0 266.72 331.51
  Q 283.75 331.63 300.97 331.79
  C 309.05 331.86 310.68 335.39 309.11 343.08
  Q 305.02 363.20 300.43 383.22
  Q 298.66 390.90 296.54 394.96
  C 287.14 412.89 262.00 420.76 258.27 443.97
  Q 256.63 454.16 257.58 464.08
  A 1.97 1.96 68.6 0 1 256.82 465.82
  Z"
/>
<path fill="#004379" d="
  M 256.82 465.82
  A 1.97 1.96 68.6 0 0 257.58 464.08
  Q 256.63 454.16 258.27 443.97
  C 262.00 420.76 287.14 412.89 296.54 394.96
  Q 298.66 390.90 300.43 383.22
  Q 305.02 363.20 309.11 343.08
  C 310.68 335.39 309.05 331.86 300.97 331.79
  Q 283.75 331.63 266.72 331.51
  A 2.80 2.79 -14.8 0 1 264.32 330.12
  Q 251.10 307.58 237.85 285.02
  C 236.27 282.33 234.89 282.24 232.00 282.20
  Q 199.45 281.76 166.68 281.09
  A 1.86 1.86 0.0 0 1 164.89 279.56
  Q 163.42 271.36 159.30 263.97
  C 155.74 257.60 148.51 249.78 143.78 242.25
  A 2.47 2.47 0.0 0 0 141.44 241.12
  C 135.52 241.78 132.38 244.48 128.72 248.87
  Q 125.23 253.07 119.33 251.95
  Q 118.53 251.79 118.53 250.97
  L 118.52 236.26
  A 1.28 1.27 -67.3 0 0 118.16 235.37
  C 116.39 233.60 113.59 232.08 112.13 230.94
  Q 98.56 220.30 99.03 201.76
  Q 99.11 198.47 101.77 197.86
  Q 115.37 194.70 129.23 193.55
  Q 141.77 192.52 145.70 191.70
  C 165.85 187.50 181.63 176.60 200.61 166.34
  C 211.98 160.19 219.67 152.07 226.34 141.08
  Q 236.96 123.59 243.98 110.76
  C 244.61 109.62 246.21 108.39 247.55 107.72
  Q 257.05 102.97 269.25 99.61
  C 275.32 97.94 277.98 93.96 280.01 87.80
  Q 283.93 75.88 287.81 63.96
  C 289.73 58.07 290.39 53.36 282.99 52.00
  Q 251.12 46.15 219.23 40.30
  C 217.74 40.03 216.14 38.09 216.02 36.45
  Q 215.67 32.03 220.79 30.60
  Q 313.19 4.69 401.09 38.15
  C 404.12 39.31 405.52 41.84 402.15 43.80
  Q 390.21 50.75 375.75 51.05
  Q 369.53 51.18 350.00 51.98
  Q 345.16 52.18 342.33 57.48
  Q 333.32 74.36 324.47 91.32
  Q 321.43 97.15 321.46 100.18
  C 321.52 105.90 325.56 108.11 330.79 109.92
  Q 343.17 114.21 355.13 118.32
  A 6.87 6.84 48.7 0 0 358.69 118.56
  Q 378.53 114.63 399.03 110.66
  C 400.22 110.44 401.10 110.35 402.31 110.74
  Q 437.99 122.38 479.26 127.95
  Q 482.72 128.41 484.57 127.25
  Q 496.36 119.79 507.57 112.54
  A 2.74 2.74 0.0 0 1 511.29 113.25
  L 539.08 151.98
  A 1.64 1.64 0.0 0 1 538.27 154.49
  Q 520.65 160.47 502.75 166.48
  C 495.23 169.01 487.44 169.67 479.00 169.03
  Q 459.04 167.51 441.74 162.55
  C 432.27 159.84 425.19 148.47 420.19 139.11
  C 417.64 134.32 414.29 130.98 409.00 131.08
  Q 379.25 131.60 349.50 131.88
  Q 348.40 131.89 346.67 133.11
  Q 326.16 147.61 311.34 167.33
  Q 310.10 168.97 310.43 171.26
  C 313.00 189.17 317.61 205.92 318.66 224.72
  C 319.09 232.50 320.46 237.43 323.33 244.20
  C 324.66 247.34 325.53 248.80 328.92 250.09
  Q 362.65 262.85 395.46 277.82
  C 396.67 278.37 398.70 278.61 399.77 278.35
  Q 418.26 273.92 436.25 269.59
  A 3.71 3.67 -34.5 0 1 439.15 270.11
  Q 448.15 276.11 457.14 282.13
  C 458.88 283.30 459.39 284.66 459.58 286.86
  C 460.69 299.91 461.26 314.02 465.20 326.54
  Q 467.06 332.48 472.73 344.02
  Q 482.17 363.27 491.62 382.51
  C 499.67 398.91 503.94 413.62 502.17 431.39
  C 501.64 436.68 500.70 441.23 504.56 445.59
  Q 513.73 455.97 522.90 466.36
  Q 524.41 468.07 523.02 470.00
  Q 507.32 491.69 485.93 507.78
  A 1.77 1.77 0.0 0 0 485.34 508.57
  C 483.42 513.71 479.65 514.78 476.32 517.47
  C 387.08 589.74 260.81 601.89 160.91 543.78
  Q 152.22 538.73 143.90 533.26
  C 79.27 490.76 38.81 424.37 23.29 349.02
  C 22.42 344.79 23.18 341.13 22.54 337.04
  C 17.30 303.34 20.70 270.47 27.14 237.25
  Q 28.84 228.51 31.35 220.44
  A 1.26 1.26 0.0 0 1 32.73 219.57
  Q 33.81 219.73 34.29 220.98
  Q 39.03 233.17 43.64 244.77
  A 6.12 6.11 -83.9 0 0 45.92 247.60
  L 94.67 280.32
  A 1.63 1.63 0.0 0 1 94.88 282.86
  Q 89.46 287.97 84.58 292.85
  C 81.65 295.80 81.00 305.90 80.78 309.90
  C 79.59 331.70 91.09 355.87 101.98 374.00
  C 102.82 375.39 104.36 375.81 105.88 376.37
  Q 124.42 383.21 146.91 385.80
  C 151.54 386.33 151.38 395.31 151.36 398.76
  Q 151.19 432.76 151.50 466.75
  C 151.58 475.85 153.52 483.63 155.56 492.38
  Q 156.88 498.04 159.20 503.50
  Q 166.79 521.31 174.15 535.79
  Q 174.98 537.43 177.10 538.08
  Q 192.85 542.98 208.62 547.82
  C 213.22 549.23 217.87 549.19 218.17 543.25
  Q 219.39 519.01 220.51 495.15
  A 3.68 3.65 -17.5 0 1 221.95 492.41
  L 256.82 465.82
  Z"
/>
<path fill="#ffffff" d="
  M 0.00 306.91
  C 2.69 350.06 13.24 394.23 32.29 433.00
  Q 88.68 547.82 211.70 585.60
  Q 248.85 597.01 292.02 600.00
  L 0.00 600.00
  L 0.00 306.91
  Z"
/>
</svg>
