<?xml version="1.0" encoding="UTF-8" standalone="no"?>
<svg
   xmlns:dc="http://purl.org/dc/elements/1.1/"
   xmlns:cc="http://creativecommons.org/ns#"
   xmlns:rdf="http://www.w3.org/1999/02/22-rdf-syntax-ns#"
   xmlns:svg="http://www.w3.org/2000/svg"
   xmlns="http://www.w3.org/2000/svg"
   viewBox="0 0 5333.3335 5333.3335"
   height="5333.3335"
   width="5333.3335"
   xml:space="preserve"
   id="svg2"
   version="1.1">
    <metadata
     id="metadata8"><rdf:RDF><cc:Work
         rdf:about=""><dc:format>image/svg+xml</dc:format><dc:type
           rdf:resource="http://purl.org/dc/dcmitype/StillImage" /></cc:Work></rdf:RDF>
    </metadata>
    <defs
     id="defs6"><clipPath
       id="clipPath32"
       clipPathUnits="userSpaceOnUse">
       <path
         id="path30"
         d="m 30479.4,20000 c 0,-7905.4 -4785.6,-14314.1 -10689,-14314.1 -5903.3,0 -10688.94,6408.7 -10688.94,14314.1 0,1955.3 323.02,3901.4 588.38,5660.1 800.86,5307.7 5657.26,8654 10100.56,8654 4521.1,0 9070.9,-3073.8 10210.9,-8972.7 321.2,-1661.9 478.1,-3490.3 478.1,-5341.4 z" /></clipPath>
    </defs>
    <g
     transform="matrix(1.3333333,0,0,-1.3333333,0,5333.3333)"
     id="g10">
      <g
       transform="scale(0.1)"
       id="g12">
        <g
         transform="scale(2.45399)"
         id="g14">
         <path
           id="path16"
           style="fill:#ffffff;fill-opacity:1;fill-rule:nonzero;stroke:none"
           d="M 16300,0 H 0 V 16300 H 16300 V 0" />
        </g>
        <g
         transform="scale(2.10516)"
         id="g18">
         <path
           id="path20"
           style="fill:#ffffff;fill-opacity:1;fill-rule:nonzero;stroke:none"
           d="m 14478.4,9500.48 c 0,-3755.25 -2273.2,-6799.54 -5077.48,-6799.54 -2804.21,0 -5077.51,3044.29 -5077.51,6799.54 0,928.82 153.45,1853.22 279.5,2688.72 380.42,2521.3 2687.33,4110.8 4798.01,4110.8 2147.58,0 4308.88,-1460.1 4850.38,-4262.2 152.6,-789.5 227.1,-1658 227.1,-2537.32" />
        </g>
        <g
         id="g26">
          <g
           clip-path="url(#clipPath32)"
           id="g28">
            <g
             transform="scale(1.5099)"
             id="g34"><path
               id="path36"
               style="fill:#F4B429;stroke:#F4B429; stroke-width:200;"
               d="m 15583.5,10915.5 c -178.3,0 -323.2,144.9 -323.2,323.2 0,178.2 144.9,323.2 323.2,323.2 178.3,0 323.2,-145 323.2,-323.2 0,-178.3 -144.9,-323.2 -323.2,-323.2 z m 0,1039.7 c -395.1,0 -716.6,-321.4 -716.6,-716.5 0,-115.9 28.4,-225.2 77.4,-322.2 L 11097.9,7706.56 H 6181.49 v -393.27 h 5059.01 l 3971.1,3314.11 c 108.7,-66.3 235.7,-105.3 371.9,-105.3 395.1,0 716.5,321.5 716.5,716.6 0,395.1 -321.4,716.5 -716.5,716.5" />
            </g>
            <g
             transform="scale(1.47674)"
             id="g38"><path
               id="path40"
               style="fill:#F4B429;stroke:#F4B429; stroke-width:200;"
               d="m 15567.3,9176.66 c -182.2,0 -330.5,148.3 -330.5,330.52 0,182.23 148.3,330.46 330.5,330.46 182.3,0 330.5,-148.23 330.5,-330.46 0,-182.22 -148.2,-330.52 -330.5,-330.52 z m 0,1063.14 c -403.9,0 -732.6,-328.69 -732.6,-732.62 0,-103.27 21.7,-201.45 60.4,-290.64 L 11784.9,6705.19 H 6320.3 v -402.1 H 11927 l 3223.2,2602.56 c 118.5,-82.41 262.2,-131.1 417.1,-131.1 404,0 732.7,328.63 732.7,732.63 0,403.93 -328.7,732.62 -732.7,732.62" />
            </g>
            <g
             transform="scale(1.05766)"
             id="g42"><path
               id="path44"
               style="fill:#F4B429;stroke:#F4B429; stroke-width:200;"
               d="m 15277.1,12993.5 c 254.4,0 461.5,-207.1 461.5,-461.5 0,-254.5 -207.1,-461.5 -461.5,-461.5 -254.5,0 -461.5,207 -461.5,461.5 0,254.4 207,461.5 461.5,461.5 z m 0,-1484.4 c 564.1,0 1022.9,458.8 1022.9,1022.9 0,564 -458.8,1022.9 -1022.9,1022.9 -466.6,0 -860.4,-314.4 -982.8,-742.2 H 8824.56 v -561.4 h 5469.74 c 122.4,-427.9 516.2,-742.2 982.8,-742.2" />
            </g>
            <g
             transform="scale(1.39962)"
             id="g46"><path
               id="path48"
               style="fill:#F4B429;stroke:#F4B429; stroke-width:200;"
               d="m 15527,7346.28 c -192.3,0 -348.7,156.47 -348.7,348.74 0,192.34 156.4,348.74 348.7,348.74 192.3,0 348.7,-156.4 348.7,-348.74 0,-192.27 -156.4,-348.74 -348.7,-348.74 z m 0,1121.73 c -426.3,0 -773,-346.73 -773,-772.99 0,-138.11 36.9,-267.57 100.6,-379.96 L 12952.9,5779.5 H 6668.53 V 5355.17 H 13102.8 L 15159,7015.4 c 109.4,-59.51 234.8,-93.37 368,-93.37 426.3,0 773,346.73 773,772.99 0,426.26 -346.7,772.99 -773,772.99" />
            </g>
            <g
             transform="scale(1.12047)"
             id="g50"><path
               id="path52"
               style="fill:#F4B429;stroke:#F4B429; stroke-width:200;"
               d="m 12232,15770 c 240.2,0 435.6,-195.4 435.6,-435.7 0,-240.1 -195.4,-435.5 -435.6,-435.5 -240.2,0 -435.7,195.4 -435.7,435.5 0,240.3 195.5,435.7 435.7,435.7 z m 0,-1401.2 c 532.4,0 965.5,433.2 965.5,965.5 0,532.5 -433.1,965.7 -965.5,965.7 -440.5,0 -812.2,-296.8 -927.8,-700.7 H 8329.93 v -530 h 2974.27 c 115.6,-403.8 487.3,-700.5 927.8,-700.5" />
            </g>
            <g
             transform="scale(1.19071)"
             id="g54"><path
               id="path56"
               style="fill:#F4B429;stroke:#F4B429; stroke-width:200;"
               d="m 15391.4,13190.7 c 226.1,0 409.9,-183.9 409.9,-410 0,-226 -183.8,-409.9 -409.9,-409.9 -226,0 -409.9,183.9 -409.9,409.9 0,226.1 183.9,410 409.9,410 z m 0,-1318.6 c 501,0 908.6,407.6 908.6,908.6 0,501.1 -407.6,908.7 -908.6,908.7 -414.5,0 -764.3,-279.3 -873,-659.3 H 7838.55 v -498.7 h 6679.85 c 108.7,-380 458.5,-659.3 873,-659.3" />
            </g>
            <g
             transform="scale(1.86994)"
             id="g58"><path
               id="path60"
               style="fill:#F4B429;stroke:#F4B429; stroke-width:200;"
               d="m 8633.06,10995.9 c -143.74,6.3 -255.56,128.5 -249.2,272.3 3.1,69.6 33.1,133.9 84.55,180.9 48.5,44.5 110.59,68.6 175.94,68.6 3.9,0 7.86,-0.1 11.76,-0.3 69.68,-3.1 133.96,-33.1 181.03,-84.5 47.11,-51.5 71.28,-118.1 68.23,-187.8 -6.31,-143.8 -128.18,-256.3 -272.31,-249.2 z m 333.65,740.8 c -87.22,58.8 -188.83,93.2 -296.58,98 -154.88,6.5 -302.21,-46.9 -416.17,-151.3 -114.01,-104.4 -180.54,-246.8 -187.33,-401.2 -14.07,-318.7 233.75,-589.5 552.42,-603.6 8.77,-0.3 17.49,-0.5 26.15,-0.5 144.93,0 282.53,53.3 390.07,151.8 114.02,104.3 180.54,246.8 187.33,401.2 4.07,91.9 -13.79,181.4 -50.53,262.9 l 3219.63,2454.1 3942.8,-18.8 1.5,317.5 -4050.9,19.4 -3318.39,-2529.5" />
            </g>
            <g
             transform="scale(1.86994)"
             id="g62"><path
               id="path64"
               style="fill:#F4B429;stroke:#F4B429; stroke-width:200;"
               d="m 9927.55,14333.6 c -51.45,-47.1 -118.14,-71.4 -187.71,-68.3 -69.68,3.1 -133.96,33.1 -181.02,84.5 -47.12,51.5 -71.34,118.2 -68.24,187.8 3.05,69.7 33.1,134 84.49,181.1 48.56,44.4 110.65,68.4 175.95,68.4 3.95,0 7.91,0 11.82,-0.3 143.8,-6.3 255.56,-128.5 249.16,-272.2 -3,-69.7 -33.01,-134 -84.45,-181 z m -150.7,770.5 c -154.88,6.5 -302.21,-46.9 -416.17,-151.2 -114.01,-104.3 -180.54,-246.9 -187.38,-401.2 -6.8,-154.5 46.9,-302.2 151.29,-416.3 104.28,-114 246.79,-180.5 401.18,-187.3 8.77,-0.4 17.49,-0.6 26.15,-0.6 144.88,0 282.48,53.4 390.08,151.8 114,104.4 180.5,246.8 187.3,401.3 4.7,106.5 -20.4,207.4 -67,295.4 l 1483.1,1167.8 h 4589.9 v 317.5 h -4699.9 l -1594.1,-1255 c -78.14,45.5 -167.93,73.6 -264.45,77.8" />
            </g>
            <g
             transform="scale(1.86994)"
             id="g66"><path
               id="path68"
               style="fill:#F4B429;stroke:#F4B429; stroke-width:200;"
               d="m 12846.8,12874.6 c -51.5,-47 -118.4,-71.3 -187.8,-68.1 -143.7,6.3 -255.5,128.5 -249.2,272.2 6.4,143.8 127.1,255.7 272.3,249.2 69.7,-3 133.9,-33 181,-84.5 47.1,-51.4 71.3,-118 68.2,-187.7 -3.1,-69.7 -33.1,-133.9 -84.5,-181.1 z m 3487.2,360.9 -3102.7,-26.8 c -60.9,241.2 -274.1,425 -535.2,436.5 -317.8,13.8 -589.4,-233.7 -603.5,-552.5 -14.1,-318.6 233.7,-589.5 552.4,-603.5 8.8,-0.4 17.4,-0.6 26.2,-0.6 144.8,0 282.5,53.4 390,151.8 75.6,69.3 129.8,155.5 160.1,250.6 l 3115.4,27 -2.7,317.5" />
            </g>
            <g
             transform="scale(1.86994)"
             id="g70"><path
               id="path72"
               style="fill:#F4B429;stroke:#F4B429; stroke-width:200;"
               d="m 14064.3,10718.7 c -51.3,-47.1 -117.9,-71.7 -187.7,-68.2 -69.7,3.1 -134,33.1 -181,84.5 -47.1,51.5 -71.3,118.1 -68.3,187.8 6.2,139.9 122,249.5 260.7,249.5 3.8,0 7.7,-0.1 11.7,-0.3 69.6,-3.1 133.9,-33.1 181,-84.5 47,-51.4 71.3,-118.1 68.2,-187.8 -3.1,-69.6 -33.1,-133.9 -84.6,-181 z m 250.6,583.2 c -104.3,114 -246.8,180.6 -401.2,187.4 -154.6,6.4 -302.2,-46.9 -416.3,-151.3 -114,-104.3 -180.5,-246.8 -187.3,-401.2 -6.8,-154.4 46.9,-302.2 151.3,-416.2 104.3,-114 246.8,-180.5 401.2,-187.4 8.7,-0.3 17.4,-0.6 26.1,-0.6 144.9,0 282.5,53.4 390.1,151.9 75.1,68.8 129.2,154.4 159.5,248.8 l 1896.3,-8.5 1.4,317.5 -1886.3,8.5 c -22.9,92.7 -68.6,178.8 -134.8,251.1" />
            </g>
            <g
             transform="scale(1.86994)"
             id="g74"><path
               id="path76"
               style="fill:#F4B429;stroke:#F4B429; stroke-width:200;"
               d="m 11641.9,11876.8 c -51.5,-47.1 -118,-71.3 -187.8,-68.2 -143.8,6.3 -255.6,128.5 -249.2,272.3 3,69.7 33.1,133.9 84.5,181 48.5,44.4 110.6,68.5 175.9,68.5 4,0 7.9,-0.1 11.8,-0.3 69.7,-3.1 134,-33.1 181,-84.5 47.2,-51.4 71.3,-118.1 68.3,-187.8 -3.1,-69.6 -33.1,-133.9 -84.5,-181 z m 250.5,583.2 c -104.4,114 -246.8,180.6 -401.3,187.4 -154.6,6.6 -302.2,-46.9 -416.1,-151.3 -114.1,-104.3 -180.6,-246.8 -187.4,-401.2 -6.8,-154.4 46.9,-302.2 151.3,-416.2 104.2,-114 246.8,-180.5 401.2,-187.4 8.7,-0.3 17.4,-0.5 26.1,-0.5 144.9,0 282.5,53.4 390.1,151.8 75.5,69.1 129.6,155.1 159.9,250 l 4319.8,18.8 -1.3,317.5 -4307.8,-18.7 c -23,92.2 -68.6,177.8 -134.5,249.8" />
            </g>
            <g
             transform="scale(1.95372)"
             id="g78"><path
               id="path80"
               style="fill:#F4B429;stroke:#F4B429; stroke-width:200;"
               d="m 9635.57,15924.6 c 46.43,42.5 105.85,65.5 168.4,65.5 3.73,0 7.52,0 11.26,-0.2 66.69,-2.9 128.22,-31.7 173.26,-80.9 45.11,-49.2 68.31,-113 65.31,-179.7 -6.1,-137.6 -121.67,-244.9 -260.58,-238.5 -66.69,2.9 -128.17,31.6 -173.26,80.9 -45.04,49.2 -68.23,113 -65.31,179.7 2.97,66.6 31.68,128.2 80.92,173.2 z M 9469.22,15300 c 86.71,-66.1 193.53,-107.7 310.54,-112.9 8.29,-0.3 16.53,-0.5 24.77,-0.5 294.17,0 539.77,232.5 552.97,529.3 6.5,147.8 -44.9,289.2 -144.8,398.4 -99.8,109.1 -236.24,172.7 -384.01,179.3 -148.13,6.4 -289.24,-44.9 -398.37,-144.8 -109.07,-99.9 -172.74,-236.2 -179.3,-384 -3.43,-78 9.68,-152.8 35.93,-221.5 l -2435.4,-1794.8 h -2074.3 v -303.9 H 6951.46 L 9469.22,15300"/>
            </g>
          </g>
        </g>
        <g
         transform="scale(2.12368)"
         id="g22">
         <path
           id="path24"
           style="fill:#004379; stroke:#004379; stroke-width:400;"
           d="m 9311.91,16015.7 c -2655.2,0 -4815.39,-2195.7 -4815.39,-4894.6 0,-59.6 1.09,-120.4 3.23,-180.5 l 4.92,-137.5 -137.26,-9.5 c -67.3,-4.6 -132.31,-16.8 -193.2,-36.5 -631.54,-203.3 -897.9,-1137.32 -593.7,-2081.96 200.59,-622.93 615.18,-1124.65 1081.95,-1309.43 l 68.01,-26.93 17.62,-70.96 C 5409.67,4607.2 7243.71,2819.59 9311.91,2819.59 c 2044.99,0 3872.29,1761.38 4547.09,4382.96 l 22.7,88.11 89.5,16.33 c 535.6,97.62 1051.5,647.42 1283.6,1368.15 304.2,944.64 37.8,1878.66 -593.8,2081.96 -118.2,38.1 -244.5,48.1 -375.4,29.7 l -168.2,-23.7 6.3,169.7 c 2.4,63.4 3.6,126.8 3.6,188.3 0,2698.9 -2160.2,4894.6 -4815.39,4894.6 z m 0,-13480.43 c -1098.23,0 -2143.92,458.5 -3023.95,1326 -839.67,827.62 -1460.58,1956.8 -1798.37,3269.1 -515.29,234.36 -963.25,785.38 -1179.73,1457.61 -167.78,521.03 -184.3,1058.26 -46.53,1512.72 143.42,473 435.96,802.2 823.76,927.1 40.71,13.1 82.64,23.8 125.46,32 -0.24,20.5 -0.36,41 -0.36,61.3 0,1382.9 530.2,2683.2 1492.87,3661.2 963.33,978.7 2244.26,1517.7 3606.85,1517.7 1362.59,0 2643.49,-539 3606.79,-1517.7 962.7,-978 1492.9,-2278.3 1492.9,-3661.2 0,-13.6 0,-27.3 -0.1,-41 0.2,0 0.3,0 0.5,0 115.5,0 228,-17.5 336.2,-52.3 v 0 c 387.8,-124.9 680.3,-454.1 823.7,-927.1 137.8,-454.46 121.3,-991.69 -46.5,-1512.72 -255,-791.69 -803.2,-1385.43 -1413.3,-1541.05 C 13386.7,4344.54 11466.2,2535.27 9311.91,2535.27" />
        </g><!-- Contorno de la cabeza-->
      </g>
    </g>
</svg>