<?xml version="1.0" encoding="utf-8"?>
<!-- Generator: Adobe Illustrator 27.5.0, SVG Export Plug-In . SVG Version: 6.00 Build 0)  -->
<svg version="1.1" id="Layer_1" xmlns="http://www.w3.org/2000/svg" xmlns:xlink="http://www.w3.org/1999/xlink" x="0px" y="0px"
	 viewBox="0 0 3873 3873" style="enable-background:new 0 0 3873 3873;" xml:space="preserve">
<g id="Layer_1_00000083066264682702091860000017806647517534166461_">
	<g>
		<path style="fill:#004379; stroke:#004379; stroke-width:8;" d="M3440.8,1846H2604H1494.1c-58.3,0-105.5,47.2-105.5,105.5v126.7v132.2
			h2157.7v-259C3546.3,1893.2,3499.1,1846,3440.8,1846L3440.8,1846z M2881.1,1934.9l56.7,159.8c4.7,11.8,2.4,26-4.7,36.2
			c-7.1,10.2-19.7,16.5-32.3,16.5h-232.2c-12.6,0-25.2-6.3-32.3-16.5s-9.4-24.4-4.7-36.2l56.7-159.8c5.5-15.7,20.5-26.8,37.8-26.8
			H2845C2859.9,1908.9,2874.8,1919.2,2881.1,1934.9L2881.1,1934.9z M2500.9,1934.9l56.7,159.8c3.9,11.8,2.4,26-4.7,36.2
			c-7.1,10.2-19.7,16.5-32.3,16.5h-232.2c-12.6,0-25.2-6.3-32.3-16.5s-9.4-24.4-4.7-36.2l56.7-159.8c5.5-15.7,20.5-26.8,37.8-26.8
			h118.9C2479.7,1908.9,2494.6,1919.2,2500.9,1934.9L2500.9,1934.9z M2120.7,1934.9l56.7,159.8c4.7,11.8,2.4,26-4.7,36.2
			c-7.1,10.2-19.7,16.5-32.3,16.5h-232.2c-12.6,0-25.2-6.3-32.3-16.5c-7.1-10.2-9.4-24.4-4.7-36.2l56.7-159.8
			c5.5-15.7,20.5-26.8,37.8-26.8h118.9C2099.4,1908.9,2114.4,1919.2,2120.7,1934.9L2120.7,1934.9z M1740.5,1934.9l56.7,159.8
			c3.9,11.8,2.4,26-4.7,36.2s-19.7,16.5-32.3,16.5h-233c-12.6,0-25.2-6.3-32.3-16.5c-7.1-10.2-9.4-24.4-4.7-36.2l56.7-159.8
			c5.5-15.7,20.5-26.8,37.8-26.8h118.9C1719.2,1908.9,1734.2,1919.2,1740.5,1934.9z"/>
		<path style="fill:#004379; stroke:#004379; stroke-width:8;" d="M3546.3,2289.9H1388.6v1203.6c0,58.3,47.2,105.5,105.5,105.5h1947.5
			c58.3,0,105.5-47.2,105.5-105.5L3546.3,2289.9L3546.3,2289.9z M2844.1,2589.9l388.1,275.5c10.2,7.1,16.5,19.7,16.5,32.3
			s-6.3,25.2-16.5,32.3l-388.1,275.5c-7.1,4.7-15,7.1-22.8,7.1c-12.6,0-24.4-5.5-32.3-16.5c-12.6-18.1-8.7-42.5,9.4-55.1
			l342.4-243.2l-342.4-243.2c-18.1-12.6-22-37.8-9.4-55.1C2800.8,2581.2,2826,2577.3,2844.1,2589.9L2844.1,2589.9z M2399.4,2608
			l210.2,551c7.9,20.5-2.4,43.3-22.8,51.2c-4.7,1.6-9.4,2.4-14.2,2.4c-15.7,0-30.7-9.4-37-26l-210.2-551.8
			c-7.9-20.5,2.4-43.3,22.8-51.2C2368.7,2577.3,2391.5,2587.5,2399.4,2608L2399.4,2608z M2136.4,3140.9c18.1,12.6,22,37.8,9.4,55.1
			c-7.9,11-19.7,16.5-32.3,16.5c-7.9,0-15.7-2.4-22.8-7.1l-388.1-275.5c-10.2-7.1-16.5-19.7-16.5-32.3s6.3-25.2,16.5-32.3
			l388.1-275.5c18.1-12.6,42.5-8.7,55.1,9.4c12.6,18.1,8.7,42.5-9.4,55.1L1794,2897.7L2136.4,3140.9z"/>
		<polygon style="fill:#F4B429; stroke:#F4B429; stroke-width:8;" points="2752.8,1988.4 2723.7,2068.7 2843.3,2068.7 2815,1988.4 		"/>
		<polygon style="fill:#F4B429; stroke:#F4B429; stroke-width:8;" points="2372.6,1988.4 2344.3,2068.7 2463.1,2068.7 2434.8,1988.4 		"/>
		<polygon style="fill:#F4B429; stroke:#F4B429; stroke-width:8;" points="1992.4,1988.4 1963.3,2068.7 2082.9,2068.7 2054.6,1988.4 		"/>
		<polygon style="fill:#F4B429; stroke:#F4B429; stroke-width:8;" points="1674.4,1988.4 1612.2,1988.4 1583.8,2068.7 1702.7,2068.7 		"/>
		<path style="fill:#004379; stroke:#004379; stroke-width:8;" d="M1416.9,1047l210.2,551.8c7.9,20.5-2.4,43.3-22.8,51.2
			c-4.7,1.6-9.4,2.4-14.2,2.4c-15.7,0-30.7-9.4-37-26l-210.2-551.8c-7.9-20.5,2.4-43.3,22.8-51.2
			C1386.2,1016.3,1409.1,1026.5,1416.9,1047L1416.9,1047z M1154.8,1093.4l-342.4,243.2l342.4,243.2c18.1,12.6,22,37.8,9.4,55.1
			c-7.9,11-19.7,16.5-32.3,16.5c-7.9,0-15.7-2.4-22.8-7.1L721,1368.8c-10.2-7.1-16.5-19.7-16.5-32.3s6.3-25.2,16.5-32.3l388.1-275.5
			c18.1-12.6,42.5-8.7,55.1,9.4C1176.9,1056.4,1172.9,1080.8,1154.8,1093.4L1154.8,1093.4z M406.2,729.7v1203.6
			c0,58.3,47.2,105.5,105.5,105.5h797.4v-87.4c0-101.5,82.7-185,185-185h1070.6V729.7H406.2L406.2,729.7z M1838.9,1652.3
			c-12.6,0-24.4-5.5-32.3-16.5c-12.6-18.1-8.7-42.5,9.4-55.1l342.4-243.2L1816,1094.3c-18.1-12.6-22-37.8-9.4-55.1
			c12.6-18.1,37.8-22,55.1-9.4l388.1,275.5c10.2,7.1,16.5,19.7,16.5,32.3s-6.3,25.2-16.5,32.3l-388.1,275.5
			C1854.6,1650,1846.8,1652.3,1838.9,1652.3z"/>
		<polygon style="fill:#F4B429; stroke:#F4B429; stroke-width:8;" points="1770.4,427.4 1742.1,507.7 1861.7,507.7 1833.4,427.4 		"/>
		<polygon style="fill:#F4B429; stroke:#F4B429; stroke-width:8;" points="1390.2,427.4 1361.8,507.7 1481.5,507.7 1453.2,427.4 		"/>
		<polygon style="fill:#F4B429; stroke:#F4B429; stroke-width:8;" points="1010,427.4 981.6,507.7 1101.3,507.7 1072.9,427.4 		"/>
		<polygon style="fill:#F4B429; stroke:#F4B429; stroke-width:8;" points="629.8,427.4 601.4,507.7 721.1,507.7 692.7,427.4 		"/>
		<path style="fill:#004379; stroke:#004379; stroke-width:8;" d="M1898.7,374.7l56.7,159.8c4.7,11.8,2.4,26-4.7,36.2s-19.7,16.5-32.3,16.5
			h-232.2c-12.6,0-25.2-6.3-32.3-16.5c-7.1-10.2-9.4-24.4-4.7-36.2l56.7-159.8c5.5-15.7,20.5-26.8,37.8-26.8h118.9
			C1878.2,347.9,1893.2,359,1898.7,374.7L1898.7,374.7z M1518.5,374.7l56.7,159.8c3.9,11.8,2.4,26-4.7,36.2s-19.7,16.5-32.3,16.5
			H1306c-12.6,0-25.2-6.3-32.3-16.5c-7.1-10.2-9.4-24.4-4.7-36.2l56.7-159.8c5.5-15.7,20.5-26.8,37.8-26.8h118.9
			C1498,347.9,1513,359,1518.5,374.7L1518.5,374.7z M1138.3,374.7l56.7,159.8c4.7,11.8,2.4,26-4.7,36.2s-19.7,16.5-32.3,16.5H925.7
			c-12.6,0-25.2-6.3-32.3-16.5s-9.4-24.4-4.7-36.2l56.7-159.8c5.5-15.7,20.5-26.8,37.8-26.8h118.9
			C1117.8,347.9,1132.8,359,1138.3,374.7L1138.3,374.7z M758.1,374.7l56.7,159.8c3.9,11.8,2.4,26-4.7,36.2
			c-7.1,10.2-19.7,16.5-32.3,16.5H545.5c-12.6,0-25.2-6.3-32.3-16.5c-7.1-10.2-9.4-24.4-4.7-36.2l56.7-159.8
			c5.5-15.7,20.5-26.8,37.8-26.8h118.9C737.6,347.9,752.6,359,758.1,374.7L758.1,374.7z M406.2,390.4v259h2157.7v-259
			c0-58.3-47.2-105.5-105.5-105.5H511.7C453.4,285.8,406.2,333,406.2,390.4z"/>
	</g>
</g>
<g id="Master_Layer_3">
</g>
</svg>
