<?xml version="1.0" encoding="utf-8"?>
<!-- Generator: Adobe Illustrator 27.5.0, SVG Export Plug-In . SVG Version: 6.00 Build 0)  -->
<svg version="1.1" id="Layer_1" xmlns="http://www.w3.org/2000/svg" xmlns:xlink="http://www.w3.org/1999/xlink" x="0px" y="0px"
	 viewBox="0 0 492 492" style="enable-background:new 0 0 492 492;" xml:space="preserve">
<linearGradient id="SVGID_1_" gradientUnits="userSpaceOnUse" x1="86.5393" y1="128.0053" x2="405.9832" y2="447.4492">
	<stop  offset="0" style="stop-color:#00DBDE"/>
	<stop  offset="1" style="stop-color:#FC00FF"/>
</linearGradient>
<path style="fill:#004379; stroke:#004379; stroke-width:8;" d="M468.013,245.535c-0.002-0.072-0.006-0.144-0.011-0.215c-0.011-0.178-0.03-0.354-0.057-0.527
	c-0.008-0.055-0.015-0.109-0.025-0.164c-0.088-0.474-0.234-0.926-0.431-1.352c-0.02-0.043-0.041-0.085-0.061-0.128
	c-0.099-0.202-0.208-0.398-0.329-0.586c-0.007-0.011-0.011-0.022-0.018-0.033l-0.021-0.032c-0.012-0.019-0.024-0.038-0.037-0.056
	L366.43,88.63c-1.06-1.63-2.88-2.61-4.82-2.61h-63.17c-11.51,0-20.88,9.36-20.88,20.88v3.72c0,11.51,9.36,20.88,20.88,20.88h44.59
	l68.952,108.42H148.838c-0.066-0.002-0.131-0.01-0.198-0.01H80.545L149.49,131.5h44.59c11.51,0,20.88-9.36,20.88-20.88v-3.72
	c0-11.51-9.36-20.88-20.88-20.88h-63.17c-1.94,0-3.76,0.98-4.82,2.61L25.55,242.362c-0.187,0.265-0.349,0.547-0.489,0.842
	c-0.003,0.007-0.007,0.014-0.01,0.021c-0.206,0.438-0.36,0.903-0.45,1.393c-0.013,0.068-0.021,0.136-0.031,0.204
	c-0.022,0.147-0.039,0.296-0.049,0.447c-0.008,0.104-0.014,0.207-0.016,0.311c0,0.03-0.005,0.06-0.005,0.09v0.01v65.07v59.11
	c0,20.73,16.87,37.6,37.6,37.6h151.21c1.8,0,3.5-0.85,4.59-2.28l28.36-37.36l28.36,37.36c1.09,1.44,2.79,2.28,4.59,2.28h151.21
	c20.73,0,37.6-16.86,37.6-37.59V245.68C468.02,245.631,468.014,245.584,468.013,245.535z M36.02,304.99v-53.55h30.96v53.55H36.02z
	 M78.5,251.44h64.38v53.55H78.5V251.44z M154.4,251.44h268.07h34.02v21.01H154.4V251.44z M351.06,122.64
	c-1.06-1.66-2.89-2.67-4.86-2.67h-47.75c-5.16,0-9.36-4.2-9.36-9.36v-3.72c0-5.16,4.2-9.36,9.36-9.36h60.05l93.11,142.39h-25.97
	L351.06,122.64z M134.02,97.54h60.05c5.16,0,9.36,4.2,9.36,9.36v3.72c0,5.16-4.2,9.36-9.36,9.36h-47.75c-1.97,0-3.8,1.01-4.86,2.67
	L66.886,239.91h-25.97L134.02,97.54z M430.41,395.95H282.06l-31.21-41.12c-1.09-1.44-2.79-2.28-4.59-2.28c-1.8,0-3.5,0.85-4.59,2.28
	l-31.22,41.12H62.1c-14.38,0-26.08-11.7-26.08-26.08v-53.36h112.62c3.18,0,5.76-2.58,5.76-5.76v-26.78h302.09v85.9
	C456.49,384.25,444.79,395.95,430.41,395.95z"/>
	<path style="fill:#F4B429; stroke:none; stroke-width:8;" d="M110.69,256.25c-12.11,0-21.96,9.85-21.96,21.96c0,12.11,9.85,21.96,21.96,21.96
	c12.1,0,21.96-9.85,21.96-21.96C132.65,266.1,122.8,256.25,110.69,256.25z M110.69,288.65c-5.76,0-10.44-4.68-10.44-10.44
	c0-5.76,4.68-10.44,10.44-10.44c5.75,0,10.44,4.68,10.44,10.44C121.13,283.97,116.45,288.65,110.69,288.65z"/>
</svg>
