<?xml version="1.0" encoding="UTF-8" standalone="no"?>
<!-- Created with Inkscape (http://www.inkscape.org/) -->

<svg
   version="1.1"
   id="svg1128"
   xml:space="preserve"
   width="682.66669"
   height="682.66669"
   viewBox="0 0 682.66669 682.66669"
   xmlns="http://www.w3.org/2000/svg"
   xmlns:svg="http://www.w3.org/2000/svg"><defs
     id="defs1132"><clipPath
       clipPathUnits="userSpaceOnUse"
       id="clipPath1142"><path
         d="M 0,512 H 512 V 0 H 0 Z"
         id="path1140" /></clipPath></defs><g
     id="g1134"
     transform="matrix(1.3333333,0,0,-1.3333333,0,682.66667)"><g
       id="g1136"><g
         id="g1138"
         clip-path="url(#clipPath1142)"><g
           id="g1144"
           transform="translate(166,467)"><path
             d="M 0,0 H -90 V -452 H 270 V 0 h -90"
             style="fill:none;stroke:#004379;stroke-width:30;stroke-linecap:round;stroke-linejoin:round;stroke-miterlimit:10;stroke-dasharray:none;stroke-opacity:1"
             id="path1146" /></g><g
           id="g1148"
           transform="translate(196,346)"><path
             d="m 0,0 c 0,-16.569 -13.432,-30 -30,-30 -16.568,0 -30,13.431 -30,30 0,16.569 13.432,30 30,30 C -13.432,30 0,16.569 0,0 Z"
             style="fill:none;stroke:#F4B429;stroke-width:30;stroke-linecap:round;stroke-linejoin:round;stroke-miterlimit:10;stroke-dasharray:none;stroke-opacity:1"
             id="path1150" /></g><g
           id="g1152"
           transform="translate(196,106)"><path
             d="m 0,0 c 0,-16.568 -13.432,-30 -30,-30 -16.568,0 -30,13.432 -30,30 0,16.568 13.432,30 30,30 C -13.432,30 0,16.568 0,0 Z"
             style="fill:none;stroke:#F4B429;stroke-width:30;stroke-linecap:round;stroke-linejoin:round;stroke-miterlimit:10;stroke-dasharray:none;stroke-opacity:1"
             id="path1154" /></g><g
           id="g1156"
           transform="translate(256,346)"><path
             d="M 0,0 H 120"
             style="fill:none;stroke:#F4B429;stroke-width:30;stroke-linecap:round;stroke-linejoin:round;stroke-miterlimit:10;stroke-dasharray:none;stroke-opacity:1"
             id="path1158" /></g><g
           id="g1160"
           transform="translate(256,226)"><path
             d="M 0,0 H 120"
             style="fill:none;stroke:#F4B429;stroke-width:30;stroke-linecap:round;stroke-linejoin:round;stroke-miterlimit:10;stroke-dasharray:none;stroke-opacity:1"
             id="path1162" /></g><g
           id="g1164"
           transform="translate(256,106)"><path
             d="M 0,0 H 120"
             style="fill:none;stroke:#F4B429;stroke-width:30;stroke-linecap:round;stroke-linejoin:round;stroke-miterlimit:10;stroke-dasharray:none;stroke-opacity:1"
             id="path1166" /></g><path
           d="M 346,437 H 166 v 60 h 180 z"
           style="fill:none;stroke:#004379;stroke-width:30;stroke-linecap:round;stroke-linejoin:round;stroke-miterlimit:10;stroke-dasharray:none;stroke-opacity:1"
           id="path1168" /><g
           id="g1170"
           transform="translate(136,226)"><path
             d="M 0,0 30,-30 63,22.5"
             style="fill:none;stroke:#F4B429;stroke-width:30;stroke-linecap:round;stroke-linejoin:round;stroke-miterlimit:10;stroke-dasharray:none;stroke-opacity:1"
             id="path1172" /></g></g></g></g></svg>
