<?xml version="1.0" encoding="utf-8"?>
<!-- Generator: Adobe Illustrator 27.5.0, SVG Export Plug-In . SVG Version: 6.00 Build 0)  -->
<svg version="1.1" xmlns="http://www.w3.org/2000/svg" xmlns:xlink="http://www.w3.org/1999/xlink" x="0px" y="0px"
	 viewBox="0 0 3000 3000" style="enable-background:new 0 0 3000 3000;" xml:space="preserve">
<g id="Layer_3">
</g>
<g id="Layer_1">
	<g>
		<g>
			<path style="fill:#004379; stroke:#004379; stroke-width:40;" d="M1890.965,1981.358l-1.104-0.105c-3.215-0.308-6.438-0.688-9.28-1.022l-2.339-0.284
				c-8.414-1.028-16.362-1.999-24.341-2.009c-104.626-0.118-217.082-0.204-353.903-0.269c-136.815,0.064-249.271,0.15-353.898,0.269
				c-7.979,0.01-15.927,0.98-24.342,2.009l-2.315,0.282c-2.864,0.337-6.085,0.717-9.303,1.024l-1.104,0.105l-1.076-0.267
				c-34.69-8.583-50.785-31.632-50.65-72.537c0.501-149.863,0.441-302.242,0.383-449.603c-0.016-40.7-0.032-81.399-0.037-122.099
				c0-7.513-0.286-15.212-0.563-22.658c-0.135-3.628-0.27-7.257-0.374-10.885l-0.003-0.154l-0.873-170.546l0.004-0.131
				c0.124-3.497,0.281-6.995,0.438-10.493c0.335-7.435,0.681-15.122,0.666-22.603c-0.118-60.756,24.515-87.197,85.023-91.264
				c3.192-0.213,6.391-0.666,9.778-1.145c1.633-0.231,3.265-0.462,4.899-0.666l0.403-0.05h0.406l342.542,0.123l342.943-0.123
				l0.403,0.05c1.633,0.204,3.266,0.435,4.898,0.666c3.387,0.479,6.586,0.932,9.774,1.145c60.513,4.067,85.146,30.508,85.027,91.264
				c-0.015,7.481,0.331,15.168,0.665,22.603c0.158,3.499,0.315,6.997,0.438,10.493l0.005,0.131l-0.001,0.131l-0.876,170.57
				c-0.104,3.628-0.239,7.257-0.374,10.885c-0.276,7.445-0.563,15.145-0.563,22.657c-0.005,40.7-0.021,81.4-0.037,122.1
				c-0.058,147.361-0.118,299.74,0.384,449.603c0.136,40.905-15.959,63.954-50.649,72.537L1890.965,1981.358z M1499.997,1964.669
				c136.831,0.064,249.289,0.15,353.919,0.269c8.762,0.011,17.476,1.075,25.901,2.104l2.305,0.28c2.423,0.286,5.148,0.606,7.86,0.88
				c27.932-7.277,39.822-25.17,39.708-59.604c-0.502-149.887-0.441-302.278-0.384-449.651c0.017-40.698,0.032-81.396,0.037-122.095
				c0-7.752,0.29-15.574,0.571-23.139c0.133-3.568,0.266-7.136,0.369-10.704l0.871-170.201c-0.121-3.412-0.274-6.825-0.428-10.238
				c-0.342-7.584-0.694-15.427-0.679-23.213c0.105-54.162-18.97-74.643-72.896-78.267c-3.665-0.245-7.255-0.753-10.728-1.244
				c-1.431-0.203-2.861-0.405-4.292-0.588l-342.131,0.123l-342.137-0.123c-1.431,0.183-2.861,0.385-4.292,0.588
				c-3.472,0.491-7.062,0.999-10.73,1.244c-53.922,3.623-72.998,24.105-72.892,78.267c0.016,7.786-0.337,15.628-0.679,23.213
				c-0.153,3.414-0.307,6.826-0.428,10.238l0.872,170.206c0.104,3.566,0.236,7.133,0.368,10.699
				c0.281,7.564,0.572,15.386,0.572,23.14c0.005,40.698,0.021,81.396,0.037,122.094c0.058,147.373,0.118,299.765-0.383,449.651
				c-0.113,34.435,11.777,52.327,39.708,59.604c2.714-0.273,5.442-0.595,7.883-0.882l2.28-0.278
				c8.427-1.029,17.141-2.094,25.903-2.104C1250.714,1964.819,1363.173,1964.733,1499.997,1964.669z M1739.51,1513.376
				l-19.485-0.008c-73.345-0.031-146.682-0.063-220.028-0.104c-73.339,0.041-146.676,0.073-220.021,0.104l-19.485,0.008
				l-1.149-0.452c-42.613-16.783-59.431-40.261-59.987-83.739c-0.625-49.99-0.952-103.784-1.029-169.293
				c-0.075-48.094,34.156-84.631,79.625-84.986c70.884-0.547,143.519-0.767,222.058-0.672c78.519-0.095,151.158,0.125,222.042,0.672
				c45.469,0.355,79.7,36.892,79.626,84.988c-0.078,65.566-0.405,119.36-1.029,169.29v0.002
				c-0.557,43.478-17.375,66.957-59.987,83.739L1739.51,1513.376z M1499.996,1500.264c73.354,0.042,146.689,0.073,220.034,0.104
				l17.004,0.007c36.855-14.786,50.13-33.582,50.613-71.356l-0.001,0.001c0.624-49.879,0.951-103.626,1.029-169.145
				c0.063-40.733-28.624-71.673-66.727-71.971c-70.844-0.546-143.441-0.766-221.941-0.671
				c-78.514-0.095-151.113,0.125-221.957,0.671c-38.104,0.297-66.79,31.237-66.726,71.968c0.078,65.462,0.404,119.209,1.028,169.147
				c0.482,37.773,13.757,56.568,50.613,71.354l17.004-0.007C1353.314,1500.336,1426.65,1500.305,1499.996,1500.264z"/>
		</g>
		<g>
			<path style="fill:#004379; stroke:#004379; stroke-width:40;" d="M1849.306,1002.78l-7.81-1.613c-2.682-0.554-5.319-1.249-7.871-1.921
				c-5.137-1.354-9.988-2.632-14.554-2.632c-92.72-0.039-194.103-0.013-319.066,0.079c-124.976-0.092-226.361-0.119-319.073-0.079
				c-4.568,0-9.42,1.278-14.557,2.632c-2.551,0.672-5.189,1.368-7.871,1.921l-7.81,1.613l-0.005-7.975
				c-0.02-31.547-0.234-63.636-0.44-94.67c-0.49-73.571-0.997-149.647,1.036-224.458c0.905-33.36,18.195-66.166,48.685-92.374
				c29.217-25.114,67.729-41.061,105.663-43.751c8.188-0.577,16.501-1.082,24.54-1.57c4.061-0.247,8.121-0.493,12.182-0.75
				l0.395-0.013c52.412-0.123,104.824-0.257,157.235-0.392c52.445,0.134,104.856,0.269,157.27,0.392l0.394,0.013
				c4.061,0.256,8.12,0.503,12.18,0.75c8.039,0.488,16.353,0.993,24.539,1.57c37.936,2.69,76.448,18.636,105.665,43.751
				c30.489,26.207,47.779,59.014,48.686,92.374c2.032,74.811,1.525,150.886,1.035,224.456c-0.207,31.034-0.421,63.125-0.44,94.672
				L1849.306,1002.78z M1732.524,983.597c29.908,0,58.622,0.006,86.55,0.018c6.021,0,11.727,1.446,17.246,2.898
				c0.048-28.9,0.242-58.125,0.431-86.466c0.49-73.462,0.996-149.426-1.031-224.017c-0.805-29.65-16.488-59.081-44.163-82.869
				c-27.144-23.332-62.902-38.145-98.108-40.641c-8.12-0.573-16.401-1.076-24.41-1.562c-4.004-0.243-8.009-0.486-12.013-0.739
				c-52.347-0.123-104.696-0.257-157.042-0.391c-52.312,0.134-104.662,0.268-157.008,0.391c-4.005,0.253-8.011,0.496-12.016,0.739
				c-8.008,0.486-16.288,0.989-24.411,1.562c-35.203,2.496-70.962,17.309-98.105,40.641c-27.675,23.789-43.359,53.218-44.164,82.868
				c-2.026,74.592-1.521,150.557-1.031,224.02c0.189,28.34,0.384,57.563,0.432,86.463c5.519-1.452,11.224-2.898,17.249-2.898
				c92.717-0.039,194.106-0.014,319.076,0.079C1587.326,983.628,1663.139,983.597,1732.524,983.597z"/>
		</g>
		<g>
			<path style="fill:#004379; stroke:#004379; stroke-width:40;" d="M1003.247,1894.044l-9.023-2.663c-1.752-0.518-3.496-1.034-5.239-1.559l-232.824-0.212
				c-1.99,0.149-3.989,0.3-5.989,0.46l-7.026,0.561l0.009-7.048c0.047-37.968,0.09-75.935,0.133-113.902
				c0.119-105.119,0.242-213.816,0.449-320.727c0.016-9.257,0.491-18.588,0.952-27.612c0.21-4.135,0.429-8.412,0.598-12.599
				l0.272-6.739l6.725,0.521c8.548,0.662,17.213,1.464,25.593,2.241c18.235,1.689,37.091,3.437,55.541,3.793
				c17.844,0.353,36.687,0.541,59.305,0.592c17.486,0.041,35.277,0.001,52.481-0.039c15.228-0.035,30.975-0.073,46.464-0.05
				l6.215,0.008l0.27,6.21c0.307,7.055,0.703,14.247,1.086,21.201c0.835,15.152,1.698,30.82,1.706,46.324
				c0.06,73.945-0.047,149.121-0.15,221.821c-0.071,50.174-0.145,102.055-0.163,153.08c-0.007,5.981,0.556,11.937,1.152,18.241
				c0.269,2.847,0.547,5.79,0.766,8.716L1003.247,1894.044z M756.164,1876.61l232.643,0.212c-0.588-6.223-1.185-12.65-1.177-19.126
				c0.018-51.027,0.092-102.912,0.163-153.089c0.103-72.693,0.21-147.861,0.15-221.794c-0.008-15.151-0.861-30.639-1.687-45.617
				c-0.273-4.967-0.554-10.054-0.804-15.14c-13.455-0.003-27.032,0.025-40.221,0.056c-17.22,0.04-35.023,0.08-52.541,0.039
				c-22.694-0.051-41.609-0.24-59.528-0.594c-18.921-0.366-38.018-2.135-56.486-3.846c-6.141-0.569-12.436-1.152-18.706-1.682
				c-0.098,2.01-0.2,4.008-0.3,5.975c-0.452,8.866-0.919,18.034-0.935,26.974c-0.206,106.906-0.33,215.601-0.449,320.717
				C756.247,1805.334,756.207,1840.972,756.164,1876.61z"/>
		</g>
		<g>
			<path style="fill:#004379; stroke:#004379; stroke-width:40;" d="M1808.414,2113.34l-0.185-0.007c-8.92-0.293-33.203-0.455-68.375-0.455
				c-25.115,0-48.662,0.088-51.675,0.145l-0.154,0.001c-24-0.12-47.998-0.248-71.995-0.376
				c-38.688-0.207-77.374-0.414-116.059-0.586c-38.627,0.172-77.313,0.379-116,0.586c-23.998,0.128-47.996,0.256-71.996,0.376
				l-0.155-0.001c-3.013-0.057-26.56-0.145-51.674-0.145c-35.172,0-59.455,0.162-68.375,0.455l-0.185,0.007l-0.185-0.005
				c-3.406-0.082-6.913-0.093-10.303-0.104c-7.781-0.025-15.827-0.051-23.816-0.905c-34.138-3.641-54.282-24.817-55.265-58.101
				c-0.542-18.541-0.04-37.332,0.446-55.505c0.211-7.887,0.429-16.041,0.558-24.043l0.093-5.813l5.787-0.554
				c3.076-0.294,6.222-0.664,8.999-0.991l2.28-0.278c8.427-1.029,17.141-2.094,25.903-2.104
				c109.915-0.125,225.681-0.209,353.914-0.258c128.239,0.049,244.004,0.133,353.918,0.258c8.762,0.011,17.476,1.075,25.901,2.104
				l2.305,0.28c2.755,0.325,5.902,0.695,8.977,0.989l5.786,0.554l0.094,5.813c0.129,8.004,0.347,16.161,0.559,24.049
				c0.486,18.171,0.989,36.96,0.446,55.497v0.002c-0.983,33.283-21.127,54.46-55.267,58.102c-7.988,0.854-16.033,0.879-23.814,0.904
				c-3.391,0.011-6.897,0.021-10.303,0.104L1808.414,2113.34z M1115.913,1980.64c-0.127,6.185-0.293,12.386-0.455,18.429
				c-0.481,17.994-0.979,36.6-0.448,54.774c0.793,26.843,15.887,42.597,43.651,45.557c7.323,0.783,14.684,0.807,22.478,0.832
				c3.397,0.011,6.908,0.022,10.389,0.103c11.763-0.377,43.769-0.456,68.618-0.456c24.983,0,48.479,0.088,51.842,0.146
				c23.972-0.12,47.944-0.248,71.914-0.376c38.691-0.207,77.381-0.413,116.07-0.586c38.748,0.173,77.436,0.379,116.128,0.586
				c23.969,0.128,47.94,0.256,71.913,0.376c3.361-0.058,26.858-0.146,51.842-0.146c24.849,0,56.854,0.079,68.617,0.456
				c3.481-0.08,6.991-0.092,10.389-0.103c7.794-0.025,15.154-0.049,22.476-0.831c27.766-2.961,42.86-18.715,43.653-45.559
				c0.532-18.172,0.034-36.775-0.447-54.767c-0.162-6.046-0.328-12.249-0.456-18.436c-1.212-0.139-2.389-0.277-3.507-0.409
				l-2.338-0.284c-8.414-1.028-16.362-1.999-24.341-2.009c-109.91-0.125-225.673-0.209-353.903-0.258
				c-128.225,0.049-243.988,0.133-353.899,0.258c-7.979,0.01-15.927,0.98-24.342,2.009l-2.315,0.282
				C1118.314,1980.361,1117.13,1980.501,1115.913,1980.64z"/>
		</g>
		<g>
			<path style="fill:#004379; stroke:#004379; stroke-width:40;" d="M990.394,1336.441l-0.625-0.047c-3.596-0.272-7.224-0.609-10.731-0.936
				c-1.544-0.144-3.089-0.288-4.633-0.426c-2.798-0.251-6.118-0.535-9.518-0.74c-2.904-0.175-5.526-0.274-8.015-0.303
				c-51.891-0.591-104.658-1.022-155.688-1.438c-17.217-0.141-34.434-0.281-51.65-0.428l-4.915-0.042l-1.299-4.74
				c-1.827-6.668-4.038-13.495-6.175-20.097c-4.925-15.21-10.018-30.938-11.32-47.097c-2.367-29.362-1.81-59.294-1.271-88.241
				c0.139-7.475,0.283-15.204,0.373-22.786c0.211-17.69,6.582-35.526,17.477-48.935c11.747-14.457,27.701-22.822,44.924-23.555
				c58.971-2.509,122.368-2.352,199.517,0.495c24.611,0.908,42.997,19.348,47.982,48.123l0.103,0.591l-0.037,2.861l-2.269,178.613
				l-33.526,28.104L990.394,1336.441z M754.511,1319.165c15.594,0.132,31.187,0.259,46.78,0.387
				c51.04,0.417,103.817,0.847,155.73,1.439c2.702,0.031,5.531,0.137,8.649,0.325c3.588,0.217,7.173,0.524,9.896,0.769
				c1.559,0.14,3.117,0.285,4.676,0.43c3.247,0.302,6.599,0.614,9.885,0.869l3.595-0.422l25.979-21.777l2.214-174.295
				c-4.059-22.367-17.316-36.099-35.549-36.772c-76.796-2.833-139.866-2.991-198.484-0.498
				c-30.431,1.295-49.624,31.975-49.955,59.657c-0.091,7.625-0.235,15.376-0.375,22.872c-0.533,28.63-1.084,58.235,1.232,86.955
				c1.181,14.645,5.819,28.97,10.73,44.137C751.201,1308.448,752.932,1313.794,754.511,1319.165z"/>
		</g>
		<g>
			<path style="fill:#004379; stroke:#004379; stroke-width:40;" d="M1207.573,2625.966c-39.62,0-79.264-0.067-118.82-0.203c-35.014-0.119-55.293-20.713-55.637-56.5
				c-0.235-24.383,0.183-49.137,0.586-73.076c0.176-10.416,0.357-21.186,0.482-31.771l0.076-6.404l438.136-1.252l0.019,6.463
				l6.5-0.038c0.117,10.73,0.416,21.679,0.704,32.267c0.676,24.771,1.374,50.384-0.17,75.583
				c-0.934,15.244-7.764,29.133-19.23,39.107c-11.141,9.69-25.917,15.081-41.606,15.178
				C1348.938,2625.75,1278.311,2625.966,1207.573,2625.966z M1047.101,2470.975c-0.116,8.525-0.261,17.092-0.401,25.432
				c-0.402,23.854-0.818,48.521-0.585,72.731c0.274,28.445,15.033,43.53,42.683,43.625c110.142,0.379,221.079,0.229,329.733-0.443
				c26.294-0.162,46.457-17.859,47.941-42.08c1.509-24.62,0.819-49.936,0.152-74.417c-0.232-8.539-0.472-17.312-0.618-26.044
				L1047.101,2470.975z"/>
		</g>
		<g>
			<path style="fill:#004379; stroke:#004379; stroke-width:40;" d="M1053.268,2347.14l-0.525-5.935c-0.557-6.288-1.208-12.698-1.837-18.898
				c-1.411-13.895-2.87-28.263-3.407-42.532c-0.773-20.552,3.683-35.684,13.622-46.262c9.948-10.588,24.802-15.982,45.408-16.491
				c18.837-0.464,37.539-0.356,57.339-0.24c6.897,0.04,13.975,0.082,21.19,0.099v-116.331l6.286-0.206
				c20.766-0.684,114.331-0.444,120.731-0.32l6.374,0.124l0,115.4c6.951-0.009,13.886-0.03,20.808-0.051
				c19.908-0.06,40.493-0.121,60.706,0.123c43.969,0.534,59.537,16.233,59.49,59.994c-0.016,14.917-0.555,30.025-1.077,44.637
				c-0.234,6.566-0.477,13.356-0.667,20.023l-0.181,6.306L1053.268,2347.14z M1138.27,2229.681c-10.596,0-21.001,0.08-31.421,0.337
				c-16.951,0.418-28.81,4.474-36.254,12.397c-7.435,7.912-10.74,19.974-10.104,36.871c0.521,13.855,1.959,28.015,3.349,41.707
				c0.438,4.308,0.885,8.717,1.306,13.131l379.761-0.527c0.15-4.639,0.315-9.277,0.478-13.811c0.518-14.5,1.053-29.495,1.068-44.187
				c0.021-19.006-2.905-30.437-9.484-37.062c-6.583-6.628-18.044-9.688-37.163-9.919c-20.115-0.243-40.65-0.182-60.509-0.123
				c-9.091,0.027-18.203,0.055-27.347,0.055h-6.5l0-115.582c-20.547-0.106-82.665-0.206-107.391,0.221v116.698h-6.5
				c-9.508,0-18.79-0.054-27.766-0.106C1155.104,2229.73,1146.627,2229.681,1138.27,2229.681z"/>
		</g>
		<g>
			<path style="fill:#004379; stroke:#004379; stroke-width:40;" d="M1034.31,2471.012l-0.125-6.391c-0.146-7.443-0.525-15.088-0.892-22.48
				c-0.88-17.761-1.791-36.126,0.338-54.109c1.488-12.564,7.258-24.229,12.838-35.51c2.342-4.734,4.765-9.631,6.748-14.39
				l1.665-3.994l400.403-0.556l1.778,3.677c2.1,4.343,4.573,8.62,7.191,13.149c6.019,10.41,12.243,21.175,13.789,33.063
				c2.438,18.75,1.878,37.94,1.337,56.499c-0.224,7.659-0.455,15.579-0.466,23.295l-0.009,6.472l-6.472,0.022L1034.31,2471.012z
				 M1063.479,2347.126c-1.708,3.782-3.556,7.518-5.358,11.16c-5.326,10.767-10.357,20.936-11.581,31.273v0.001
				c-2.001,16.9-1.118,34.712-0.264,51.937c0.268,5.405,0.542,10.943,0.73,16.478l418.96-1.196
				c0.084-5.774,0.252-11.551,0.417-17.188c0.527-18.051,1.071-36.717-1.234-54.443c-1.21-9.309-6.525-18.501-12.152-28.232
				c-1.945-3.365-3.94-6.814-5.783-10.321L1063.479,2347.126z"/>
		</g>
		<g>
			<path style="fill:#004379; stroke:#004379; stroke-width:40;" d="M888.3,2103.651c-3.402,0-6.859-0.108-10.368-0.326c-5.392-0.334-10.99-0.476-16.403-0.612
				c-26.424-0.668-53.748-1.359-77.666-23.076c-32.529-29.537-47.052-60.939-45.702-98.826c0.805-22.594,2.102-45.515,3.356-67.68
				c0.563-9.961,1.127-19.922,1.649-29.885l0.299-5.706l12.465-0.932l234.958,0.219l11.697,3.485l-0.025,4.87
				c-0.057,10.832-0.027,21.861,0.001,32.527c0.063,23.584,0.127,47.972-0.729,71.986c-1.316,36.874-13.654,66.924-35.68,86.9
				C946.535,2094.388,919.776,2103.651,888.3,2103.651z M755.845,1889.634c-0.435,8.077-0.892,16.154-1.349,24.231
				c-1.25,22.099-2.543,44.95-3.343,67.408c-1.203,33.772,11.967,61.97,41.449,88.738c20.34,18.468,44.1,19.069,69.255,19.705
				c5.53,0.141,11.249,0.285,16.878,0.634c32.401,2.007,59.604-6.08,78.683-23.384c19.368-17.566,30.234-44.446,31.421-77.733
				c0.848-23.767,0.784-48.027,0.722-71.489c-0.024-9.099-0.049-18.46-0.021-27.755l-0.55-0.164l-232.821-0.217L755.845,1889.634z"
				/>
		</g>
		<g>
			<path style="fill:#004379; stroke:#004379; stroke-width:40;" d="M1663.701,550.248l-163.718-0.419l-163.684,0.419l-0.036-6.48
				c-0.066-11.922-0.063-24.036-0.059-35.752c0.008-27.648,0.017-56.237-0.899-84.268c-0.534-16.065,3.172-28.376,11.015-36.588
				c7.403-7.751,18.367-11.772,32.585-11.953c40.076-0.522,80.805-0.918,121.053-1.175c40.332,0.257,81.06,0.653,121.139,1.175
				c14.216,0.18,25.179,4.202,32.582,11.953c7.843,8.211,11.549,20.521,11.016,36.588l0,0c-0.917,28.03-0.907,56.617-0.899,84.263
				c0.004,11.717,0.008,23.832-0.059,35.756L1663.701,550.248z M1499.983,536.829l150.783,0.386
				c0.036-9.777,0.032-19.622,0.029-29.199c-0.008-27.752-0.018-56.449,0.907-84.692v-0.003c0.413-12.446-2.085-21.591-7.424-27.181
				c-4.899-5.129-12.756-7.798-23.349-7.933c-40.053-0.522-80.753-0.917-120.972-1.174c-40.136,0.257-80.836,0.652-120.886,1.174
				c-10.597,0.134-18.453,2.803-23.352,7.933c-5.339,5.59-7.837,14.735-7.423,27.181c0.923,28.249,0.915,56.947,0.906,84.7
				c-0.003,9.576-0.006,19.419,0.029,29.195L1499.983,536.829z"/>
		</g>
		<g>
			<path style="fill:#004379; stroke:#004379; stroke-width:40;" d="M908.344,1422.168c-5.228,0-10.453-0.005-15.653-0.018c-22.694-0.051-41.609-0.24-59.528-0.594
				c-18.921-0.366-38.018-2.135-56.486-3.846c-8.332-0.772-16.948-1.57-25.398-2.225l-5.843-0.452l-2.522-95.963l6.729,0.056
				c15.76,0.133,31.521,0.261,47.28,0.389c52.471,0.426,106.729,0.867,160.096,1.48c2.574,0.021,5.33,0.124,8.651,0.324
				c3.604,0.212,7.185,0.52,9.9,0.764c1.502,0.136,3,0.275,4.5,0.416c3.303,0.309,6.712,0.627,10.052,0.883l18.221-2.179
				l-10.35,18.455l0.167,82.412l-6.523-0.009c-15.467-0.022-31.199,0.015-46.412,0.05
				C933.12,1422.14,920.726,1422.168,908.344,1422.168z M758.124,1402.997c6.63,0.554,13.276,1.17,19.751,1.77
				c18.235,1.689,37.091,3.437,55.541,3.793c17.844,0.353,36.687,0.541,59.305,0.592c17.487,0.042,35.273,0.001,52.475-0.039
				c13.093-0.03,26.577-0.055,39.938-0.056l-0.147-72.781l0.146-0.259c-2.111-0.184-4.211-0.38-6.27-0.572
				c-1.485-0.139-2.971-0.278-4.456-0.412c-2.622-0.235-6.073-0.532-9.509-0.734c-3.1-0.187-5.64-0.283-8.004-0.302
				c-53.368-0.614-107.614-1.054-160.075-1.48c-13.518-0.11-27.036-0.219-40.554-0.332L758.124,1402.997z"/>
		</g>
		<g>
			<path style="fill:#004379; stroke:#004379; stroke-width:40;" d="M1500.002,1019.38l-348.949-0.125l-0.444-29.732l5.265-1.087c2.337-0.483,4.693-1.103,7.187-1.761
				c5.711-1.505,11.617-3.061,17.867-3.061c92.716-0.039,194.106-0.013,319.076,0.079c124.958-0.093,226.348-0.118,319.069-0.079
				c6.247,0,12.152,1.556,17.863,3.061c2.494,0.657,4.85,1.278,7.188,1.761l5.265,1.087l-0.444,29.732L1500.002,1019.38z
				 M1163.861,1006.26l336.141,0.121l336.136-0.121l0.095-6.332c-0.878-0.226-1.748-0.455-2.608-0.682
				c-5.137-1.354-9.988-2.632-14.554-2.632c-92.719-0.039-194.101-0.014-319.066,0.079c-124.974-0.092-226.357-0.117-319.073-0.079
				c-4.568,0-9.42,1.278-14.557,2.632c-0.86,0.227-1.73,0.456-2.608,0.682L1163.861,1006.26z"/>
		</g>
		<g>
			<path style="fill:#004379; stroke:#004379; stroke-width:40;" d="M1019.577,1310.952l2.444-192.406l46.793,8.758l0.931,182.123L1019.577,1310.952z
				 M1034.824,1134.169l-2.076,163.375l23.933-0.727l-0.811-158.709L1034.824,1134.169z"/>
		</g>
		<g>
			<path style="fill:#004379; stroke:#004379; stroke-width:40;" d="M1739.51,1513.377l-1.235-0.001l-239.363-0.101l-238.421,0.102l-1.149-0.453
				c-42.617-16.784-59.432-40.263-59.976-83.741c-0.626-49.299-0.947-101.507-1.041-169.279
				c-0.063-48.102,34.174-84.643,79.636-84.999c69.516-0.536,142.15-0.754,222.046-0.671c79.884-0.085,152.516,0.135,222.031,0.671
				c45.463,0.355,79.699,36.896,79.638,84.998v0c-0.094,67.788-0.415,119.996-1.042,169.281
				c-0.543,43.477-17.358,66.955-59.975,83.739L1739.51,1513.377z M1499.997,1500.275l237.037,0.1
				c36.857-14.787,50.129-33.582,50.602-71.354c0.625-49.235,0.946-101.398,1.04-169.135c0.053-40.738-28.639-71.684-66.738-71.981
				c-69.476-0.536-142.069-0.755-221.931-0.671c-79.871-0.085-152.468,0.136-221.945,0.671
				c-38.099,0.297-66.79,31.243-66.737,71.981c0.094,67.72,0.415,119.883,1.04,169.133c0.472,37.774,13.744,56.569,50.602,71.356
				L1499.997,1500.275z"/>
		</g>
		<g>
			<path style="fill:#F4B429; stroke:#F4B429; stroke-width:40;" d="M1268.512,1832.05c-42.91,0-77.819-34.909-77.819-77.819c0-42.909,34.909-77.818,77.819-77.818
				c42.909,0,77.818,34.909,77.818,77.818C1346.331,1797.141,1311.421,1832.05,1268.512,1832.05z M1268.512,1689.412
				c-35.741,0-64.819,29.077-64.819,64.818s29.078,64.819,64.819,64.819s64.818-29.078,64.818-64.819
				S1304.253,1689.412,1268.512,1689.412z"/> <!--Circulo abajo izquierda-->
		</g>
		<g>
			<path style="fill:#F4B429; stroke:#F4B429; stroke-width:40;" d="M1339.89,870.563c-44.639,0-80.955-36.316-80.955-80.955c0-44.639,36.316-80.955,80.955-80.955
				s80.955,36.316,80.955,80.955C1420.845,834.247,1384.529,870.563,1339.89,870.563z M1339.89,721.653
				c-37.47,0-67.955,30.484-67.955,67.955c0,37.471,30.484,67.955,67.955,67.955s67.955-30.484,67.955-67.955
				C1407.845,752.138,1377.36,721.653,1339.89,721.653z"/> <!--Circulo arriba izquierda-->
		</g>
		<g>
			<path style="fill:#004379; stroke:#004379; stroke-width:40;" d="M1996.752,1894.044l0.7-9.382c0.219-2.923,0.497-5.864,0.766-8.709
				c0.597-6.307,1.16-12.263,1.152-18.24c-0.019-51.032-0.092-102.913-0.163-153.087c-0.104-72.7-0.21-147.876-0.15-221.823
				c0.008-15.504,0.872-31.176,1.707-46.331c0.383-6.952,0.779-14.14,1.085-21.192l0.27-6.209l6.216-0.008
				c15.493-0.022,31.236,0.015,46.465,0.05c17.202,0.04,34.991,0.081,52.479,0.039c22.618-0.051,41.462-0.239,59.302-0.591
				c18.453-0.357,37.31-2.104,55.546-3.793c8.38-0.776,17.045-1.579,25.592-2.241l6.725-0.521l0.272,6.739
				c0.169,4.187,0.387,8.463,0.598,12.599c0.46,9.023,0.936,18.354,0.951,27.614c0.205,106.33,0.328,214.441,0.446,318.992
				c0.044,38.545,0.088,77.09,0.136,115.635l0.009,7.048l-7.025-0.561c-2.001-0.16-4-0.311-5.99-0.46l-232.823,0.212
				c-1.743,0.524-3.487,1.041-5.241,1.559L1996.752,1894.044z M2014.548,1422.056c-0.25,5.083-0.53,10.167-0.804,15.131
				c-0.826,14.981-1.68,30.473-1.688,45.625c-0.06,73.935,0.047,149.103,0.15,221.796c0.071,50.177,0.145,102.062,0.163,153.095
				c0.008,6.47-0.588,12.897-1.176,19.12l232.643-0.212c-0.044-36.216-0.086-72.431-0.127-108.647
				c-0.118-104.549-0.241-212.656-0.446-318.983c-0.015-8.941-0.482-18.109-0.935-26.975c-0.101-1.967-0.202-3.965-0.3-5.975
				c-6.269,0.529-12.563,1.112-18.704,1.682c-18.469,1.711-37.566,3.48-56.49,3.846c-17.916,0.354-36.832,0.543-59.526,0.594
				c-17.514,0.042-35.32,0-52.54-0.039C2041.581,1422.082,2028,1422.052,2014.548,1422.056z"/>
		</g>
		<g>
			<path style="fill:#004379; stroke:#004379; stroke-width:40;" d="M2009.605,1336.441l-8.703-1.023l-33.526-28.104l-2.306-181.474l0.103-0.591
				c4.985-28.775,23.371-47.215,47.982-48.123c77.148-2.846,140.546-3.002,199.516-0.495c17.224,0.733,33.178,9.098,44.925,23.555
				c10.896,13.409,17.265,31.245,17.477,48.935c0.09,7.576,0.234,15.299,0.373,22.769c0.539,28.952,1.097,58.89-1.271,88.258
				c-1.303,16.16-6.396,31.888-11.321,47.099c-2.137,6.601-4.348,13.427-6.175,20.095l-1.299,4.74l-4.914,0.042
				c-17.217,0.147-34.433,0.288-51.649,0.428c-51.029,0.417-103.797,0.847-155.688,1.438c-2.489,0.028-5.111,0.127-8.015,0.303
				c-3.4,0.205-6.72,0.489-9.519,0.74c-1.546,0.139-3.091,0.282-4.637,0.426c-3.507,0.326-7.133,0.663-10.728,0.935
				L2009.605,1336.441z M2006.277,1322.96l3.595,0.422c3.285-0.255,6.636-0.567,9.882-0.869c1.56-0.145,3.12-0.29,4.681-0.43
				c2.723-0.244,6.308-0.552,9.896-0.769c3.117-0.188,5.946-0.294,8.649-0.325c51.912-0.592,104.689-1.022,155.729-1.439
				c15.594-0.127,31.187-0.255,46.78-0.387c1.578-5.37,3.31-10.715,4.996-15.923c4.911-15.167,9.55-29.494,10.731-44.139
				c2.315-28.726,1.765-58.336,1.23-86.971c-0.139-7.49-0.283-15.236-0.375-22.855c-0.33-27.683-19.522-58.362-49.954-59.657
				c-58.617-2.494-121.687-2.335-198.484,0.498l-0.239-6.496l0.239,6.496c-18.232,0.673-31.49,14.405-35.55,36.772l2.216,174.295
				L2006.277,1322.96z"/>
		</g>
		<g>
			<path style="fill:#004379; stroke:#004379; stroke-width:40;" d="M1792.428,2625.966c-70.745,0-141.358-0.216-211.038-0.646
				c-15.689-0.097-30.465-5.487-41.606-15.178c-11.466-9.975-18.296-23.863-19.23-39.107c-1.544-25.194-0.846-50.802-0.171-75.566
				c0.288-10.593,0.587-21.547,0.703-32.282l0.168-15.454l9.036,9.036l435.451,1.244l0.076,6.404
				c0.125,10.576,0.307,21.339,0.481,31.746c0.404,23.947,0.822,48.709,0.587,73.101c-0.344,35.787-20.623,56.381-55.637,56.5
				C1871.698,2625.898,1832.04,2625.966,1792.428,2625.966z M1533.996,2469.778c-0.146,8.726-0.385,17.489-0.618,26.021
				c-0.668,24.489-1.358,49.813,0.151,74.44c1.484,24.221,21.646,41.918,47.94,42.08c108.655,0.672,219.596,0.822,329.733,0.443
				c27.649-0.095,42.408-15.18,42.682-43.625c0.234-24.22-0.183-48.894-0.585-72.756c-0.141-8.332-0.284-16.891-0.401-25.407
				L1533.996,2469.778z"/>
		</g>
		<g>
			<path style="fill:#004379; stroke:#004379; stroke-width:40;" d="M1946.732,2347.14l-404.259-0.561l-0.181-6.306c-0.191-6.669-0.434-13.461-0.668-20.029
				c-0.521-14.609-1.061-29.716-1.077-44.631c-0.046-43.761,15.521-59.46,59.489-59.994c20.212-0.243,40.797-0.182,60.707-0.123
				c6.922,0.021,13.857,0.042,20.809,0.051v-115.4l6.374-0.124c6.398-0.123,99.964-0.363,120.73,0.32l6.286,0.206v116.331
				c7.215-0.017,14.292-0.059,21.189-0.099c19.803-0.115,38.504-0.226,57.339,0.24c20.607,0.509,35.46,5.903,45.409,16.491
				c9.938,10.578,14.394,25.71,13.62,46.262c-0.536,14.271-1.995,28.639-3.406,42.535c-0.629,6.198-1.28,12.608-1.837,18.896
				L1946.732,2347.14z M1555.095,2333.597l379.761,0.527c0.421-4.413,0.868-8.821,1.306-13.128
				c1.391-13.693,2.829-27.854,3.35-41.71c0.636-16.897-2.67-28.958-10.104-36.871c-7.444-7.924-19.304-11.979-36.255-12.397
				c-18.638-0.46-37.244-0.352-56.942-0.236c-8.976,0.053-18.258,0.106-27.766,0.106h-6.5v-116.698
				c-24.725-0.427-86.84-0.328-107.391-0.221v115.582h-6.5c-9.144,0-18.257-0.027-27.348-0.055
				c-19.858-0.059-40.396-0.12-60.51,0.123c-19.118,0.231-30.58,3.291-37.162,9.919c-6.58,6.626-9.505,18.056-9.485,37.062
				c0.016,14.689,0.551,29.682,1.068,44.181C1554.778,2324.314,1554.944,2328.955,1555.095,2333.597z"/>
		</g>
		<g>
			<path style="fill:#004379; stroke:#004379; stroke-width:40;" d="M1965.689,2471.012l-444.603-1.271v-6.481c-0.012-7.708-0.242-15.625-0.466-23.281
				c-0.542-18.562-1.103-37.755,1.337-56.507c1.546-11.888,7.77-22.652,13.788-33.063c2.618-4.529,5.092-8.807,7.192-13.15
				l1.777-3.677l400.403,0.556l1.664,3.994c1.983,4.76,4.405,9.656,6.748,14.393c5.58,11.279,11.351,22.943,12.838,35.508
				c2.129,17.982,1.219,36.347,0.338,54.107c-0.366,7.393-0.745,15.038-0.892,22.481L1965.689,2471.012z M1534.032,2456.778
				l418.96,1.196c0.188-5.535,0.463-11.073,0.73-16.479c0.854-17.225,1.737-35.035-0.264-51.935v-0.001
				c-1.224-10.338-6.254-20.506-11.579-31.271c-1.803-3.644-3.65-7.379-5.359-11.162l-383.736-0.532
				c-1.844,3.508-3.838,6.957-5.784,10.322c-5.626,9.731-10.94,18.923-12.151,28.231c-2.306,17.729-1.761,36.397-1.233,54.451
				C1533.78,2445.234,1533.948,2451.01,1534.032,2456.778z"/>
		</g>
		<g>
			<path style="fill:#004379; stroke:#004379; stroke-width:40;" d="M2111.699,2103.651c-31.479,0-58.233-9.263-77.853-27.056
				c-22.025-19.977-34.363-50.025-35.679-86.899c-0.857-24.012-0.793-48.396-0.73-71.979c0.028-10.669,0.058-21.7,0.001-32.535
				l-0.025-4.87l11.697-3.485l235.209-0.219l12.214,0.932l0.3,5.706c0.521,9.942,1.084,19.884,1.646,29.825
				c1.256,22.185,2.554,45.126,3.359,67.739c1.35,37.888-13.173,69.29-45.703,98.826c-23.917,21.717-51.241,22.408-77.665,23.076
				c-5.414,0.137-11.012,0.278-16.404,0.612C2118.561,2103.543,2115.1,2103.651,2111.699,2103.651z M2010.458,1889.989
				c0.029,9.298,0.004,18.662-0.021,27.763c-0.062,23.46-0.126,47.718,0.723,71.481c1.188,33.287,12.052,60.167,31.42,77.733
				c19.08,17.305,46.288,25.388,78.684,23.384c5.629-0.349,11.348-0.493,16.878-0.634c25.155-0.636,48.916-1.237,69.256-19.705
				c29.481-26.768,42.652-54.965,41.449-88.738c-0.801-22.478-2.095-45.35-3.347-67.468c-0.455-8.058-0.911-16.114-1.346-24.172
				l-0.324-0.025l-232.821,0.217L2010.458,1889.989z"/>
		</g>
		<g>
			<path style="fill:#004379;stroke:#004379; stroke-width:40;" d="M2091.655,1422.168c-12.382,0-24.774-0.029-36.881-0.057c-15.214-0.035-30.947-0.072-46.412-0.05
				l-6.523,0.009l0.169-82.412l-10.351-18.454l18.221,2.179c3.342-0.257,6.753-0.575,10.058-0.884
				c1.497-0.14,2.995-0.28,4.492-0.415c2.72-0.245,6.302-0.552,9.913-0.765c3.312-0.2,6.067-0.303,8.663-0.324
				c53.346-0.613,107.604-1.054,160.075-1.479c15.759-0.128,31.519-0.256,47.278-0.389l6.729-0.056l-2.521,95.963l-5.843,0.452
				c-8.45,0.654-17.065,1.453-25.396,2.225c-18.469,1.711-37.566,3.48-56.49,3.846c-17.916,0.354-36.832,0.543-59.526,0.594
				C2102.109,1422.163,2096.882,1422.168,2091.655,1422.168z M2017.905,1409.055c12.37,0,24.797,0.029,36.899,0.057
				c17.201,0.04,34.991,0.081,52.474,0.039c22.618-0.051,41.462-0.239,59.302-0.591c18.453-0.357,37.31-2.104,55.546-3.793
				c6.475-0.6,13.12-1.215,19.75-1.77l1.861-70.813c-13.518,0.113-27.035,0.222-40.552,0.332
				c-52.461,0.426-106.708,0.866-160.054,1.479c-2.387,0.02-4.927,0.115-8.018,0.302c-3.443,0.203-6.896,0.5-9.521,0.735
				c-1.482,0.133-2.966,0.272-4.45,0.411c-2.061,0.192-4.162,0.389-6.274,0.573l0.146,0.259l-0.147,72.781
				C2015.879,1409.056,2016.893,1409.055,2017.905,1409.055z"/>
		</g>
		<g>
			<path style="fill:#004379;stroke:#004379; stroke-width:40;" d="M1980.424,1310.952l-50.17-1.524l0.931-182.123l46.794-8.759L1980.424,1310.952z
				 M1943.318,1296.817l23.934,0.727l-2.076-163.375l-21.045,3.939L1943.318,1296.817z"/>
		</g>
		<g>
			<path style="fill:#F4B429; stroke:#F4B429; stroke-width:40;" d="M1731.488,1832.05c-42.91,0-77.819-34.909-77.819-77.819c0-42.909,34.909-77.818,77.819-77.818
				c42.909,0,77.818,34.909,77.818,77.818C1809.307,1797.141,1774.397,1832.05,1731.488,1832.05z M1731.488,1689.412
				c-35.741,0-64.819,29.077-64.819,64.818s29.078,64.819,64.819,64.819s64.818-29.078,64.818-64.819
				S1767.229,1689.412,1731.488,1689.412z"/> <!--Circulo abajo derecho-->
		</g>
		<g>
			<path style="fill:#F4B429; stroke:#F4B429; stroke-width:40;" d="M1660.109,870.563c-44.639,0-80.954-36.316-80.954-80.955c0-44.639,36.315-80.955,80.954-80.955
				s80.955,36.316,80.955,80.955C1741.064,834.247,1704.748,870.563,1660.109,870.563z M1660.109,721.653
				c-37.47,0-67.954,30.484-67.954,67.955c0,37.471,30.484,67.955,67.954,67.955c37.471,0,67.955-30.484,67.955-67.955
				C1728.064,752.138,1697.58,721.653,1660.109,721.653z"/> <!--Circulo arriba derecho-->
		</g>
	</g>
</g>
</svg>
