<?xml version="1.0" encoding="UTF-8" standalone="no"?>
<svg
   xmlns:dc="http://purl.org/dc/elements/1.1/"
   xmlns:cc="http://creativecommons.org/ns#"
   xmlns:rdf="http://www.w3.org/1999/02/22-rdf-syntax-ns#"
   xmlns:svg="http://www.w3.org/2000/svg"
   xmlns="http://www.w3.org/2000/svg"
   viewBox="0 0 2666.6667 2666.6667"
   height="2666.6667"
   width="2666.6667"
   xml:space="preserve"
   id="svg2"
   version="1.1"><metadata
     id="metadata8"><rdf:RDF><cc:Work
         rdf:about=""><dc:format>image/svg+xml</dc:format><dc:type
           rdf:resource="http://purl.org/dc/dcmitype/StillImage" /></cc:Work></rdf:RDF></metadata><defs
     id="defs6" /><g
     transform="matrix(1.3333333,0,0,-1.3333333,0,2666.6667)"
     id="g10"><g
       transform="scale(0.1)"
       id="g12"><g
         transform="scale(1.22699)"
         id="g14"><path
           id="path16"
           style="fill:#ffffff;fill-opacity:1;fill-rule:nonzero;stroke:none"
           d="M 16300,0 H 0 V 16300 H 16300 V 0" /></g><path
         id="path18"
         style="fill:#004379; stroke:#004379; stroke-width:8;"
         d="m 8335.38,13929.6 c -330.34,3.7 -544.98,226.9 -539.32,560.9 5.05,298.6 246.29,540.6 541.91,543.7 306.2,3.1 560.42,-251.2 560.91,-561.3 0.51,-321 -233.9,-547 -563.5,-543.3 z m 4452.72,350 c 6.7,496.5 -217.9,853.2 -627.1,1093.5 -209.4,123 -443.1,217.2 -677.5,283 -789,221.6 -1596.86,211.8 -2403.24,137.8 -510.82,-46.8 -1014.44,-139.5 -1457.46,-430.8 -292.62,-192.4 -462.84,-443.5 -451.26,-808 9.68,-305.1 13.16,-611.5 -5.73,-915.8 -16.4,-264.3 91.52,-341.3 343.68,-338.5 728.82,8 1457.85,-3.6 2186.8,-8.3 175.65,-1.1 331.41,-5.6 329.61,-260.3 -1.9,-259.9 -167.26,-250.2 -337.65,-250.3 -650.15,-0.5 -1300.3,1.7 -1950.45,2.9 -0.01,-4.3 -0.01,-8.6 -0.02,-12.9 -600.89,1.2 -1201.86,-2.8 -1802.67,4.7 -713.3,9 -1200.56,-338.7 -1492.99,-962.3 -445.73,-950.6 -418.99,-1954 -237.51,-2952.5 66.97,-368.5 226.52,-733.1 407.68,-1064.6 201.04,-367.9 541.25,-601.5 976.51,-633.9 284.2,-21.2 571.06,-4.5 856.56,-11.4 164.4,-4 227.62,67.2 224.21,230.3 -6.6,315 -1.15,630.4 -0.65,945.6 2.09,1296.8 627.63,1914.7 1930.96,1909.1 876.72,-3.6 1753.52,-14.9 2630.12,-5.9 1004.3,10.2 1545.8,560.9 1553.3,1566.3 6.1,827.4 -6.4,1655 4.8,2482.3" /><path
         id="path20"
         style="fill:#F4B429; stroke:#F4B429; stroke-width:8;"
         d="m 11664.6,6070.4 c 330.4,-3.7 545,-226.9 539.3,-560.9 -5,-298.5 -246.3,-540.6 -541.9,-543.6 -306.2,-3.2 -560.4,251.1 -560.9,561.2 -0.5,321 233.9,547 563.5,543.3 z m 4130.8,5067.8 c -67,368.6 -226.5,733.1 -407.7,1064.6 -201,367.9 -541.2,601.5 -976.5,633.9 -284.2,21.2 -571.1,4.5 -856.6,11.4 -164.4,4 -227.6,-67.2 -224.2,-230.2 6.6,-315.1 1.2,-630.5 0.7,-945.7 -2.1,-1296.8 -627.6,-1914.7 -1931,-1909.2 -876.7,3.8 -1753.52,15 -2630.12,6 -1004.26,-10.2 -1545.77,-560.9 -1553.24,-1566.3 -6.14,-827.4 6.34,-1655 -4.83,-2482.3 -6.7,-496.5 217.88,-853.2 627.05,-1093.5 209.45,-123 443.17,-217.2 677.55,-283 789,-221.6 1596.89,-211.8 2403.19,-137.8 510.9,46.8 1014.5,139.5 1457.5,430.8 292.6,192.4 462.8,443.5 451.3,808 -9.7,305.1 -13.2,611.6 5.7,915.8 16.4,264.3 -91.5,341.3 -343.7,338.5 -728.8,-8 -1457.8,3.6 -2186.8,8.3 -175.6,1.1 -331.39,5.6 -329.57,260.3 1.86,259.9 167.27,250.2 337.67,250.3 650.1,0.5 1300.2,-1.7 1950.4,-2.9 0,4.3 0,8.6 0,12.9 600.9,-1.2 1201.9,2.8 1802.7,-4.7 713.3,-9 1200.6,338.7 1493,962.3 445.7,950.6 419,1954 237.5,2952.5" /></g></g></svg>