<?xml version="1.0" encoding="UTF-8" standalone="no"?>
<svg
   xmlns:dc="http://purl.org/dc/elements/1.1/"
   xmlns:cc="http://creativecommons.org/ns#"
   xmlns:rdf="http://www.w3.org/1999/02/22-rdf-syntax-ns#"
   xmlns:svg="http://www.w3.org/2000/svg"
   xmlns="http://www.w3.org/2000/svg"
   viewBox="0 0 438.82666 586.23999"
   height="586.23999"
   width="438.82666"
   xml:space="preserve"
   id="svg2"
   version="1.1"><metadata
     id="metadata8"><rdf:RDF><cc:Work
         rdf:about=""><dc:format>image/svg+xml</dc:format><dc:type
           rdf:resource="http://purl.org/dc/dcmitype/StillImage" /></cc:Work></rdf:RDF></metadata><defs
     id="defs6" /><g
     transform="matrix(1.3333333,0,0,-1.3333333,0,586.24)"
     id="g10"><g
       transform="scale(0.1)"
       id="g12">
       <path
         id="path14"
         style="fill:#FFFFFF;fill-opacity:1;fill-rule:evenodd;stroke:none"
         d="m 2401,2639.2 -581.7,-274.3 v -871 l 581.7,274.3 v 871"
        /> <!--Cara del rectángulo-->
        <path
         id="path16"
         style="fill:#FFFFFF;fill-opacity:1;fill-rule:evenodd;stroke:none"
         d="m 1819.3,1493.9 v 871 l -581.7,274.3 v -871 l 581.7,-274.3"
        /><!--Cara del rectángulo-->
        <path
         id="path18"
         style="fill:#FFFFFF;fill-opacity:1;fill-rule:evenodd;stroke:none"
         d="m 1819.3,2364.9 581.7,274.3 -581.7,263.7 -581.7,-263.7 581.7,-274.3"
        /><!--Cara del rectángulo-->
        <path
         id="path20"
         style="fill:#FFFFFF;fill-opacity:1;fill-rule:evenodd;stroke:none"
         d="M 2507.5,1546.8 1819.3,937.199 395.5,2198.4 1819.3,3459.7 2507.5,2850 V 3878.4 H 48 V 518.398 H 2507.5 V 1546.8"
        /> <!--Fondo del movil-->
        <path
         id="path22"
         style="fill:#FFFFFF;fill-opacity:1;fill-rule:evenodd;stroke:none"
         d="M 48,3878.4 H 2507.5 V 4149 c 0,109.9 -89.9,199.8 -199.8,199.8 H 247.902 C 138,4348.8 48.0977,4258.9 48.0977,4149 L 48,3878.4"
        /> <!--Parte de arriba del movil-->
        <path
         id="path24"
         style="fill:#FFFFFF;fill-opacity:1;fill-rule:evenodd;stroke:none"
         d="M 1819.3,2902.9 2401,2639.2 v -871 l -581.7,-274.3 -581.7,274.3 v 871 z m 0,556.8 L 395.5,2198.4 1819.3,937.102 l 688.2,609.598 735.6,651.6 -735.6,651.6 -688.2,609.8 v 0"
        /> <!--Fondo del rectangulo-->
        <path
         id="path26"
         style="fill:#FFFFFF;fill-opacity:1;fill-rule:evenodd;stroke:none"
         d="M 2507.5,518.398 H 48 V 247.801 C 48,137.898 137.902,48 247.801,48 H 2307.6 c 109.9,0 199.8,89.898 199.8,199.801 v 270.597 h 0.1"
        /> <!--Parte de abajo del movil-->
        <path
         id="path28"
         style="fill:#004379;fill-opacity:1;fill-rule:nonzero;stroke:none"
         d="m 49.0977,517.301 v -269.5 C 49.0977,138.199 138.297,49 247.902,49 H 2307.7 c 109.6,0 198.8,89.199 198.8,198.801 v 269.5 z M 2307.7,46.8984 H 247.902 C 137.102,46.8984 47,137 47,247.801 V 519.5 H 2508.7 V 247.801 C 2508.6,137 2418.5,46.8984 2307.7,46.8984"
        /> <!--Ni idea-->
        <path
         id="path30"
         style="fill:#004379;fill-opacity:1;fill-rule:nonzero;stroke:#004379; stroke-width:50;"
         d="M 2307.7,0 H 247.902 C 111.199,0 0.101563,111.199 0.101563,247.801 V 4149 c 0,136.7 111.199437,247.8 247.800437,247.8 H 2307.7 c 136.7,0 247.8,-111.2 247.8,-247.8 V 2850 c 0,-26.5 -21.5,-48 -48,-48 -26.5,0 -48,21.5 -48,48 v 1299 c 0,83.7 -68.1,151.8 -151.8,151.8 H 247.902 C 164.199,4300.8 96.1016,4232.7 96.1016,4149 V 247.801 C 96.1016,164.102 164.199,96 247.902,96 H 2307.7 c 83.7,0 151.8,68.102 151.8,151.801 V 1546.8 c 0,26.5 21.5,48 48,48 26.5,0 48,-21.5 48,-48 V 247.801 C 2555.5,111.199 2444.4,0 2307.7,0"
        /> <!--Borde del movil-->
        <path
         id="path32"
         style="fill:#004379;fill-opacity:1;fill-rule:nonzero;stroke:#004379; stroke-width:50;"
         d="M 2507.5,3830.4 H 48 c -26.5,0 -47.99609375,21.5 -47.99609375,48 0,26.5 21.49609375,48 47.99609375,48 h 2459.5 c 26.5,0 48,-21.5 48,-48 0,-26.5 -21.5,-48 -48,-48" 
        /> <!--Borde del movil arriba -->
        <path
         id="path34"
         style="fill:#004379;fill-opacity:1;fill-rule:nonzero;stroke:#004379; stroke-width:50;"
         d="M 2507.5,470.398 H 48 c -26.5,0 -47.99609375,21.5 -47.99609375,48 0,26.5 21.49609375,48 47.99609375,48 h 2459.5 c 26.5,0 48,-21.5 48,-48 0,-26.5 -21.5,-48 -48,-48" 
        /> <!--Borde del movil abajo -->
        <path
         id="path36"
         style="fill:#004379;fill-opacity:1;fill-rule:nonzero;stroke:#004379; stroke-width:50;"
         d="m 1473.4,3105.2 c -13.3,0 -26.5,5.5 -36,16.2 -17.6,19.8 -15.7,50.2 4.1,67.8 l 143.7,127.3 c 19.8,17.6 50.2,15.7 67.8,-4.1 17.6,-19.8 15.7,-50.2 -4.1,-67.8 l -143.7,-127.3 c -9.1,-8.1 -20.5,-12.1 -31.8,-12.1 z M 1114.1,2787 c -13.3,0 -26.5,5.5 -36,16.2 -17.6,19.8 -15.7,50.2 4.1,67.8 l 143.7,127.3 c 19.8,17.6 50.2,15.7 67.8,-4.1 17.6,-19.8 15.7,-50.2 -4.1,-67.8 l -143.7,-127.3 c -9.1,-8.2 -20.5,-12.1 -31.8,-12.1 z M 754.801,2468.7 c -13.301,0 -26.504,5.5 -36,16.2 -17.602,19.8 -15.703,50.2 4.101,67.8 L 866.598,2680 c 19.8,17.6 50.203,15.7 67.804,-4.1 17.598,-19.8 15.7,-50.2 -4.101,-67.8 L 786.598,2480.8 c -9.094,-8.1 -20.496,-12.1 -31.797,-12.1 z M 395.5,2150.4 c -13.301,0 -26.5,5.5 -36,16.2 -17.598,19.8 -15.699,50.2 4.102,67.8 l 143.699,127.3 c 19.898,17.6 50.203,15.7 67.801,-4.1 17.601,-19.8 15.695,-50.2 -4.106,-67.8 L 427.301,2162.5 c -9.102,-8.1 -20.5,-12.1 -31.801,-12.1" 
        /> <!--Borde de la RA discontinuo arriba-->
        <path
         id="path38"
         style="fill:#004379;fill-opacity:1;fill-rule:nonzero;stroke:#004379; stroke-width:50;"
         d="m 741.398,1844 c -11.296,0 -22.699,4 -31.796,12.1 l -143.704,127.3 c -19.796,17.6 -21.699,47.9 -4.097,67.8 17.601,19.9 47.898,21.7 67.801,4.1 L 773.297,1928 c 19.801,-17.6 21.707,-47.9 4.101,-67.8 -9.597,-10.8 -22.796,-16.2 -36,-16.2 z M 1100.7,1525.7 c -11.3,0 -22.7,4 -31.8,12.1 l -143.697,127.3 c -19.801,17.6 -21.707,47.9 -4.101,67.8 17.597,19.9 47.898,21.7 67.796,4.1 L 1132.6,1609.7 c 19.8,-17.6 21.7,-47.9 4.1,-67.8 -9.6,-10.7 -22.8,-16.2 -36,-16.2 z M 1460,1207.4 c -11.3,0 -22.7,4 -31.8,12.1 l -143.7,127.3 c -19.8,17.6 -21.7,47.9 -4.1,67.8 17.6,19.9 47.9,21.7 67.8,4.1 l 143.7,-127.3 c 19.8,-17.6 21.7,-47.9 4.1,-67.8 -9.5,-10.7 -22.8,-16.2 -36,-16.2 z m 359.3,-318.298 c -11.3,0 -22.7,4 -31.8,12.097 L 1643.8,1028.5 c -19.8,17.6 -21.7,47.9 -4.1,67.8 17.6,19.9 47.9,21.7 67.8,4.1 l 143.7,-127.298 c 19.8,-17.602 21.7,-47.903 4.1,-67.801 -9.5,-10.699 -22.7,-16.199 -36,-16.199" 
        /> <!--Borde de la RA discontinuo abajo-->
        <path
         id="path40"
         style="fill:#004379;fill-opacity:1;fill-rule:nonzero;stroke:#004379; stroke-width:50;"
         d="m 1819.3,889.102 c -13.3,0 -26.5,5.5 -35.9,16.199 -17.6,19.801 -15.7,50.199 4.1,67.801 L 3170.8,2198.4 1787.5,3423.7 c -19.8,17.6 -21.7,47.9 -4.1,67.8 17.6,19.8 47.9,21.7 67.8,4.1 L 3275,2234.3 c 10.3,-9.1 16.2,-22.2 16.2,-35.9 0,-13.7 -5.9,-26.8 -16.2,-35.9 L 1851.1,901.199 c -9.1,-8.097 -20.5,-12.097 -31.8,-12.097" 
        /> <!--Borde de la RA continuo-->
        <path
         id="path42"
         style="fill:#F4B429;fill-opacity:1;fill-rule:nonzero; stroke:#F4B429; stroke-width:50;"
         d="m 1819.3,1445.9 c -6.9,0 -13.8,1.5 -20.4,4.6 l -581.7,274.3 c -16.8,7.9 -27.5,24.8 -27.5,43.4 v 871 c 0,16.4 8.4,31.7 22.3,40.5 13.9,8.8 31.3,9.9 46.2,2.9 l 581.7,-274.3 c 24,-11.3 34.2,-39.9 22.9,-63.9 -11.3,-24 -39.9,-34.3 -63.9,-22.9 l -513.2,242 v -764.9 l 554.2,-261.3 c 24,-11.3 34.2,-39.9 22.9,-63.9 -8.3,-17.3 -25.5,-27.5 -43.5,-27.5" 
        /> <!--Borde del rectangulo izq continuo-->
        <path
         id="path44"
         style="fill:#F4B429;fill-opacity:1;fill-rule:nonzero; stroke:#F4B429; stroke-width:50;"
         d="m 1867.3,2334.5 v -764.9 l 485.7,229 v 764.9 z m -48,-888.6 c -9,0 -17.9,2.5 -25.7,7.5 -13.9,8.8 -22.3,24.1 -22.3,40.5 v 871 c 0,18.6 10.7,35.5 27.5,43.4 l 581.7,274.3 c 14.9,7 32.3,5.9 46.2,-2.9 13.9,-8.8 22.3,-24.1 22.3,-40.5 v -871 c 0,-18.6 -10.7,-35.5 -27.5,-43.4 l -581.7,-274.3 c -6.5,-3.1 -13.5,-4.6 -20.5,-4.6" 
        /> <!--Borde del rectangulo der continuo-->
        <path
         id="path46"
         style="fill:#F4B429;fill-opacity:1;fill-rule:nonzero; stroke:#F4B429; stroke-width:50;"
         d="m 2401,2591.2 c -6.6,0 -13.4,1.4 -19.8,4.3 l -561.9,254.7 -561.9,-254.7 c -24.1,-10.9 -52.6,-0.2 -63.5,23.9 -10.9,24.1 -0.2,52.6 23.9,63.5 l 581.7,263.7 c 12.6,5.7 27,5.7 39.6,0 l 581.7,-263.7 c 24.2,-10.9 34.9,-39.4 23.9,-63.5 -8,-17.7 -25.5,-28.2 -43.7,-28.2" 
        /> <!--Borde del rectangulo arriba-->
      </g>
    </g>
  </svg>